<svg width="16" height="16" viewBox="0 0 16 16" fill="none" xmlns="http://www.w3.org/2000/svg">
<path d="M8.00087 6.23313L13.3041 0.929794C13.7923 0.441634 14.5837 0.441634 15.0719 0.929791C15.56 1.41794 15.56 2.20939 15.0719 2.69754L9.76862 8.00087L15.0719 13.3041C15.56 13.7923 15.56 14.5837 15.0719 15.0719C14.5837 15.56 13.7923 15.56 13.3041 15.0719L8.00087 9.76863L2.69754 15.0719C2.20938 15.56 1.41794 15.56 0.929789 15.0719C0.441632 14.5837 0.441633 13.7923 0.929794 13.3041L6.23312 8.00087L0.92978 2.69754C0.441626 2.20939 0.441626 1.41794 0.92978 0.929781C1.41793 0.441628 2.20939 0.441628 2.69754 0.929782L8.00087 6.23313Z" fill="#FAFAFA"/>
</svg>
