<svg width="22" height="22" viewBox="0 0 22 22" fill="none" xmlns="http://www.w3.org/2000/svg">
<path d="M11.125 0.714285C16.8057 0.714285 21.4107 5.31936 21.4107 11C21.4107 16.6806 16.8057 21.2857 11.125 21.2857C5.44437 21.2857 0.839294 16.6806 0.839294 11C0.839294 5.31936 5.44437 0.714285 11.125 0.714285ZM11.125 2.42857C6.39114 2.42857 2.55358 6.26613 2.55358 11C2.55358 15.7339 6.39114 19.5714 11.125 19.5714C15.8589 19.5714 19.6964 15.7339 19.6964 11C19.6964 6.26613 15.8589 2.42857 11.125 2.42857ZM11.1881 9.28571C11.3918 9.28571 11.5196 9.31754 11.6314 9.3773C11.7431 9.43707 11.8308 9.52476 11.8906 9.63651C11.9503 9.74826 11.9822 9.8761 11.9822 10.0798V15.3488C11.9822 15.5525 11.9503 15.6803 11.8906 15.7921C11.8308 15.9038 11.7431 15.9915 11.6314 16.0513C11.5196 16.111 11.3918 16.1429 11.1881 16.1429H11.0619C10.8583 16.1429 10.7304 16.111 10.6187 16.0513C10.5069 15.9915 10.4192 15.9038 10.3595 15.7921C10.2997 15.6803 10.2679 15.5525 10.2679 15.3488V10.0798C10.2679 9.8761 10.2997 9.74826 10.3595 9.63651C10.4192 9.52476 10.5069 9.43707 10.6187 9.3773C10.7304 9.31754 10.8583 9.28571 11.0619 9.28571H11.1881ZM11.125 5.51429C11.7878 5.51429 12.325 6.05154 12.325 6.71429C12.325 7.37703 11.7878 7.91429 11.125 7.91429C10.4623 7.91429 9.92501 7.37703 9.92501 6.71429C9.92501 6.05154 10.4623 5.51429 11.125 5.51429Z" fill="black" fill-opacity="0.4"/>
</svg>
