<svg width="19" height="18" viewBox="0 0 19 18" fill="none" xmlns="http://www.w3.org/2000/svg">
<path fill-rule="evenodd" clip-rule="evenodd" d="M10.0604 1.85067C9.9399 1.81152 9.81009 1.81152 9.68959 1.85067C9.67634 1.85498 9.62024 1.87468 9.47149 2.00096C9.3147 2.13406 9.12185 2.32593 8.81433 2.63344L3.44865 7.99914C3.07246 8.37533 2.99217 8.46379 2.93709 8.55368C2.87678 8.6521 2.83234 8.7594 2.80539 8.87164C2.78078 8.97414 2.775 9.09346 2.775 9.62548V14.6C2.775 15.0349 2.7757 15.3069 2.79244 15.5119C2.80833 15.7064 2.83407 15.76 2.84039 15.7724C2.89792 15.8853 2.98971 15.9771 3.1026 16.0346C3.11501 16.0409 3.16862 16.0667 3.36309 16.0825C3.56807 16.0993 3.84011 16.1 4.275 16.1H6.975V12.9C6.975 11.2984 8.27337 9.99999 9.875 9.99999C11.4766 9.99999 12.775 11.2984 12.775 12.9V16.1H15.475C15.9099 16.1 16.1819 16.0993 16.3869 16.0825C16.5814 16.0667 16.635 16.0409 16.6474 16.0346C16.7603 15.9771 16.8521 15.8853 16.9096 15.7724C16.9159 15.76 16.9417 15.7064 16.9575 15.5119C16.9743 15.3069 16.975 15.0349 16.975 14.6V9.62548C16.975 9.09346 16.9692 8.97414 16.9446 8.87164C16.9177 8.75939 16.8732 8.65209 16.8129 8.55368C16.7578 8.46379 16.6775 8.37533 16.3013 7.99914L10.9357 2.63344C10.6281 2.32593 10.4353 2.13406 10.2785 2.00096C10.1298 1.87468 10.0737 1.85498 10.0604 1.85067ZM9.13335 0.138773C9.61538 -0.0178459 10.1346 -0.0178461 10.6166 0.138774C10.9459 0.245751 11.2095 0.430194 11.4434 0.628752C11.6631 0.815214 11.9081 1.06024 12.1849 1.33709L17.5741 6.72635C17.593 6.74525 17.6118 6.76396 17.6303 6.78247C17.9213 7.07301 18.1669 7.3182 18.3477 7.61318C18.5067 7.87265 18.6238 8.15553 18.6949 8.45143C18.7756 8.78783 18.7754 9.13485 18.775 9.54604C18.775 9.57226 18.775 9.59873 18.775 9.62548V14.6333C18.775 15.0248 18.775 15.3713 18.7516 15.6585C18.7266 15.9643 18.6706 16.2811 18.5134 16.5896C18.2833 17.0412 17.9162 17.4083 17.4646 17.6384C17.1561 17.7956 16.8393 17.8516 16.5335 17.8766C16.2463 17.9 15.8998 17.9 15.5083 17.9H12.0637C11.4624 17.9 10.975 17.4126 10.975 16.8113V12.9C10.975 12.2925 10.4825 11.8 9.875 11.8C9.26748 11.8 8.775 12.2925 8.775 12.9V16.8113C8.775 17.4126 8.28758 17.9 7.68634 17.9H4.24166C3.85015 17.9 3.50366 17.9 3.21651 17.8766C2.91073 17.8516 2.59387 17.7956 2.28542 17.6384C1.83383 17.4083 1.46668 17.0412 1.23658 16.5896C1.07941 16.2811 1.0234 15.9643 0.998421 15.6585C0.97496 15.3713 0.974976 15.0248 0.974995 14.6333L0.974996 9.62548C0.974996 9.59874 0.974975 9.57227 0.974955 9.54606C0.974632 9.13486 0.97436 8.78784 1.05512 8.45143C1.12616 8.15553 1.24334 7.87265 1.40234 7.61318C1.5831 7.3182 1.82868 7.07301 2.11967 6.78248C2.13821 6.76396 2.15694 6.74526 2.17586 6.72635L7.56511 1.33708C7.84194 1.06023 8.08693 0.815211 8.30657 0.628752C8.54046 0.430195 8.80411 0.245751 9.13335 0.138773Z" fill="black" fill-opacity="0.4"/>
</svg>
