<svg width="21" height="16" viewBox="0 0 21 16" fill="none" xmlns="http://www.w3.org/2000/svg">
<path fill-rule="evenodd" clip-rule="evenodd" d="M0.725006 15C0.725006 14.5029 1.12795 14.1 1.62501 14.1H19.625C20.1221 14.1 20.525 14.5029 20.525 15C20.525 15.4971 20.1221 15.9 19.625 15.9H1.62501C1.12795 15.9 0.725006 15.4971 0.725006 15Z" fill="black" fill-opacity="0.4"/>
<path fill-rule="evenodd" clip-rule="evenodd" d="M15.125 1.9C14.6279 1.9 14.225 1.49706 14.225 1C14.225 0.502944 14.6279 0.1 15.125 0.1H19.625C20.1221 0.1 20.525 0.502944 20.525 1V5.5C20.525 5.99706 20.1221 6.4 19.625 6.4C19.1279 6.4 18.725 5.99706 18.725 5.5V3.17279L12.7614 9.1364C12.4099 9.48787 11.8401 9.48787 11.4886 9.1364L8.12501 5.77279L2.2614 11.6364C1.90993 11.9879 1.34008 11.9879 0.98861 11.6364C0.637138 11.2849 0.637138 10.7151 0.98861 10.3636L7.48861 3.8636C7.84008 3.51213 8.40993 3.51213 8.7614 3.8636L12.125 7.22721L17.4522 1.9H15.125Z" fill="black" fill-opacity="0.4"/>
</svg>
