<svg width="31" height="30" viewBox="0 0 31 30" fill="none" xmlns="http://www.w3.org/2000/svg">
<g id="&#208;&#152;&#208;&#186;&#208;&#190;&#208;&#189;&#208;&#186;&#208;&#184;">
<path id="Vector" d="M21.4375 4.45V2.5C21.4375 1.9875 21.0125 1.5625 20.5 1.5625C19.9875 1.5625 19.5625 1.9875 19.5625 2.5V4.375H11.4375V2.5C11.4375 1.9875 11.0125 1.5625 10.5 1.5625C9.9875 1.5625 9.5625 1.9875 9.5625 2.5V4.45C6.1875 4.7625 4.55 6.775 4.3 9.7625C4.275 10.125 4.575 10.425 4.925 10.425H26.075C26.4375 10.425 26.7375 10.1125 26.7 9.7625C26.45 6.775 24.8125 4.7625 21.4375 4.45ZM25.5 12.3H5.5C4.8125 12.3 4.25 12.8625 4.25 13.55V21.25C4.25 25 6.125 27.5 10.5 27.5H20.5C24.875 27.5 26.75 25 26.75 21.25V13.55C26.75 12.8625 26.1875 12.3 25.5 12.3ZM12.0125 22.7625C11.95 22.8125 11.8875 22.875 11.825 22.9125C11.75 22.9625 11.675 23 11.6 23.025C11.525 23.0625 11.45 23.0875 11.375 23.1C11.2875 23.1125 11.2125 23.125 11.125 23.125C10.9625 23.125 10.8 23.0875 10.65 23.025C10.4875 22.9625 10.3625 22.875 10.2375 22.7625C10.0125 22.525 9.875 22.2 9.875 21.875C9.875 21.55 10.0125 21.225 10.2375 20.9875C10.3625 20.875 10.4875 20.7875 10.65 20.725C10.875 20.625 11.125 20.6 11.375 20.65C11.45 20.6625 11.525 20.6875 11.6 20.725C11.675 20.75 11.75 20.7875 11.825 20.8375L12.0125 20.9875C12.2375 21.225 12.375 21.55 12.375 21.875C12.375 22.2 12.2375 22.525 12.0125 22.7625ZM12.0125 18.3875C11.775 18.6125 11.45 18.75 11.125 18.75C10.8 18.75 10.475 18.6125 10.2375 18.3875C10.0125 18.15 9.875 17.825 9.875 17.5C9.875 17.175 10.0125 16.85 10.2375 16.6125C10.5875 16.2625 11.1375 16.15 11.6 16.35C11.7625 16.4125 11.9 16.5 12.0125 16.6125C12.2375 16.85 12.375 17.175 12.375 17.5C12.375 17.825 12.2375 18.15 12.0125 18.3875ZM16.3875 22.7625C16.15 22.9875 15.825 23.125 15.5 23.125C15.175 23.125 14.85 22.9875 14.6125 22.7625C14.3875 22.525 14.25 22.2 14.25 21.875C14.25 21.55 14.3875 21.225 14.6125 20.9875C15.075 20.525 15.925 20.525 16.3875 20.9875C16.6125 21.225 16.75 21.55 16.75 21.875C16.75 22.2 16.6125 22.525 16.3875 22.7625ZM16.3875 18.3875L16.2 18.5375C16.125 18.5875 16.05 18.625 15.975 18.65C15.9 18.6875 15.825 18.7125 15.75 18.725C15.6625 18.7375 15.5875 18.75 15.5 18.75C15.175 18.75 14.85 18.6125 14.6125 18.3875C14.3875 18.15 14.25 17.825 14.25 17.5C14.25 17.175 14.3875 16.85 14.6125 16.6125C14.725 16.5 14.8625 16.4125 15.025 16.35C15.4875 16.15 16.0375 16.2625 16.3875 16.6125C16.6125 16.85 16.75 17.175 16.75 17.5C16.75 17.825 16.6125 18.15 16.3875 18.3875ZM20.7625 22.7625C20.525 22.9875 20.2 23.125 19.875 23.125C19.55 23.125 19.225 22.9875 18.9875 22.7625C18.7625 22.525 18.625 22.2 18.625 21.875C18.625 21.55 18.7625 21.225 18.9875 20.9875C19.45 20.525 20.3 20.525 20.7625 20.9875C20.9875 21.225 21.125 21.55 21.125 21.875C21.125 22.2 20.9875 22.525 20.7625 22.7625ZM20.7625 18.3875L20.575 18.5375C20.5 18.5875 20.425 18.625 20.35 18.65C20.275 18.6875 20.2 18.7125 20.125 18.725C20.0375 18.7375 19.95 18.75 19.875 18.75C19.55 18.75 19.225 18.6125 18.9875 18.3875C18.7625 18.15 18.625 17.825 18.625 17.5C18.625 17.175 18.7625 16.85 18.9875 16.6125C19.1125 16.5 19.2375 16.4125 19.4 16.35C19.625 16.25 19.875 16.225 20.125 16.275C20.2 16.2875 20.275 16.3125 20.35 16.35C20.425 16.375 20.5 16.4125 20.575 16.4625L20.7625 16.6125C20.9875 16.85 21.125 17.175 21.125 17.5C21.125 17.825 20.9875 18.15 20.7625 18.3875Z" fill="#FAFAFA"/>
</g>
</svg>
