<svg width="65" height="64" viewBox="0 0 65 64" fill="none" xmlns="http://www.w3.org/2000/svg">
<g clip-path="url(#clip0_1432_9006)">
<path d="M15.1667 5.33301C13.8218 5.33301 12.6874 6.33445 12.5206 7.66893L8.52059 39.669C8.50688 39.7786 8.5 39.889 8.5 39.9997V55.9997C8.5 57.4725 9.69392 58.6663 11.1667 58.6663H53.8333C55.3061 58.6663 56.5 57.4725 56.5 55.9997V39.9997C56.5 39.889 56.4931 39.7786 56.4795 39.669L52.4795 7.66893C52.3125 6.33445 51.1781 5.33301 49.8333 5.33301H15.1667ZM13.8333 42.6663H51.1667V53.333H13.8333V42.6663ZM40.5 45.333H45.8333V50.6663H40.5V45.333ZM35.1667 45.333H29.8333V50.6663H35.1667V45.333Z" fill="white"/>
<line x1="1.02733" y1="-9.06066" x2="65.0273" y2="54.9393" stroke="#1E1C1A" stroke-width="3"/>
<line x1="5.82733" y1="3.20594" x2="61.294" y2="58.6726" stroke="white" stroke-width="3"/>
</g>
<defs>
<clipPath id="clip0_1432_9006">
<rect width="64" height="64" fill="white" transform="translate(0.5)"/>
</clipPath>
</defs>
</svg>
