<svg width="24" height="24" viewBox="0 0 24 24" fill="none" xmlns="http://www.w3.org/2000/svg">
<g id="Book Icon">
<path id="Vector" d="M8.44445 13.8C8.19259 13.8 7.98133 13.7136 7.81067 13.5408C7.64 13.368 7.55496 13.1544 7.55556 12.9C7.55556 12.645 7.64089 12.4311 7.81156 12.2583C7.98222 12.0855 8.19319 11.9994 8.44445 12C8.6963 12 8.90756 12.0864 9.07822 12.2592C9.24889 12.432 9.33393 12.6456 9.33333 12.9C9.33333 13.155 9.248 13.3689 9.07733 13.5417C8.90667 13.7145 8.6957 13.8006 8.44445 13.8ZM12 13.8C11.7481 13.8 11.5369 13.7136 11.3662 13.5408C11.1956 13.368 11.1105 13.1544 11.1111 12.9C11.1111 12.645 11.1964 12.4311 11.3671 12.2583C11.5378 12.0855 11.7487 11.9994 12 12C12.2519 12 12.4631 12.0864 12.6338 12.2592C12.8044 12.432 12.8895 12.6456 12.8889 12.9C12.8889 13.155 12.8036 13.3689 12.6329 13.5417C12.4622 13.7145 12.2513 13.8006 12 13.8ZM15.5556 13.8C15.3037 13.8 15.0924 13.7136 14.9218 13.5408C14.7511 13.368 14.6661 13.1544 14.6667 12.9C14.6667 12.645 14.752 12.4311 14.9227 12.2583C15.0933 12.0855 15.3043 11.9994 15.5556 12C15.8074 12 16.0187 12.0864 16.1893 12.2592C16.36 12.432 16.445 12.6456 16.4444 12.9C16.4444 13.155 16.3591 13.3689 16.1884 13.5417C16.0178 13.7145 15.8068 13.8006 15.5556 13.8ZM5.77778 21C5.28889 21 4.87022 20.8236 4.52178 20.4708C4.17333 20.118 3.99941 19.6944 4 19.2V6.6C4 6.105 4.17422 5.6811 4.52267 5.3283C4.87111 4.9755 5.28948 4.7994 5.77778 4.8H6.66667V3H8.44445V4.8H15.5556V3H17.3333V4.8H18.2222C18.7111 4.8 19.1298 4.9764 19.4782 5.3292C19.8267 5.682 20.0006 6.1056 20 6.6V19.2C20 19.695 19.8258 20.1189 19.4773 20.4717C19.1289 20.8245 18.7105 21.0006 18.2222 21H5.77778ZM5.77778 19.2H18.2222V10.2H5.77778V19.2Z" fill="black" fill-opacity="0.4"/>
</g>
</svg>
