<svg width="20" height="20" viewBox="0 0 20 20" fill="none" xmlns="http://www.w3.org/2000/svg">
<g id="mingcute:exit-line" clip-path="url(#clip0_261_3933)">
<g id="Group">
<path id="Vector" d="M9.99992 2.5C10.2123 2.50024 10.4166 2.58157 10.5711 2.72737C10.7255 2.87318 10.8184 3.07246 10.8309 3.2845C10.8433 3.49653 10.7744 3.70532 10.638 3.86819C10.5017 4.03107 10.3083 4.13575 10.0974 4.16083L9.99992 4.16667H5.83325C5.62914 4.16669 5.43214 4.24163 5.27961 4.37726C5.12708 4.5129 5.02963 4.69979 5.00575 4.9025L4.99992 5V15C4.99995 15.2041 5.07488 15.4011 5.21051 15.5536C5.34615 15.7062 5.53304 15.8036 5.73575 15.8275L5.83325 15.8333H9.58325C9.79565 15.8336 9.99995 15.9149 10.1544 16.0607C10.3088 16.2065 10.4018 16.4058 10.4142 16.6178C10.4267 16.8299 10.3577 17.0386 10.2214 17.2015C10.085 17.3644 9.89166 17.4691 9.68075 17.4942L9.58325 17.5H5.83325C5.19558 17.5 4.58199 17.2564 4.11803 16.8189C3.65408 16.3815 3.37483 15.7832 3.33742 15.1467L3.33325 15V5C3.33322 4.36232 3.57686 3.74874 4.01432 3.28478C4.45179 2.82083 5.05001 2.54158 5.68659 2.50417L5.83325 2.5H9.99992ZM14.7558 7.05333L17.1124 9.41083C17.2686 9.56711 17.3564 9.77903 17.3564 10C17.3564 10.221 17.2686 10.4329 17.1124 10.5892L14.7558 12.9467C14.5994 13.1029 14.3873 13.1907 14.1663 13.1906C13.9452 13.1905 13.7333 13.1026 13.577 12.9462C13.4207 12.7899 13.333 12.5778 13.3331 12.3568C13.3332 12.1357 13.4211 11.9238 13.5774 11.7675L14.5116 10.8333H9.99992C9.7789 10.8333 9.56694 10.7455 9.41066 10.5893C9.25438 10.433 9.16658 10.221 9.16658 10C9.16658 9.77899 9.25438 9.56702 9.41066 9.41074C9.56694 9.25446 9.7789 9.16667 9.99992 9.16667H14.5116L13.5774 8.2325C13.4211 8.07624 13.3332 7.86427 13.3331 7.64321C13.333 7.42215 13.4207 7.21012 13.577 7.05375C13.7333 6.89738 13.9452 6.80949 14.1663 6.80941C14.3873 6.80934 14.5994 6.89708 14.7558 7.05333Z" fill="#C0430E"/>
</g>
</g>
<defs>
<clipPath id="clip0_261_3933">
<rect width="20" height="20" fill="white"/>
</clipPath>
</defs>
</svg>
