<svg width="28" height="28" viewBox="0 0 28 28" fill="none" xmlns="http://www.w3.org/2000/svg">
    <g id="fluent:desk-24-regular">
        <path id="Vector"
            d="M5.475 5.20001C4.81859 5.20001 4.18906 5.46077 3.72491 5.92492C3.26076 6.38908 3 7.0186 3 7.67501V19.775C3 20.1723 3.07824 20.5656 3.23026 20.9326C3.38228 21.2996 3.6051 21.6331 3.886 21.914C4.1669 22.1949 4.50037 22.4177 4.86738 22.5697C5.23439 22.7218 5.62775 22.8 6.025 22.8H10.975C11.3722 22.8 11.7656 22.7218 12.1326 22.5697C12.4996 22.4177 12.8331 22.1949 13.114 21.914C13.3949 21.6331 13.6177 21.2996 13.7697 20.9326C13.9218 20.5656 14 20.1723 14 19.775V11.25H23.35V21.975C23.35 22.1938 23.4369 22.4037 23.5916 22.5584C23.7464 22.7131 23.9562 22.8 24.175 22.8C24.3938 22.8 24.6036 22.7131 24.7584 22.5584C24.9131 22.4037 25 22.1938 25 21.975V7.67501C25 7.0186 24.7392 6.38908 24.2751 5.92492C23.8109 5.46077 23.1814 5.20001 22.525 5.20001H5.475ZM4.65 11.25H12.35V19.775C12.35 20.534 11.734 21.15 10.975 21.15H6.025C5.266 21.15 4.65 20.534 4.65 19.775V11.25ZM4.65 9.60001V7.67501C4.65 7.45621 4.73692 7.24637 4.89164 7.09165C5.04635 6.93693 5.2562 6.85001 5.475 6.85001H22.525C22.7438 6.85001 22.9536 6.93693 23.1084 7.09165C23.2631 7.24637 23.35 7.45621 23.35 7.67501V9.60001H4.65ZM7.125 13.45C6.9062 13.45 6.69635 13.5369 6.54164 13.6916C6.38692 13.8464 6.3 14.0562 6.3 14.275C6.3 14.4938 6.38692 14.7037 6.54164 14.8584C6.69635 15.0131 6.9062 15.1 7.125 15.1H9.875C10.0938 15.1 10.3036 15.0131 10.4584 14.8584C10.6131 14.7037 10.7 14.4938 10.7 14.275C10.7 14.0562 10.6131 13.8464 10.4584 13.6916C10.3036 13.5369 10.0938 13.45 9.875 13.45H7.125Z"
            fill="#6F01FF" />
    </g>
</svg>
