<svg width="24" height="24" viewBox="0 0 24 24" fill="none" xmlns="http://www.w3.org/2000/svg">
<g id="icon-park-outline:telegram">
<path id="Vector" d="M20.7099 3.6545C20.7099 3.6545 22.6524 2.897 22.4899 4.7365C22.4364 5.494 21.9509 8.1455 21.5729 11.013L20.2779 19.508C20.2779 19.508 20.1699 20.7525 19.1984 20.969C18.2274 21.185 16.7704 20.2115 16.5004 19.995C16.2844 19.8325 12.4534 17.3975 11.1044 16.2075C10.7264 15.8825 10.2944 15.2335 11.1584 14.476L16.8239 9.065C17.4714 8.416 18.1189 6.901 15.4209 8.7405L7.86591 13.8805C7.86591 13.8805 7.00241 14.422 5.38391 13.935L1.87591 12.8525C1.87591 12.8525 0.580914 12.041 2.79341 11.2295C8.18991 8.6865 14.8274 6.0895 20.7089 3.6545H20.7099Z" fill="black" fill-opacity="0.4"/>
</g>
</svg>
