<svg width="20" height="20" viewBox="0 0 20 20" fill="none" xmlns="http://www.w3.org/2000/svg">
<g id="material-symbols:map">
<path id="Vector" d="M12.5 17.5L7.5 15.75L3.625 17.25C3.34722 17.3611 3.09028 17.3297 2.85417 17.1558C2.61806 16.9819 2.5 16.7494 2.5 16.4583V4.79167C2.5 4.61111 2.55222 4.45139 2.65667 4.3125C2.76111 4.17361 2.90333 4.06944 3.08333 4L7.5 2.5L12.5 4.25L16.375 2.75C16.6528 2.63889 16.9097 2.67028 17.1458 2.84417C17.3819 3.01806 17.5 3.25056 17.5 3.54167V15.2083C17.5 15.3889 17.4478 15.5486 17.3433 15.6875C17.2389 15.8264 17.0967 15.9306 16.9167 16L12.5 17.5ZM11.6667 15.4583V5.70833L8.33333 4.54167V14.2917L11.6667 15.4583Z" fill="#5800CB"/>
</g>
</svg>
