<svg width="16" height="16" viewBox="0 0 16 16" fill="none" xmlns="http://www.w3.org/2000/svg">
<path d="M8.00016 7.66666C7.55814 7.66666 7.13421 7.49107 6.82165 7.17851C6.50909 6.86595 6.3335 6.44202 6.3335 5.99999C6.3335 5.55797 6.50909 5.13404 6.82165 4.82148C7.13421 4.50892 7.55814 4.33333 8.00016 4.33333C8.44219 4.33333 8.86611 4.50892 9.17867 4.82148C9.49123 5.13404 9.66683 5.55797 9.66683 5.99999C9.66683 6.21886 9.62372 6.43559 9.53996 6.6378C9.4562 6.84001 9.33344 7.02374 9.17867 7.17851C9.02391 7.33327 8.84018 7.45604 8.63797 7.53979C8.43576 7.62355 8.21903 7.66666 8.00016 7.66666ZM8.00016 1.33333C6.76249 1.33333 5.5755 1.82499 4.70033 2.70016C3.82516 3.57533 3.3335 4.76232 3.3335 5.99999C3.3335 9.49999 8.00016 14.6667 8.00016 14.6667C8.00016 14.6667 12.6668 9.49999 12.6668 5.99999C12.6668 4.76232 12.1752 3.57533 11.3 2.70016C10.4248 1.82499 9.23784 1.33333 8.00016 1.33333Z" fill="#5800CB"/>
</svg>
