<svg width="54" height="54" viewBox="0 0 54 54" fill="none" xmlns="http://www.w3.org/2000/svg">
<g id="Job Icon">
<path id="Vector" d="M27 27C24.58 27 22.5083 26.1383 20.785 24.415C19.0616 22.6917 18.2 20.62 18.2 18.2C18.2 15.78 19.0616 13.7083 20.785 11.985C22.5083 10.2617 24.58 9.40001 27 9.40001C29.42 9.40001 31.4916 10.2617 33.215 11.985C34.9383 13.7083 35.8 15.78 35.8 18.2C35.8 20.62 34.9383 22.6917 33.215 24.415C31.4916 26.1383 29.42 27 27 27ZM9.39996 44.6V38.44C9.39996 37.1933 9.72116 36.0471 10.3636 35.0014C11.006 33.9557 11.8581 33.1585 12.92 32.61C15.1933 31.4733 17.5033 30.6205 19.85 30.0514C22.1966 29.4823 24.58 29.1985 27 29.2C29.42 29.2 31.8033 29.4845 34.15 30.0536C36.4966 30.6227 38.8066 31.4748 41.08 32.61C42.1433 33.16 42.9962 33.9579 43.6386 35.0036C44.281 36.0493 44.6014 37.1948 44.6 38.44V44.6H9.39996ZM13.8 40.2H40.2V38.44C40.2 38.0367 40.0988 37.67 39.8964 37.34C39.694 37.01 39.4285 36.7533 39.1 36.57C37.12 35.58 35.1216 34.8379 33.105 34.3436C31.0883 33.8493 29.0533 33.6015 27 33.6C24.9466 33.6 22.9116 33.8479 20.895 34.3436C18.8783 34.8393 16.88 35.5815 14.9 36.57C14.57 36.7533 14.3038 37.01 14.1014 37.34C13.899 37.67 13.7985 38.0367 13.8 38.44V40.2ZM27 22.6C28.21 22.6 29.2462 22.1688 30.1086 21.3064C30.971 20.444 31.4014 19.4085 31.4 18.2C31.4 16.99 30.9688 15.9538 30.1064 15.0914C29.244 14.229 28.2085 13.7985 27 13.8C25.79 13.8 24.7538 14.2312 23.8914 15.0936C23.029 15.956 22.5985 16.9915 22.6 18.2C22.6 19.41 23.0312 20.4462 23.8936 21.3086C24.756 22.171 25.7914 22.6015 27 22.6Z" fill="#6F01FF"/>
</g>
</svg>
