<svg width="16" height="16" viewBox="0 0 16 16" fill="none" xmlns="http://www.w3.org/2000/svg">
<g id="material-symbols:mail">
<path id="Vector" d="M2.66659 13.3333C2.29992 13.3333 1.98592 13.2027 1.72459 12.9413C1.46325 12.68 1.33281 12.3662 1.33325 12V4.00001C1.33325 3.63334 1.46392 3.31934 1.72525 3.05801C1.98659 2.79667 2.30036 2.66623 2.66659 2.66667H13.3333C13.6999 2.66667 14.0139 2.79734 14.2753 3.05867C14.5366 3.32001 14.667 3.63378 14.6666 4.00001V12C14.6666 12.3667 14.5359 12.6807 14.2746 12.942C14.0133 13.2033 13.6995 13.3338 13.3333 13.3333H2.66659ZM7.99992 8.66667L13.3333 5.33334V4.00001L7.99992 7.33334L2.66659 4.00001V5.33334L7.99992 8.66667Z" fill="#5800CB"/>
</g>
</svg>
