<svg width="893" height="1104" viewBox="0 0 893 1104" fill="none" xmlns="http://www.w3.org/2000/svg">
<circle cx="677" cy="899" r="25" fill="#FDE4FF"/>
<path d="M664.5 895.242C664.5 891.104 667.846 887.75 672.001 887.75H681.999C686.142 887.75 689.5 891.118 689.5 895.242V909.25C689.5 909.802 689.052 910.25 688.5 910.25H672.001C667.858 910.25 664.5 906.882 664.5 902.758V895.242ZM680.75 897.75C680.06 897.75 679.5 898.31 679.5 899C679.5 899.69 680.06 900.25 680.75 900.25C681.44 900.25 682 899.69 682 899C682 898.31 681.44 897.75 680.75 897.75ZM673.25 897.75C672.56 897.75 672 898.31 672 899C672 899.69 672.56 900.25 673.25 900.25C673.94 900.25 674.5 899.69 674.5 899C674.5 898.31 673.94 897.75 673.25 897.75Z" fill="#DB00FF"/>
<path d="M5.5 5H433.5V703.847M5.5 5V894H153.5V940H288V1094H461.5V703.847H433.5V5H5.5Z" stroke="black" stroke-width="10"/>
<path d="M15 5H433.5V692.5" stroke="#55B6DF" stroke-width="10"/>
<rect x="18" y="572" width="56" height="111" rx="20" fill="#FF894A" fill-opacity="0.4"/>
<path d="M47.9176 619.955V634.5H45.7159V622.156H45.6307L42.1506 624.429V622.327L45.7798 619.955H47.9176Z" fill="black"/>
<rect x="366" y="595" width="56" height="109" rx="20" fill="#FF894A" fill-opacity="0.4"/>
<path d="M389.918 641.955V656.5H387.716V644.156H387.631L384.151 646.429V644.327L387.78 641.955H389.918ZM393.852 656.5V654.909L398.774 649.81C399.3 649.256 399.733 648.77 400.074 648.354C400.42 647.932 400.678 647.532 400.848 647.153C401.018 646.775 401.104 646.372 401.104 645.946C401.104 645.463 400.99 645.046 400.763 644.696C400.536 644.341 400.225 644.069 399.832 643.879C399.439 643.685 398.997 643.588 398.504 643.588C397.983 643.588 397.529 643.695 397.141 643.908C396.752 644.121 396.454 644.421 396.246 644.81C396.037 645.198 395.933 645.652 395.933 646.173H393.838C393.838 645.288 394.042 644.514 394.449 643.851C394.856 643.188 395.415 642.674 396.125 642.31C396.835 641.94 397.643 641.756 398.547 641.756C399.461 641.756 400.266 641.938 400.962 642.303C401.662 642.662 402.209 643.155 402.602 643.78C402.995 644.4 403.192 645.101 403.192 645.882C403.192 646.422 403.09 646.95 402.886 647.466C402.688 647.982 402.339 648.557 401.842 649.192C401.345 649.821 400.654 650.586 399.768 651.486L396.878 654.511V654.618H403.426V656.5H393.852Z" fill="black"/>
<rect x="395" y="712" width="56" height="111" rx="20" fill="#FF894A" fill-opacity="0.4"/>
<path d="M418.418 759.955V774.5H416.216V762.156H416.131L412.651 764.429V762.327L416.28 759.955H418.418ZM427.416 774.699C426.441 774.699 425.57 774.531 424.803 774.195C424.04 773.858 423.437 773.392 422.991 772.795C422.551 772.194 422.314 771.498 422.281 770.707H424.511C424.54 771.138 424.684 771.512 424.945 771.83C425.21 772.142 425.555 772.384 425.982 772.554C426.408 772.724 426.881 772.81 427.402 772.81C427.975 772.81 428.482 772.71 428.922 772.511C429.367 772.312 429.715 772.036 429.966 771.68C430.217 771.321 430.342 770.906 430.342 770.438C430.342 769.95 430.217 769.521 429.966 769.152C429.72 768.778 429.357 768.484 428.879 768.271C428.406 768.058 427.833 767.952 427.161 767.952H425.932V766.162H427.161C427.7 766.162 428.174 766.065 428.581 765.871C428.993 765.677 429.315 765.407 429.547 765.061C429.779 764.711 429.895 764.301 429.895 763.832C429.895 763.383 429.793 762.992 429.589 762.661C429.391 762.324 429.107 762.062 428.737 761.872C428.373 761.683 427.942 761.588 427.445 761.588C426.971 761.588 426.528 761.676 426.116 761.851C425.709 762.021 425.378 762.268 425.122 762.589C424.866 762.907 424.729 763.288 424.71 763.733H422.587C422.61 762.947 422.842 762.256 423.283 761.659C423.728 761.062 424.315 760.596 425.044 760.26C425.773 759.924 426.583 759.756 427.473 759.756C428.406 759.756 429.211 759.938 429.888 760.303C430.57 760.662 431.095 761.143 431.464 761.744C431.839 762.346 432.023 763.004 432.018 763.719C432.023 764.533 431.796 765.224 431.337 765.793C430.882 766.361 430.276 766.742 429.518 766.936V767.05C430.484 767.196 431.232 767.58 431.763 768.2C432.298 768.821 432.563 769.59 432.558 770.509C432.563 771.309 432.34 772.026 431.891 772.661C431.446 773.295 430.837 773.795 430.065 774.159C429.294 774.519 428.411 774.699 427.416 774.699Z" fill="black"/>
<rect x="18" y="453" width="56" height="110" rx="20" fill="#FF894A" fill-opacity="0.4"/>
<path d="M40.8991 515V513.409L45.821 508.31C46.3466 507.756 46.7798 507.27 47.1207 506.854C47.4664 506.432 47.7244 506.032 47.8949 505.653C48.0653 505.275 48.1506 504.872 48.1506 504.446C48.1506 503.963 48.0369 503.546 47.8097 503.196C47.5824 502.841 47.2723 502.569 46.8793 502.379C46.4863 502.185 46.0436 502.088 45.5511 502.088C45.0303 502.088 44.5758 502.195 44.1875 502.408C43.7992 502.621 43.5009 502.921 43.2926 503.31C43.0843 503.698 42.9801 504.152 42.9801 504.673H40.8849C40.8849 503.788 41.0885 503.014 41.4957 502.351C41.9029 501.688 42.4616 501.174 43.1719 500.81C43.8821 500.44 44.6894 500.256 45.5938 500.256C46.5076 500.256 47.3125 500.438 48.0085 500.803C48.7093 501.162 49.2562 501.655 49.6491 502.28C50.0421 502.9 50.2386 503.601 50.2386 504.382C50.2386 504.922 50.1368 505.45 49.9332 505.966C49.7344 506.482 49.3864 507.057 48.8892 507.692C48.392 508.321 47.7008 509.086 46.8153 509.986L43.9247 513.011V513.118H50.473V515H40.8991Z" fill="black"/>
<rect x="366" y="480" width="56" height="108" rx="20" fill="#FF894A" fill-opacity="0.4"/>
<path d="M391.418 526.455V541H389.216V528.656H389.131L385.651 530.929V528.827L389.28 526.455H391.418ZM400.871 526.455V541H398.669V528.656H398.584L395.104 530.929V528.827L398.733 526.455H400.871Z" fill="black"/>
<rect x="18" y="333" width="56" height="110" rx="20" fill="#FF894A" fill-opacity="0.4"/>
<path d="M45.9631 395.199C44.9877 395.199 44.1165 395.031 43.3494 394.695C42.5871 394.358 41.9834 393.892 41.5384 393.295C41.098 392.694 40.8613 391.998 40.8281 391.207H43.0582C43.0866 391.638 43.2311 392.012 43.4915 392.33C43.7566 392.642 44.1023 392.884 44.5284 393.054C44.9545 393.224 45.428 393.31 45.9489 393.31C46.5218 393.31 47.0284 393.21 47.4688 393.011C47.9138 392.812 48.2618 392.536 48.5128 392.18C48.7637 391.821 48.8892 391.406 48.8892 390.938C48.8892 390.45 48.7637 390.021 48.5128 389.652C48.2666 389.278 47.9044 388.984 47.4261 388.771C46.9527 388.558 46.3797 388.452 45.7074 388.452H44.4787V386.662H45.7074C46.2472 386.662 46.7206 386.565 47.1278 386.371C47.5398 386.177 47.8617 385.907 48.0938 385.561C48.3258 385.211 48.4418 384.801 48.4418 384.332C48.4418 383.883 48.34 383.492 48.1364 383.161C47.9375 382.824 47.6534 382.562 47.2841 382.372C46.9195 382.183 46.4886 382.088 45.9915 382.088C45.518 382.088 45.0753 382.176 44.6634 382.351C44.2562 382.521 43.9247 382.768 43.669 383.089C43.4134 383.407 43.276 383.788 43.2571 384.233H41.1335C41.1572 383.447 41.3892 382.756 41.8295 382.159C42.2746 381.562 42.8617 381.096 43.5909 380.76C44.3201 380.424 45.1297 380.256 46.0199 380.256C46.9527 380.256 47.7576 380.438 48.4347 380.803C49.1165 381.162 49.642 381.643 50.0114 382.244C50.3854 382.846 50.5701 383.504 50.5653 384.219C50.5701 385.033 50.3428 385.724 49.8835 386.293C49.429 386.861 48.8229 387.242 48.0653 387.436V387.55C49.0313 387.696 49.7794 388.08 50.3097 388.7C50.8447 389.321 51.1098 390.09 51.1051 391.009C51.1098 391.809 50.8873 392.526 50.4375 393.161C49.9924 393.795 49.384 394.295 48.6122 394.659C47.8404 395.019 46.9574 395.199 45.9631 395.199Z" fill="black"/>
<rect x="366" y="365" width="56" height="108" rx="20" fill="#FF894A" fill-opacity="0.4"/>
<path d="M389.418 411.455V426H387.216V413.656H387.131L383.651 415.929V413.827L387.28 411.455H389.418ZM398.416 426.241C397.294 426.237 396.335 425.941 395.54 425.354C394.744 424.767 394.136 423.912 393.714 422.79C393.293 421.668 393.082 420.316 393.082 418.734C393.082 417.158 393.293 415.811 393.714 414.693C394.141 413.576 394.751 412.723 395.547 412.136C396.347 411.549 397.304 411.256 398.416 411.256C399.529 411.256 400.483 411.552 401.278 412.143C402.074 412.731 402.682 413.583 403.104 414.7C403.53 415.813 403.743 417.158 403.743 418.734C403.743 420.321 403.532 421.675 403.111 422.797C402.689 423.914 402.081 424.769 401.286 425.361C400.49 425.948 399.534 426.241 398.416 426.241ZM398.416 424.345C399.401 424.345 400.17 423.865 400.724 422.903C401.283 421.942 401.562 420.553 401.562 418.734C401.562 417.527 401.435 416.507 401.179 415.673C400.928 414.835 400.566 414.201 400.092 413.77C399.624 413.334 399.065 413.116 398.416 413.116C397.436 413.116 396.667 413.599 396.108 414.565C395.549 415.531 395.268 416.921 395.263 418.734C395.263 419.946 395.388 420.972 395.639 421.81C395.895 422.643 396.257 423.275 396.726 423.706C397.195 424.132 397.758 424.345 398.416 424.345Z" fill="black"/>
<rect x="18" y="213" width="56" height="111" rx="20" fill="#FF894A" fill-opacity="0.4"/>
<path d="M40.0938 272.659V270.884L46.3793 260.955H47.7784V263.568H46.8906L42.3949 270.685V270.798H51.0099V272.659H40.0938ZM46.9901 275.5V272.119L47.0043 271.31V260.955H49.0852V275.5H46.9901Z" fill="black"/>
<rect x="94" y="18" width="56" height="111" rx="20" fill="#FF894A" fill-opacity="0.4"/>
<path d="M121.7 80.6989C120.81 80.6989 120.01 80.5284 119.3 80.1875C118.594 79.8419 118.031 79.3684 117.609 78.767C117.188 78.1657 116.963 77.4792 116.935 76.7074H119.065C119.117 77.3324 119.394 77.8461 119.896 78.2486C120.398 78.651 121 78.8523 121.7 78.8523C122.259 78.8523 122.754 78.7244 123.185 78.4688C123.62 78.2083 123.961 77.8509 124.207 77.3963C124.458 76.9418 124.584 76.4233 124.584 75.8409C124.584 75.2491 124.456 74.7211 124.2 74.2571C123.945 73.7931 123.592 73.4285 123.142 73.1634C122.697 72.8982 122.186 72.7633 121.608 72.7585C121.168 72.7585 120.725 72.8343 120.28 72.9858C119.835 73.1373 119.475 73.3362 119.2 73.5824L117.19 73.2841L118.007 65.9545H126.004V67.8366H119.832L119.371 71.9062H119.456C119.74 71.6316 120.116 71.402 120.585 71.2173C121.059 71.0327 121.565 70.9403 122.105 70.9403C122.991 70.9403 123.779 71.151 124.47 71.5724C125.166 71.9938 125.713 72.5691 126.111 73.2983C126.513 74.0227 126.712 74.8561 126.707 75.7983C126.712 76.7405 126.499 77.581 126.068 78.3196C125.642 79.0582 125.05 79.6406 124.293 80.0668C123.54 80.4882 122.676 80.6989 121.7 80.6989Z" fill="black"/>
<rect x="198" y="74" width="56" height="111" rx="20" transform="rotate(-90 198 74)" fill="#FF894A" fill-opacity="0.4"/>
<path d="M260.699 46.0227C260.689 46.6714 260.571 47.3106 260.344 47.9403C260.116 48.5653 259.738 49.1335 259.207 49.6449C258.677 50.1562 257.964 50.5658 257.07 50.8736C256.175 51.1766 255.057 51.3281 253.717 51.3281C252.448 51.3281 251.321 51.2027 250.337 50.9517C249.352 50.696 248.521 50.3291 247.844 49.8509C247.162 49.3726 246.643 48.795 246.288 48.1179C245.933 47.4408 245.756 46.6809 245.756 45.8381C245.756 44.9716 245.926 44.2022 246.267 43.5298C246.608 42.8575 247.079 42.313 247.68 41.8963C248.282 41.4749 248.966 41.2074 249.733 41.0938V43.2599C249.127 43.4067 248.632 43.6979 248.249 44.1335C247.865 44.5691 247.673 45.1373 247.673 45.8381C247.673 46.9034 248.137 47.7344 249.065 48.331C249.993 48.9228 251.284 49.2211 252.936 49.2259V49.1193C252.524 48.8684 252.174 48.5606 251.885 48.196C251.591 47.8267 251.366 47.4148 251.21 46.9602C251.049 46.5009 250.969 46.018 250.969 45.5114C250.969 44.6686 251.175 43.9062 251.587 43.2244C251.994 42.5379 252.557 41.991 253.277 41.5838C253.997 41.1766 254.821 40.973 255.749 40.973C256.677 40.973 257.517 41.1837 258.27 41.6051C259.023 42.0218 259.619 42.6089 260.06 43.3665C260.495 44.1241 260.708 45.0095 260.699 46.0227ZM258.852 46.0298C258.852 45.4711 258.715 44.9716 258.44 44.5312C258.166 44.0909 257.796 43.7429 257.332 43.4872C256.868 43.2315 256.35 43.1037 255.777 43.1037C255.218 43.1037 254.709 43.2292 254.25 43.4801C253.791 43.7263 253.426 44.0672 253.156 44.5028C252.886 44.9337 252.751 45.4261 252.751 45.9801C252.751 46.4015 252.832 46.7921 252.993 47.152C253.154 47.5071 253.376 47.8196 253.661 48.0895C253.945 48.3594 254.271 48.5724 254.641 48.7287C255.005 48.8802 255.391 48.956 255.798 48.956C256.343 48.956 256.847 48.8305 257.311 48.5795C257.775 48.3239 258.149 47.9759 258.433 47.5355C258.713 47.0904 258.852 46.5885 258.852 46.0298Z" fill="black"/>
<rect x="125" y="249.613" width="56" height="111" rx="20" transform="rotate(-49.5475 125 249.613)" fill="#FF894A" fill-opacity="0.4"/>
<path d="M177.009 262.527L188.077 271.964L186.649 273.639L177.256 265.631L177.2 265.695L176.672 269.818L175.072 268.454L175.622 264.153L177.009 262.527ZM193.896 265.446C193.319 266.123 192.67 266.621 191.95 266.941C191.229 267.253 190.503 267.375 189.772 267.305C189.041 267.236 188.373 266.961 187.767 266.482L189.149 264.861C189.659 265.227 190.229 265.349 190.861 265.229C191.493 265.108 192.037 264.781 192.491 264.247C192.854 263.822 193.077 263.363 193.162 262.869C193.247 262.369 193.196 261.877 193.01 261.395C192.827 260.909 192.514 260.477 192.071 260.099C191.62 259.715 191.136 259.47 190.617 259.364C190.098 259.257 189.591 259.289 189.098 259.459C188.607 259.626 188.173 259.928 187.794 260.364C187.509 260.699 187.279 261.085 187.105 261.522C186.932 261.959 186.85 262.362 186.859 262.731L185.328 264.067L180.281 258.69L185.469 252.604L186.901 253.825L182.897 258.522L185.694 261.513L185.749 261.449C185.725 261.054 185.794 260.619 185.958 260.142C186.125 259.662 186.383 259.217 186.733 258.806C187.308 258.132 187.98 257.669 188.749 257.416C189.521 257.16 190.314 257.117 191.127 257.288C191.939 257.452 192.702 257.841 193.416 258.456C194.136 259.064 194.637 259.771 194.92 260.578C195.205 261.382 195.265 262.21 195.097 263.063C194.929 263.909 194.529 264.703 193.896 265.446Z" fill="black"/>
<rect x="125" y="366.613" width="56" height="111" rx="20" transform="rotate(-49.5475 125 366.613)" fill="#FF894A" fill-opacity="0.4"/>
<path d="M176.685 379.907L187.753 389.345L186.324 391.02L176.931 383.011L176.876 383.076L176.348 387.199L174.748 385.835L175.298 381.534L176.685 379.907ZM187.946 384.74L186.595 383.588L183.117 372.363L184.025 371.298L186.014 372.994L185.438 373.669L187.936 381.708L188.023 381.781L193.612 375.226L195.028 376.433L187.946 384.74ZM194.582 381.335L192.01 379.142L191.403 378.606L183.523 371.887L184.873 370.303L195.941 379.741L194.582 381.335Z" fill="black"/>
<rect x="366" y="250" width="56" height="109" rx="20" fill="#FF894A" fill-opacity="0.4"/>
<path d="M393.736 296.756C394.384 296.76 395.024 296.879 395.653 297.111C396.283 297.343 396.851 297.722 397.358 298.247C397.869 298.773 398.277 299.483 398.58 300.378C398.887 301.268 399.044 302.376 399.048 303.702C399.048 304.975 398.92 306.109 398.665 307.104C398.409 308.093 398.042 308.929 397.564 309.611C397.09 310.293 396.515 310.811 395.838 311.166C395.161 311.521 394.399 311.699 393.551 311.699C392.685 311.699 391.915 311.528 391.243 311.188C390.571 310.847 390.024 310.375 389.602 309.774C389.181 309.168 388.918 308.472 388.814 307.686H390.98C391.122 308.311 391.411 308.818 391.847 309.206C392.287 309.589 392.855 309.781 393.551 309.781C394.616 309.781 395.447 309.317 396.044 308.389C396.641 307.456 396.941 306.154 396.946 304.483H396.832C396.586 304.89 396.278 305.241 395.909 305.534C395.545 305.828 395.135 306.055 394.68 306.216C394.226 306.377 393.741 306.457 393.224 306.457C392.386 306.457 391.624 306.251 390.938 305.839C390.251 305.428 389.704 304.862 389.297 304.142C388.89 303.422 388.686 302.601 388.686 301.678C388.686 300.759 388.894 299.926 389.311 299.178C389.732 298.429 390.32 297.838 391.072 297.402C391.83 296.962 392.718 296.746 393.736 296.756ZM393.743 298.602C393.189 298.602 392.689 298.74 392.244 299.014C391.804 299.284 391.456 299.651 391.2 300.115C390.945 300.574 390.817 301.086 390.817 301.649C390.817 302.213 390.94 302.724 391.186 303.183C391.437 303.638 391.778 304 392.209 304.27C392.644 304.535 393.142 304.668 393.7 304.668C394.117 304.668 394.505 304.587 394.865 304.426C395.225 304.265 395.54 304.043 395.81 303.759C396.08 303.47 396.29 303.143 396.442 302.778C396.593 302.414 396.669 302.03 396.669 301.628C396.669 301.093 396.541 300.596 396.286 300.136C396.035 299.677 395.689 299.308 395.249 299.028C394.808 298.744 394.306 298.602 393.743 298.602Z" fill="black"/>
<rect x="366" y="18" width="56" height="109" rx="20" fill="#FF894A" fill-opacity="0.4"/>
<path d="M389.889 79.5L396.239 66.9432V66.8366H388.895V64.9545H398.511V66.9006L392.183 79.5H389.889Z" fill="black"/>
<rect x="366" y="134" width="56" height="109" rx="20" fill="#FF894A" fill-opacity="0.4"/>
<path d="M393.814 195.699C392.796 195.699 391.896 195.524 391.115 195.173C390.339 194.823 389.73 194.34 389.29 193.724C388.849 193.109 388.632 192.408 388.636 191.622C388.632 191.007 388.757 190.441 389.013 189.925C389.273 189.404 389.626 188.971 390.071 188.625C390.516 188.275 391.013 188.052 391.562 187.957V187.872C390.838 187.697 390.258 187.309 389.822 186.707C389.387 186.106 389.171 185.415 389.176 184.634C389.171 183.89 389.368 183.227 389.766 182.645C390.168 182.058 390.72 181.596 391.42 181.26C392.121 180.924 392.919 180.756 393.814 180.756C394.699 180.756 395.49 180.926 396.186 181.267C396.887 181.603 397.438 182.065 397.841 182.652C398.243 183.234 398.447 183.895 398.452 184.634C398.447 185.415 398.224 186.106 397.784 186.707C397.344 187.309 396.771 187.697 396.065 187.872V187.957C396.61 188.052 397.1 188.275 397.536 188.625C397.976 188.971 398.326 189.404 398.587 189.925C398.852 190.441 398.987 191.007 398.991 191.622C398.987 192.408 398.764 193.109 398.324 193.724C397.884 194.34 397.273 194.823 396.491 195.173C395.715 195.524 394.822 195.699 393.814 195.699ZM393.814 193.902C394.415 193.902 394.936 193.803 395.376 193.604C395.817 193.4 396.158 193.118 396.399 192.759C396.641 192.394 396.764 191.968 396.768 191.48C396.764 190.973 396.631 190.526 396.371 190.138C396.115 189.75 395.767 189.444 395.327 189.222C394.886 188.999 394.382 188.888 393.814 188.888C393.241 188.888 392.732 188.999 392.287 189.222C391.842 189.444 391.491 189.75 391.236 190.138C390.98 190.526 390.855 190.973 390.859 191.48C390.855 191.968 390.971 192.394 391.207 192.759C391.449 193.118 391.792 193.4 392.237 193.604C392.682 193.803 393.208 193.902 393.814 193.902ZM393.814 187.134C394.297 187.134 394.725 187.036 395.099 186.842C395.473 186.648 395.767 186.378 395.98 186.033C396.198 185.687 396.309 185.282 396.314 184.818C396.309 184.364 396.2 183.966 395.987 183.625C395.779 183.284 395.488 183.021 395.114 182.837C394.74 182.647 394.306 182.553 393.814 182.553C393.312 182.553 392.872 182.647 392.493 182.837C392.119 183.021 391.828 183.284 391.619 183.625C391.411 183.966 391.309 184.364 391.314 184.818C391.309 185.282 391.413 185.687 391.626 186.033C391.839 186.378 392.133 186.648 392.507 186.842C392.886 187.036 393.321 187.134 393.814 187.134Z" fill="black"/>
<path d="M465 704H888V1094H465" stroke="black" stroke-width="10"/>
<path d="M472 704L877 704" stroke="#55B6DF" stroke-width="10"/>
<rect width="43" height="20" transform="translate(352 1084)" fill="white"/>
<path d="M353 1094H394" stroke="#CA7E5D" stroke-width="5"/>
<rect width="43" height="20" transform="translate(511 1084)" fill="white"/>
<path d="M512 1094H553" stroke="#CA7E5D" stroke-width="5"/>
</svg>
