<svg width="18" height="19" viewBox="0 0 18 19" fill="none" xmlns="http://www.w3.org/2000/svg">
<path d="M17.0215 8.92188C16.9954 9.55339 16.901 10.1816 16.7383 10.8066C16.5755 11.4316 16.3281 12.0013 15.9961 12.5156C15.6706 13.0299 15.2507 13.4401 14.7363 13.7461C14.222 14.0521 13.6035 14.2051 12.8809 14.2051C12.4447 14.2051 12.0573 14.1302 11.7188 13.9805C11.3802 13.8242 11.097 13.6029 10.8691 13.3164C10.6478 13.0299 10.4883 12.6849 10.3906 12.2812C10.293 11.8711 10.2669 11.4154 10.3125 10.9141L10.8105 5.37695H12.5195L12.0312 10.9141C11.9922 11.3112 11.9987 11.6367 12.0508 11.8906C12.1094 12.1445 12.1973 12.3398 12.3145 12.4766C12.4316 12.6133 12.5651 12.7077 12.7148 12.7598C12.8646 12.8118 13.0143 12.8379 13.1641 12.8379C13.5156 12.8379 13.8314 12.7402 14.1113 12.5449C14.3913 12.3431 14.6289 12.0664 14.8242 11.7148C15.026 11.3568 15.1823 10.9434 15.293 10.4746C15.4102 10.0059 15.4785 9.49805 15.498 8.95117C15.5436 8.03971 15.5013 7.19987 15.3711 6.43164C15.2409 5.6569 15.0195 4.9668 14.707 4.36133C14.401 3.75586 14.0007 3.24479 13.5059 2.82812C13.0176 2.40495 12.4316 2.08268 11.748 1.86133C11.0645 1.63997 10.2832 1.5293 9.4043 1.5293C8.59701 1.5293 7.85156 1.65299 7.16797 1.90039C6.48438 2.14779 5.8724 2.50586 5.33203 2.97461C4.79167 3.43685 4.32617 3.99349 3.93555 4.64453C3.55143 5.28906 3.2487 6.01497 3.02734 6.82227C2.8125 7.62305 2.68555 8.48242 2.64648 9.40039C2.60091 10.3639 2.64974 11.2428 2.79297 12.0371C2.94271 12.8314 3.18359 13.5345 3.51562 14.1465C3.84766 14.7585 4.26432 15.2728 4.76562 15.6895C5.27344 16.1126 5.85938 16.4316 6.52344 16.6465C7.19401 16.8613 7.9362 16.9688 8.75 16.9688C9.32292 16.9688 9.90234 16.9036 10.4883 16.7734C11.0807 16.6432 11.5788 16.4707 11.9824 16.2559L12.3535 17.5547C11.8978 17.8477 11.3281 18.0658 10.6445 18.209C9.96094 18.3522 9.31641 18.4238 8.71094 18.4238C7.70182 18.4238 6.77734 18.2936 5.9375 18.0332C5.10417 17.7728 4.36523 17.3887 3.7207 16.8809C3.08268 16.3796 2.55208 15.7643 2.12891 15.0352C1.70573 14.306 1.39323 13.4694 1.19141 12.5254C0.989583 11.5814 0.911458 10.5397 0.957031 9.40039C1.0026 8.33268 1.16536 7.33008 1.44531 6.39258C1.72526 5.44857 2.10938 4.59245 2.59766 3.82422C3.09245 3.05599 3.67839 2.39518 4.35547 1.8418C5.03906 1.2819 5.80729 0.852214 6.66016 0.552734C7.51302 0.253255 8.44076 0.103516 9.44336 0.103516C10.459 0.103516 11.377 0.236979 12.1973 0.503906C13.0176 0.770833 13.737 1.1582 14.3555 1.66602C14.9805 2.17383 15.498 2.78906 15.9082 3.51172C16.3184 4.23438 16.6178 5.05143 16.8066 5.96289C16.9954 6.86784 17.0671 7.85417 17.0215 8.92188ZM7.08984 9.84961C7.04427 10.2923 7.04102 10.6862 7.08008 11.0312C7.12565 11.3763 7.20703 11.666 7.32422 11.9004C7.44792 12.1348 7.60742 12.3138 7.80273 12.4375C7.99805 12.5612 8.22591 12.623 8.48633 12.623C8.64909 12.623 8.82161 12.584 9.00391 12.5059C9.19271 12.4212 9.37826 12.2878 9.56055 12.1055C9.74284 11.9232 9.91536 11.6823 10.0781 11.3828C10.2409 11.0768 10.3776 10.6992 10.4883 10.25L11.2305 11.0996C11.0807 11.6074 10.8919 12.0566 10.6641 12.4473C10.4362 12.8314 10.179 13.1536 9.89258 13.4141C9.60612 13.668 9.29688 13.8633 8.96484 14C8.63281 14.1302 8.28776 14.1953 7.92969 14.1953C7.45443 14.1953 7.03125 14.0911 6.66016 13.8828C6.29557 13.6745 5.99609 13.3815 5.76172 13.0039C5.52734 12.6198 5.36133 12.1641 5.26367 11.6367C5.16602 11.1029 5.14648 10.5072 5.20508 9.84961C5.27018 9.17904 5.39388 8.55729 5.57617 7.98438C5.76497 7.41146 5.99609 6.90039 6.26953 6.45117C6.54948 6.00195 6.86523 5.62109 7.2168 5.30859C7.56836 4.98958 7.94596 4.7487 8.34961 4.58594C8.75977 4.41667 9.17969 4.33203 9.60938 4.33203C10.3451 4.33203 10.9212 4.4362 11.3379 4.64453C11.7546 4.85286 12.1484 5.09701 12.5195 5.37695L11.6016 6.54883C11.4128 6.37305 11.1654 6.20703 10.8594 6.05078C10.5599 5.89453 10.2018 5.81641 9.78516 5.81641C9.41406 5.81641 9.07552 5.90104 8.76953 6.07031C8.47005 6.23958 8.20638 6.49674 7.97852 6.8418C7.75065 7.18034 7.55859 7.60026 7.40234 8.10156C7.2526 8.60286 7.14844 9.18555 7.08984 9.84961Z" fill="black" fill-opacity="0.5"/>
</svg>
