<svg width="16" height="17" viewBox="0 0 16 17" fill="none" xmlns="http://www.w3.org/2000/svg">
<g id="material-symbols:date-range">
<path id="Vector" d="M5.11111 10C4.90648 10 4.73483 9.928 4.59617 9.784C4.4575 9.64 4.38841 9.462 4.38889 9.25C4.38889 9.0375 4.45822 8.85925 4.59689 8.71525C4.73556 8.57125 4.90696 8.4995 5.11111 8.5C5.31574 8.5 5.48739 8.572 5.62606 8.716C5.76472 8.86 5.83382 9.038 5.83333 9.25C5.83333 9.4625 5.764 9.64075 5.62533 9.78475C5.48667 9.92875 5.31526 10.0005 5.11111 10ZM8 10C7.79537 10 7.62372 9.928 7.48506 9.784C7.34639 9.64 7.2773 9.462 7.27778 9.25C7.27778 9.0375 7.34711 8.85925 7.48578 8.71525C7.62444 8.57125 7.79585 8.4995 8 8.5C8.20463 8.5 8.37628 8.572 8.51494 8.716C8.65361 8.86 8.7227 9.038 8.72222 9.25C8.72222 9.4625 8.65289 9.64075 8.51422 9.78475C8.37556 9.92875 8.20415 10.0005 8 10ZM10.8889 10C10.6843 10 10.5126 9.928 10.3739 9.784C10.2353 9.64 10.1662 9.462 10.1667 9.25C10.1667 9.0375 10.236 8.85925 10.3747 8.71525C10.5133 8.57125 10.6847 8.4995 10.8889 8.5C11.0935 8.5 11.2652 8.572 11.4038 8.716C11.5425 8.86 11.6116 9.038 11.6111 9.25C11.6111 9.4625 11.5418 9.64075 11.4031 9.78475C11.2644 9.92875 11.093 10.0005 10.8889 10ZM2.94445 16C2.54722 16 2.20706 15.853 1.92395 15.559C1.64083 15.265 1.49952 14.912 1.5 14.5V4C1.5 3.5875 1.64156 3.23425 1.92467 2.94025C2.20778 2.64625 2.5477 2.4995 2.94445 2.5H3.66667V1H5.11111V2.5H10.8889V1H12.3333V2.5H13.0556C13.4528 2.5 13.7929 2.647 14.0761 2.941C14.3592 3.235 14.5005 3.588 14.5 4V14.5C14.5 14.9125 14.3584 15.2657 14.0753 15.5597C13.7922 15.8537 13.4523 16.0005 13.0556 16H2.94445ZM2.94445 14.5H13.0556V7H2.94445V14.5Z" fill="#6F01FF"/>
</g>
</svg>
