<svg width="20" height="20" viewBox="0 0 20 20" fill="none" xmlns="http://www.w3.org/2000/svg">
<g id="mi:options-vertical">
<path id="Vector" d="M8.33325 10C8.33325 10.442 8.50885 10.8659 8.82141 11.1785C9.13397 11.4911 9.55789 11.6667 9.99992 11.6667C10.4419 11.6667 10.8659 11.4911 11.1784 11.1785C11.491 10.8659 11.6666 10.442 11.6666 10C11.6666 9.55797 11.491 9.13405 11.1784 8.82149C10.8659 8.50893 10.4419 8.33333 9.99992 8.33333C9.55789 8.33333 9.13397 8.50893 8.82141 8.82149C8.50885 9.13405 8.33325 9.55797 8.33325 10ZM8.33325 5C8.33325 5.44203 8.50885 5.86595 8.82141 6.17851C9.13397 6.49107 9.55789 6.66667 9.99992 6.66667C10.4419 6.66667 10.8659 6.49107 11.1784 6.17851C11.491 5.86595 11.6666 5.44203 11.6666 5C11.6666 4.55797 11.491 4.13405 11.1784 3.82149C10.8659 3.50893 10.4419 3.33333 9.99992 3.33333C9.55789 3.33333 9.13397 3.50893 8.82141 3.82149C8.50885 4.13405 8.33325 4.55797 8.33325 5ZM8.33325 15C8.33325 15.442 8.50885 15.8659 8.82141 16.1785C9.13397 16.4911 9.55789 16.6667 9.99992 16.6667C10.4419 16.6667 10.8659 16.4911 11.1784 16.1785C11.491 15.8659 11.6666 15.442 11.6666 15C11.6666 14.558 11.491 14.134 11.1784 13.8215C10.8659 13.5089 10.4419 13.3333 9.99992 13.3333C9.55789 13.3333 9.13397 13.5089 8.82141 13.8215C8.50885 14.134 8.33325 14.558 8.33325 15Z" fill="#C0430E"/>
</g>
</svg>
