<svg width="167" height="167" viewBox="0 0 167 167" fill="none" xmlns="http://www.w3.org/2000/svg">
<path fill-rule="evenodd" clip-rule="evenodd" d="M91.2025 13.2158C91.2025 9.06868 87.8536 5.70679 83.7225 5.70679C79.5914 5.70679 76.2424 9.06868 76.2424 13.2158C76.2424 17.3629 79.5914 20.7248 83.7225 20.7248C87.8536 20.7248 91.2025 17.3629 91.2025 13.2158ZM79.2344 13.2158C79.2344 10.7275 81.2437 8.71038 83.7224 8.71038C86.2011 8.71038 88.2104 10.7275 88.2104 13.2158C88.2104 15.704 86.2011 17.7212 83.7224 17.7212C81.2437 17.7212 79.2344 15.704 79.2344 13.2158Z" fill="#9563FF"/>
<path fill-rule="evenodd" clip-rule="evenodd" d="M161.315 83.6001C161.315 79.453 157.966 76.0911 153.835 76.0911C149.704 76.0911 146.355 79.453 146.355 83.6001C146.355 87.7472 149.704 91.1091 153.835 91.1091C157.966 91.1091 161.315 87.7472 161.315 83.6001ZM149.347 83.6002C149.347 81.1119 151.357 79.0948 153.835 79.0948C156.314 79.0948 158.323 81.1119 158.323 83.6002C158.323 86.0884 156.314 88.1056 153.835 88.1056C151.357 88.1056 149.347 86.0884 149.347 83.6002Z" fill="#9563FF"/>
<path fill-rule="evenodd" clip-rule="evenodd" d="M21.1895 83.6001C21.1895 79.453 17.8406 76.0911 13.7095 76.0911C9.57841 76.0911 6.22949 79.453 6.22949 83.6001C6.22949 87.7472 9.57841 91.1091 13.7095 91.1091C17.8406 91.1091 21.1895 87.7472 21.1895 83.6001ZM9.22144 83.6002C9.22144 81.1119 11.2308 79.0948 13.7094 79.0948C16.1881 79.0948 18.1975 81.1119 18.1975 83.6002C18.1975 86.0884 16.1881 88.1056 13.7094 88.1056C11.2308 88.1056 9.22144 86.0884 9.22144 83.6002Z" fill="#9563FF"/>
<path fill-rule="evenodd" clip-rule="evenodd" d="M91.2025 153.984C91.2025 149.837 87.8536 146.475 83.7225 146.475C79.5914 146.475 76.2424 149.837 76.2424 153.984C76.2424 158.132 79.5914 161.493 83.7225 161.493C87.8536 161.493 91.2025 158.132 91.2025 153.984ZM79.2344 153.984C79.2344 151.496 81.2437 149.479 83.7224 149.479C86.2011 149.479 88.2104 151.496 88.2104 153.984C88.2104 156.473 86.2011 158.49 83.7224 158.49C81.2437 158.49 79.2344 156.473 79.2344 153.984Z" fill="#9563FF"/>
<path d="M118.973 159.461C120.938 158.55 122.867 157.563 124.754 156.503C125.476 156.098 125.733 155.183 125.33 154.459C124.926 153.735 124.015 153.477 123.294 153.882C121.473 154.904 119.614 155.856 117.718 156.734C116.968 157.082 116.641 157.974 116.987 158.727C117.334 159.48 118.222 159.809 118.973 159.461Z" fill="#9563FF"/>
<path d="M155.07 127.438C156.196 125.618 157.251 123.755 158.234 121.853C158.614 121.117 158.328 120.21 157.594 119.828C156.861 119.447 155.958 119.734 155.577 120.47C154.631 122.303 153.613 124.099 152.528 125.854C152.093 126.559 152.308 127.485 153.01 127.922C153.712 128.359 154.635 128.143 155.07 127.438Z" fill="#9563FF"/>
<path d="M163.021 110.635C164.349 106.756 165.389 102.776 166.132 98.7209C166.281 97.9052 165.743 97.1223 164.931 96.9724C164.118 96.8225 163.338 97.3622 163.189 98.178C162.473 102.086 161.471 105.921 160.191 109.659C159.923 110.443 160.339 111.297 161.12 111.567C161.902 111.836 162.753 111.419 163.021 110.635Z" fill="#9563FF"/>
<path d="M162.893 56.1945C162.243 54.3249 161.527 52.4805 160.746 50.6642C160.419 49.9027 159.538 49.5519 158.78 49.8805C158.021 50.2092 157.672 51.093 157.999 51.8545C158.752 53.6049 159.442 55.3823 160.068 57.184C160.34 57.9671 161.193 58.3804 161.973 58.1072C162.753 57.8339 163.165 56.9776 162.893 56.1945Z" fill="#9563FF"/>
<path d="M124.703 10.6682C122.844 9.62592 120.946 8.65475 119.012 7.7571C118.262 7.40904 117.373 7.73719 117.026 8.49004C116.679 9.2429 117.006 10.1354 117.756 10.4834C119.621 11.349 121.452 12.2854 123.244 13.2905C123.965 13.6949 124.877 13.4358 125.28 12.7117C125.683 11.9876 125.424 11.0727 124.703 10.6682Z" fill="#9563FF"/>
<path d="M54.1007 5.37656C50.1506 6.86688 46.3236 8.6538 42.6499 10.7199C41.9291 11.1252 41.6721 12.0405 42.0759 12.7641C42.4797 13.4877 43.3914 13.7457 44.1122 13.3403C47.6546 11.3481 51.3446 9.6251 55.1533 8.18815C55.9267 7.89636 56.318 7.03042 56.0274 6.25402C55.7367 5.47762 54.8741 5.08477 54.1007 5.37656Z" fill="#9563FF"/>
<path d="M23.5839 25.3974C16.5179 32.6664 10.8166 41.1571 6.78781 50.4576C6.45833 51.2182 6.80545 52.1029 7.56313 52.4337C8.32081 52.7644 9.20213 52.416 9.53162 51.6553C13.415 42.6904 18.9118 34.5044 25.7252 27.4952C26.3023 26.9016 26.2907 25.9508 25.6994 25.3715C25.1081 24.7922 24.1609 24.8038 23.5839 25.3974Z" fill="#9563FF"/>
<path d="M0.449474 74.3847C0.225095 76.4262 0.0753294 78.4813 0.000993891 80.5471C-0.0288329 81.3759 0.616335 82.0722 1.44202 82.1021C2.2677 82.132 2.96123 81.4844 2.99105 80.6555C3.06273 78.6636 3.20712 76.6822 3.42344 74.714C3.51404 73.8896 2.92175 73.1476 2.10051 73.0566C1.27928 72.9657 0.540081 73.5602 0.449474 74.3847Z" fill="#9563FF"/>
<path d="M19.2373 136.971C20.6799 138.705 22.1919 140.38 23.7695 141.993C24.3484 142.585 25.2955 142.593 25.885 142.012C26.4745 141.431 26.4831 140.48 25.9042 139.888C24.3829 138.333 22.9247 136.718 21.5336 135.046C21.004 134.409 20.0605 134.324 19.4264 134.856C18.7923 135.388 18.7076 136.335 19.2373 136.971Z" fill="#9563FF"/>
<path d="M32.2798 149.588C33.87 150.824 35.5041 152.003 37.1791 153.122C37.4549 153.306 37.7318 153.488 38.0098 153.669C38.7031 154.121 39.6295 153.922 40.079 153.226C40.5285 152.53 40.3309 151.601 39.6377 151.149L38.8365 150.621C37.2212 149.542 35.6453 148.405 34.1117 147.213C33.4585 146.705 32.5188 146.825 32.013 147.481C31.5071 148.137 31.6266 149.08 32.2798 149.588Z" fill="#9563FF"/>
<path d="M113.309 155.384C126.696 149.888 138.3 140.735 146.783 129.045C147.269 128.375 147.122 127.436 146.454 126.947C145.786 126.459 144.851 126.607 144.364 127.277C136.208 138.518 125.049 147.32 112.177 152.604C111.412 152.917 111.045 153.794 111.358 154.562C111.671 155.33 112.544 155.698 113.309 155.384Z" fill="#9563FF"/>
<path d="M152.856 119.212C154.798 115.467 156.432 111.568 157.738 107.548C157.995 106.76 157.566 105.912 156.78 105.655C155.995 105.397 155.15 105.828 154.894 106.616C153.639 110.479 152.069 114.226 150.202 117.824C149.82 118.56 150.105 119.467 150.838 119.85C151.571 120.233 152.474 119.947 152.856 119.212Z" fill="#9563FF"/>
<path d="M160.529 71.2171C160.203 69.1895 159.797 67.1803 159.312 65.1931C159.116 64.3875 158.306 63.8943 157.504 64.0916C156.701 64.2889 156.21 65.1019 156.406 65.9075C156.872 67.8169 157.262 69.7475 157.576 71.6958C157.707 72.5147 158.475 73.0713 159.291 72.9391C160.107 72.8069 160.661 72.036 160.529 71.2171Z" fill="#9563FF"/>
<path d="M149.845 42.7037C147.717 39.2881 145.325 36.0416 142.694 32.994C142.153 32.3672 141.208 32.2995 140.584 32.8427C139.96 33.3859 139.892 34.3344 140.433 34.9612C142.963 37.8914 145.262 41.0127 147.308 44.2963C147.746 44.9996 148.669 45.2131 149.37 44.7733C150.07 44.3336 150.283 43.407 149.845 42.7037Z" fill="#9563FF"/>
<path d="M118.782 14.3159C116.889 13.3608 114.956 12.4834 112.989 11.6861C112.223 11.3756 111.351 11.7474 111.042 12.5165C110.732 13.2856 111.103 14.1608 111.869 14.4713C113.76 15.2378 115.618 16.0815 117.439 16.9997C118.177 17.3721 119.076 17.0732 119.447 16.3321C119.818 15.591 119.521 14.6883 118.782 14.3159Z" fill="#9563FF"/>
<path d="M49.0398 14.1269C46.9245 15.1795 44.8589 16.3279 42.8492 17.5681C42.1454 18.0025 41.9255 18.9274 42.3582 19.634C42.7909 20.3406 43.7123 20.5613 44.4161 20.1269C46.3486 18.9344 48.3347 17.8301 50.3686 16.818C51.1089 16.4497 51.4115 15.5486 51.0446 14.8055C50.6776 14.0624 49.7801 13.7585 49.0398 14.1269Z" fill="#9563FF"/>
<path d="M12.0977 53.2712C11.2044 55.3674 10.404 57.5036 9.69928 59.6743C9.44326 60.4629 9.87254 61.3105 10.6581 61.5676C11.4436 61.8246 12.288 61.3936 12.544 60.605C13.2211 58.5194 13.9902 56.4668 14.8486 54.4525C15.1735 53.69 14.8212 52.8073 14.0616 52.4811C13.3019 52.1549 12.4227 52.5086 12.0977 53.2712Z" fill="#9563FF"/>
<path d="M17.3761 124.135C17.9121 125.006 18.4653 125.866 19.0353 126.715C20.452 128.826 21.9717 130.866 23.5885 132.829C23.8987 133.205 24.2124 133.579 24.5296 133.949C25.068 134.579 26.0125 134.65 26.6392 134.11C27.2659 133.569 27.3375 132.621 26.7991 131.992C26.4941 131.636 26.1924 131.277 25.8942 130.914C24.3397 129.028 22.8785 127.066 21.5166 125.037C20.9686 124.221 20.4368 123.393 19.9215 122.556C19.4873 121.851 18.5655 121.632 17.8625 122.068C17.1596 122.504 16.9418 123.429 17.3761 124.135Z" fill="#9563FF"/>
<path d="M33.3943 142.769C33.719 143.044 34.0459 143.316 34.375 143.586C36.3427 145.198 38.3882 146.714 40.5041 148.126C41.3473 148.689 42.2013 149.236 43.0659 149.765C43.7712 150.197 44.6918 149.974 45.1222 149.266C45.5526 148.558 45.3297 147.633 44.6244 147.201C43.7931 146.692 42.9718 146.167 42.161 145.625C40.1263 144.267 38.1592 142.809 36.2669 141.259C35.9504 141 35.636 140.738 35.3238 140.473C34.6924 139.938 33.7485 140.019 33.2157 140.653C32.6829 141.286 32.7629 142.234 33.3943 142.769Z" fill="#9563FF"/>
<path d="M59.5187 157.363C60.0563 157.539 60.596 157.708 61.1377 157.872C62.7255 158.352 64.33 158.781 65.9493 159.158C66.7541 159.346 67.558 158.843 67.7449 158.035C67.9318 157.227 67.4309 156.42 66.6261 156.233C65.0692 155.87 63.5266 155.457 62 154.996C61.4792 154.839 60.9603 154.676 60.4434 154.507C59.6576 154.251 58.8136 154.682 58.5583 155.471C58.3029 156.26 58.7329 157.107 59.5187 157.363Z" fill="#9563FF"/>
<path d="M27.7979 118.205C28.1844 118.823 28.5812 119.435 28.9881 120.041C31.3867 123.61 34.1323 126.938 37.1816 129.975C39.4147 132.2 41.8052 134.263 44.3336 136.147C44.997 136.641 45.934 136.502 46.4265 135.836C46.9189 135.17 46.7803 134.229 46.1169 133.735C43.7031 131.936 41.4209 129.967 39.289 127.843C36.3782 124.944 33.7576 121.767 31.4684 118.361C31.0801 117.783 30.7015 117.199 30.3327 116.609C29.8937 115.906 28.9704 115.694 28.2705 116.134C27.5705 116.575 27.3589 117.502 27.7979 118.205Z" fill="#9563FF"/>
<path d="M54.2049 142.231C55.6217 142.94 57.0643 143.599 58.5301 144.204C59.1712 144.469 59.8166 144.723 60.4661 144.968C61.2398 145.259 62.1021 144.866 62.3921 144.089C62.6821 143.312 62.2901 142.447 61.5164 142.155C60.8964 141.922 60.2804 141.679 59.6685 141.426C58.2695 140.848 56.8926 140.22 55.5402 139.543C54.8008 139.173 53.9025 139.475 53.5338 140.217C53.1651 140.959 53.4655 141.861 54.2049 142.231Z" fill="#9563FF"/>
<path fill-rule="evenodd" clip-rule="evenodd" d="M95.6906 16.0192C96.5168 16.0192 97.1866 15.3468 97.1866 14.5174C97.1866 13.6879 96.5168 13.0156 95.6906 13.0156C94.8644 13.0156 94.1946 13.6879 94.1946 14.5174C94.1946 15.3468 94.8644 16.0192 95.6906 16.0192Z" fill="#9563FF"/>
<path fill-rule="evenodd" clip-rule="evenodd" d="M83.7226 14.7176C84.5488 14.7176 85.2186 14.0452 85.2186 13.2158C85.2186 12.3864 84.5488 11.714 83.7226 11.714C82.8963 11.714 82.2266 12.3864 82.2266 13.2158C82.2266 14.0452 82.8963 14.7176 83.7226 14.7176Z" fill="#9563FF"/>
<path fill-rule="evenodd" clip-rule="evenodd" d="M153.835 85.1019C154.662 85.1019 155.331 84.4295 155.331 83.6001C155.331 82.7707 154.662 82.0983 153.835 82.0983C153.009 82.0983 152.339 82.7707 152.339 83.6001C152.339 84.4295 153.009 85.1019 153.835 85.1019Z" fill="#9563FF"/>
<path fill-rule="evenodd" clip-rule="evenodd" d="M13.7094 85.1019C14.5356 85.1019 15.2054 84.4295 15.2054 83.6001C15.2054 82.7707 14.5356 82.0983 13.7094 82.0983C12.8832 82.0983 12.2134 82.7707 12.2134 83.6001C12.2134 84.4295 12.8832 85.1019 13.7094 85.1019Z" fill="#9563FF"/>
<path fill-rule="evenodd" clip-rule="evenodd" d="M83.7226 155.486C84.5488 155.486 85.2186 154.814 85.2186 153.984C85.2186 153.155 84.5488 152.483 83.7226 152.483C82.8963 152.483 82.2266 153.155 82.2266 153.984C82.2266 154.814 82.8963 155.486 83.7226 155.486Z" fill="#9563FF"/>
<path fill-rule="evenodd" clip-rule="evenodd" d="M131.894 34.0408C132.72 34.0408 133.39 33.3684 133.39 32.539C133.39 31.7095 132.72 31.0372 131.894 31.0372C131.068 31.0372 130.398 31.7095 130.398 32.539C130.398 33.3684 131.068 34.0408 131.894 34.0408Z" fill="#9563FF"/>
<path fill-rule="evenodd" clip-rule="evenodd" d="M150.843 106.127C151.669 106.127 152.339 105.455 152.339 104.625C152.339 103.796 151.669 103.124 150.843 103.124C150.017 103.124 149.347 103.796 149.347 104.625C149.347 105.455 150.017 106.127 150.843 106.127Z" fill="#9563FF"/>
<path fill-rule="evenodd" clip-rule="evenodd" d="M146.555 116.64C147.381 116.64 148.051 115.967 148.051 115.138C148.051 114.308 147.381 113.636 146.555 113.636C145.728 113.636 145.059 114.308 145.059 115.138C145.059 115.967 145.728 116.64 146.555 116.64Z" fill="#9563FF"/>
<path fill-rule="evenodd" clip-rule="evenodd" d="M122.619 143.472C123.445 143.472 124.115 142.799 124.115 141.97C124.115 141.141 123.445 140.468 122.619 140.468C121.792 140.468 121.123 141.141 121.123 141.97C121.123 142.799 121.792 143.472 122.619 143.472Z" fill="#9563FF"/>
<path fill-rule="evenodd" clip-rule="evenodd" d="M112.645 148.978C113.471 148.978 114.141 148.306 114.141 147.477C114.141 146.647 113.471 145.975 112.645 145.975C111.819 145.975 111.149 146.647 111.149 147.477C111.149 148.306 111.819 148.978 112.645 148.978Z" fill="#9563FF"/>
<path fill-rule="evenodd" clip-rule="evenodd" d="M15.0058 100.12C15.832 100.12 16.5018 99.4475 16.5018 98.6181C16.5018 97.7887 15.832 97.1163 15.0058 97.1163C14.1795 97.1163 13.5098 97.7887 13.5098 98.6181C13.5098 99.4475 14.1795 100.12 15.0058 100.12Z" fill="#9563FF"/>
<path fill-rule="evenodd" clip-rule="evenodd" d="M35.5509 34.0408C36.3772 34.0408 37.0469 33.3684 37.0469 32.539C37.0469 31.7095 36.3772 31.0372 35.5509 31.0372C34.7247 31.0372 34.0549 31.7095 34.0549 32.539C34.0549 33.3684 34.7247 34.0408 35.5509 34.0408Z" fill="#9563FF"/>
<path fill-rule="evenodd" clip-rule="evenodd" d="M18.8957 45.054C19.7219 45.054 20.3917 44.3816 20.3917 43.5522C20.3917 42.7227 19.7219 42.0504 18.8957 42.0504C18.0694 42.0504 17.3997 42.7227 17.3997 43.5522C17.3997 44.3816 18.0694 45.054 18.8957 45.054Z" fill="#9563FF"/>
<path fill-rule="evenodd" clip-rule="evenodd" d="M159.121 97.1163C159.947 97.1163 160.617 96.4439 160.617 95.6145C160.617 94.7851 159.947 94.1127 159.121 94.1127C158.295 94.1127 157.625 94.7851 157.625 95.6145C157.625 96.4439 158.295 97.1163 159.121 97.1163Z" fill="#9563FF"/>
<path fill-rule="evenodd" clip-rule="evenodd" d="M95.6906 160.292C96.5168 160.292 97.1866 159.62 97.1866 158.79C97.1866 157.961 96.5168 157.288 95.6906 157.288C94.8644 157.288 94.1946 157.961 94.1946 158.79C94.1946 159.62 94.8644 160.292 95.6906 160.292Z" fill="#9563FF"/>
<path fill-rule="evenodd" clip-rule="evenodd" d="M10.9169 108.13C11.7431 108.13 12.4129 107.457 12.4129 106.628C12.4129 105.798 11.7431 105.126 10.9169 105.126C10.0907 105.126 9.4209 105.798 9.4209 106.628C9.4209 107.457 10.0907 108.13 10.9169 108.13Z" fill="#9563FF"/>
<path fill-rule="evenodd" clip-rule="evenodd" d="M8.32364 97.1163C9.14986 97.1163 9.81965 96.4439 9.81965 95.6145C9.81965 94.7851 9.14986 94.1127 8.32364 94.1127C7.49742 94.1127 6.82764 94.7851 6.82764 95.6145C6.82764 96.4439 7.49742 97.1163 8.32364 97.1163Z" fill="#9563FF"/>
<path fill-rule="evenodd" clip-rule="evenodd" d="M34.4538 27.0323C35.28 27.0323 35.9498 26.36 35.9498 25.5305C35.9498 24.7011 35.28 24.0287 34.4538 24.0287C33.6275 24.0287 32.9578 24.7011 32.9578 25.5305C32.9578 26.36 33.6275 27.0323 34.4538 27.0323Z" fill="#9563FF"/>
<path fill-rule="evenodd" clip-rule="evenodd" d="M33.6562 20.024C34.4824 20.024 35.1522 19.3516 35.1522 18.5222C35.1522 17.6928 34.4824 17.0204 33.6562 17.0204C32.8299 17.0204 32.1602 17.6928 32.1602 18.5222C32.1602 19.3516 32.8299 20.024 33.6562 20.024Z" fill="#9563FF"/>
<path fill-rule="evenodd" clip-rule="evenodd" d="M4.13492 64.0767C4.96114 64.0767 5.63093 63.4043 5.63093 62.5749C5.63093 61.7455 4.96114 61.0731 4.13492 61.0731C3.3087 61.0731 2.63892 61.7455 2.63892 62.5749C2.63892 63.4043 3.3087 64.0767 4.13492 64.0767Z" fill="#9563FF"/>
<path fill-rule="evenodd" clip-rule="evenodd" d="M83.7224 3.0036C84.5487 3.0036 85.2184 2.33122 85.2184 1.5018C85.2184 0.672378 84.5487 0 83.7224 0C82.8962 0 82.2264 0.672378 82.2264 1.5018C82.2264 2.33122 82.8962 3.0036 83.7224 3.0036Z" fill="#9563FF"/>
<path fill-rule="evenodd" clip-rule="evenodd" d="M101.674 5.00598C102.501 5.00598 103.17 4.3336 103.17 3.50418C103.17 2.67476 102.501 2.00238 101.674 2.00238C100.848 2.00238 100.178 2.67476 100.178 3.50418C100.178 4.3336 100.848 5.00598 101.674 5.00598Z" fill="#9563FF"/>
<path fill-rule="evenodd" clip-rule="evenodd" d="M133.889 20.024C134.715 20.024 135.385 19.3516 135.385 18.5222C135.385 17.6928 134.715 17.0204 133.889 17.0204C133.062 17.0204 132.393 17.6928 132.393 18.5222C132.393 19.3516 133.062 20.024 133.889 20.024Z" fill="#9563FF"/>
<path fill-rule="evenodd" clip-rule="evenodd" d="M142.865 28.0336C143.691 28.0336 144.361 27.3612 144.361 26.5318C144.361 25.7023 143.691 25.03 142.865 25.03C142.038 25.03 141.369 25.7023 141.369 26.5318C141.369 27.3612 142.038 28.0336 142.865 28.0336Z" fill="#9563FF"/>
<path fill-rule="evenodd" clip-rule="evenodd" d="M153.835 42.0503C154.662 42.0503 155.331 41.378 155.331 40.5486C155.331 39.7191 154.662 39.0468 153.835 39.0468C153.009 39.0468 152.339 39.7191 152.339 40.5486C152.339 41.378 153.009 42.0503 153.835 42.0503Z" fill="#9563FF"/>
<path fill-rule="evenodd" clip-rule="evenodd" d="M165.504 76.0911C166.33 76.0911 167 75.4187 167 74.5893C167 73.7599 166.33 73.0875 165.504 73.0875C164.678 73.0875 164.008 73.7599 164.008 74.5893C164.008 75.4187 164.678 76.0911 165.504 76.0911Z" fill="#9563FF"/>
<path fill-rule="evenodd" clip-rule="evenodd" d="M146.555 138.165C147.381 138.165 148.051 137.493 148.051 136.664C148.051 135.834 147.381 135.162 146.555 135.162C145.728 135.162 145.059 135.834 145.059 136.664C145.059 137.493 145.728 138.165 146.555 138.165Z" fill="#9563FF"/>
<path fill-rule="evenodd" clip-rule="evenodd" d="M133.589 150.38C134.415 150.38 135.085 149.708 135.085 148.878C135.085 148.049 134.415 147.376 133.589 147.376C132.763 147.376 132.093 148.049 132.093 148.878C132.093 149.708 132.763 150.38 133.589 150.38Z" fill="#9563FF"/>
<path fill-rule="evenodd" clip-rule="evenodd" d="M101.674 165.198C102.501 165.198 103.17 164.525 103.17 163.696C103.17 162.867 102.501 162.194 101.674 162.194C100.848 162.194 100.178 162.867 100.178 163.696C100.178 164.525 100.848 165.198 101.674 165.198Z" fill="#9563FF"/>
<path fill-rule="evenodd" clip-rule="evenodd" d="M89.7065 167C90.5327 167 91.2025 166.328 91.2025 165.498C91.2025 164.669 90.5327 163.996 89.7065 163.996C88.8802 163.996 88.2104 164.669 88.2104 165.498C88.2104 166.328 88.8802 167 89.7065 167Z" fill="#9563FF"/>
<path fill-rule="evenodd" clip-rule="evenodd" d="M77.7384 167C78.5647 167 79.2344 166.328 79.2344 165.498C79.2344 164.669 78.5647 163.996 77.7384 163.996C76.9122 163.996 76.2424 164.669 76.2424 165.498C76.2424 166.328 76.9122 167 77.7384 167Z" fill="#9563FF"/>
<path fill-rule="evenodd" clip-rule="evenodd" d="M60.2851 163.796C61.1113 163.796 61.7811 163.124 61.7811 162.294C61.7811 161.465 61.1113 160.793 60.2851 160.793C59.4588 160.793 58.7891 161.465 58.7891 162.294C58.7891 163.124 59.4588 163.796 60.2851 163.796Z" fill="#9563FF"/>
<path fill-rule="evenodd" clip-rule="evenodd" d="M10.817 123.147C11.6433 123.147 12.3131 122.475 12.3131 121.646C12.3131 120.816 11.6433 120.144 10.817 120.144C9.99083 120.144 9.32104 120.816 9.32104 121.646C9.32104 122.475 9.99083 123.147 10.817 123.147Z" fill="#9563FF"/>
<path fill-rule="evenodd" clip-rule="evenodd" d="M133.091 27.0825C133.917 27.0825 134.587 26.4101 134.587 25.5807C134.587 24.7512 133.917 24.0789 133.091 24.0789C132.265 24.0789 131.595 24.7512 131.595 25.5807C131.595 26.4101 132.265 27.0825 133.091 27.0825Z" fill="#9563FF"/>
<path fill-rule="evenodd" clip-rule="evenodd" d="M65.9699 11.1133C66.7961 11.1133 67.4659 10.4409 67.4659 9.61148C67.4659 8.78206 66.7961 8.10968 65.9699 8.10968C65.1437 8.10968 64.4739 8.78206 64.4739 9.61148C64.4739 10.4409 65.1437 11.1133 65.9699 11.1133Z" fill="#9563FF"/>
<path fill-rule="evenodd" clip-rule="evenodd" d="M101.674 11.1133C102.501 11.1133 103.17 10.4409 103.17 9.61148C103.17 8.78206 102.501 8.10968 101.674 8.10968C100.848 8.10968 100.178 8.78206 100.178 9.61148C100.178 10.4409 100.848 11.1133 101.674 11.1133Z" fill="#9563FF"/>
<path d="M95.6208 154.207C97.8114 153.843 99.9782 153.378 102.116 152.815C102.915 152.605 103.393 151.784 103.183 150.982C102.973 150.179 102.156 149.7 101.356 149.91C99.3079 150.45 97.2314 150.895 95.1319 151.244C94.3168 151.38 93.7655 152.153 93.9005 152.971C94.0355 153.789 94.8057 154.343 95.6208 154.207Z" fill="#9563FF"/>
<path d="M153.912 68.4171C152.162 60.3413 149.024 52.6728 144.658 45.709C144.218 45.0071 143.294 44.7962 142.595 45.238C141.896 45.6798 141.686 46.6071 142.126 47.309C146.308 53.979 149.313 61.3225 150.988 69.0554C151.164 69.8659 151.961 70.38 152.768 70.2038C153.576 70.0275 154.088 69.2276 153.912 68.4171Z" fill="#9563FF"/>
<path d="M113.327 18.3622C111.426 17.5036 109.487 16.7279 107.515 16.0378C106.735 15.7648 105.882 16.1783 105.61 16.9615C105.338 17.7447 105.75 18.6009 106.53 18.874C108.42 19.5352 110.278 20.2785 112.099 21.1013C112.853 21.4416 113.738 21.1043 114.077 20.348C114.416 19.5916 114.08 18.7025 113.327 18.3622Z" fill="#9563FF"/>
<path d="M71.923 12.9764C67.7524 13.6638 63.67 14.715 59.7133 16.114C58.934 16.3895 58.5248 17.2471 58.7992 18.0294C59.0737 18.8117 59.928 19.2225 60.7073 18.947C64.4987 17.6064 68.4107 16.5991 72.4077 15.9403C73.2231 15.8059 73.7755 15.0335 73.6416 14.215C73.5077 13.3965 72.7383 12.842 71.923 12.9764Z" fill="#9563FF"/>
<path d="M26.3714 40.5153C20.1046 48.7928 15.6999 58.3328 13.5078 68.5331C13.3336 69.3438 13.8471 70.1429 14.6547 70.3178C15.4623 70.4927 16.2583 69.9773 16.4326 69.1665C18.5317 59.3989 22.75 50.2625 28.7535 42.3328C29.2534 41.6724 29.1255 40.7303 28.4677 40.2284C27.8099 39.7265 26.8713 39.855 26.3714 40.5153Z" fill="#9563FF"/>
<path d="M17.0085 110.133L17.3645 111.005C18.8347 114.539 20.5874 117.946 22.6037 121.197C23.0405 121.901 23.9631 122.117 24.6644 121.678C25.3658 121.24 25.5803 120.314 25.1436 119.61C23.2122 116.496 21.5334 113.232 20.1254 109.847C20.01 109.57 19.8963 109.292 19.7846 109.013C19.4763 108.243 18.605 107.87 17.8384 108.179C17.0719 108.489 16.7003 109.364 17.0085 110.133Z" fill="#9563FF"/>
<path d="M29.7492 130.818C30.779 131.987 31.8466 133.123 32.9502 134.223C34.8925 136.159 36.9443 137.983 39.0948 139.686C39.7435 140.199 40.6842 140.088 41.1959 139.437C41.7076 138.786 41.5965 137.841 40.9478 137.328C38.8865 135.695 36.92 133.947 35.0583 132.091C34.0006 131.037 32.9774 129.949 31.9904 128.828C31.4431 128.207 30.4976 128.149 29.8787 128.698C29.2598 129.248 29.2018 130.197 29.7492 130.818Z" fill="#9563FF"/>
<path d="M53.6643 148.631C54.5151 149.022 55.3736 149.397 56.2395 149.755C59.4557 151.084 62.7694 152.179 66.1587 153.029C66.9603 153.23 67.7724 152.74 67.9725 151.935C68.1727 151.131 67.6851 150.315 66.8834 150.114C63.6357 149.3 60.4604 148.252 57.3786 146.978C56.5489 146.635 55.7262 146.276 54.9109 145.901C54.1598 145.555 53.2719 145.886 52.9277 146.64C52.5834 147.394 52.9132 148.285 53.6643 148.631Z" fill="#9563FF"/>
<path d="M31.4036 43.7991C26.4172 50.2952 22.6836 57.6656 20.4218 65.5557C20.1933 66.3528 20.6517 67.1849 21.4457 67.4142C22.2397 67.6436 23.0686 67.1834 23.2971 66.3864C25.4543 58.8615 29.0157 51.8308 33.7736 45.6324C34.2779 44.9754 34.1562 44.0324 33.5017 43.5261C32.8472 43.0199 31.9079 43.1421 31.4036 43.7991Z" fill="#9563FF"/>
<path d="M44.7364 30.7558C42.7879 32.1849 40.9194 33.7199 39.1395 35.3531C38.5297 35.9127 38.4872 36.8627 39.0446 37.4749C39.6021 38.0871 40.5483 38.1297 41.1582 37.5701C42.8574 36.0109 44.6413 34.5454 46.5015 33.1811C47.1686 32.6918 47.3143 31.7522 46.8269 31.0825C46.3395 30.4128 45.4035 30.2665 44.7364 30.7558Z" fill="#9563FF"/>
<path d="M66.1475 20.3854C61.9843 21.5317 57.956 23.0837 54.1135 25.015C53.3747 25.3863 53.0756 26.2885 53.4455 27.0302C53.8154 27.7719 54.7141 28.0721 55.4529 27.7008C59.1206 25.8574 62.9653 24.3761 66.939 23.282C67.7358 23.0626 68.2045 22.2363 67.986 21.4364C67.7674 20.6365 66.9443 20.166 66.1475 20.3854Z" fill="#9563FF"/>
<path d="M102.293 20.6681C99.968 19.9881 97.6021 19.4363 95.204 19.016C94.3901 18.8733 93.6151 19.42 93.473 20.2371C93.3309 21.0542 93.8755 21.8322 94.6894 21.9748C96.9787 22.3761 99.237 22.9028 101.456 23.5518C102.25 23.7838 103.08 23.3263 103.311 22.5299C103.542 21.7336 103.086 20.9 102.293 20.6681Z" fill="#9563FF"/>
<path d="M139.846 49.3163C138.609 47.3107 137.264 45.3726 135.819 43.5106C135.311 42.8565 134.371 42.7395 133.719 43.2494C133.067 43.7593 132.951 44.7029 133.459 45.3571C134.838 47.1341 136.122 48.9836 137.302 50.8974C137.737 51.6026 138.659 51.8203 139.361 51.3837C140.064 50.9471 140.281 50.0215 139.846 49.3163Z" fill="#9563FF"/>
<path d="M144.801 108.095C146.48 103.944 147.729 99.6219 148.523 95.1849C148.669 94.3685 148.128 93.5879 147.315 93.4412C146.502 93.2946 145.724 93.8375 145.578 94.6538C144.821 98.8851 143.63 103.006 142.029 106.965C141.718 107.734 142.087 108.61 142.852 108.922C143.618 109.234 144.49 108.864 144.801 108.095Z" fill="#9563FF"/>
<path d="M95.2457 148.177C101.591 147.06 107.697 145.025 113.402 142.15C114.14 141.777 114.438 140.875 114.067 140.134C113.697 139.392 112.798 139.093 112.059 139.465C106.614 142.21 100.786 144.153 94.7292 145.218C93.9154 145.362 93.3713 146.14 93.5139 146.957C93.6565 147.774 94.4319 148.32 95.2457 148.177Z" fill="#9563FF"/>
<path fill-rule="evenodd" clip-rule="evenodd" d="M112.396 27.7332C113.222 27.7332 113.892 27.0608 113.892 26.2314C113.892 25.4019 113.222 24.7296 112.396 24.7296C111.57 24.7296 110.9 25.4019 110.9 26.2314C110.9 27.0608 111.57 27.7332 112.396 27.7332Z" fill="#9563FF"/>
<path fill-rule="evenodd" clip-rule="evenodd" d="M126.907 37.545C127.733 37.545 128.403 36.8726 128.403 36.0432C128.403 35.2138 127.733 34.5414 126.907 34.5414C126.081 34.5414 125.411 35.2138 125.411 36.0432C125.411 36.8726 126.081 37.545 126.907 37.545Z" fill="#9563FF"/>
<path fill-rule="evenodd" clip-rule="evenodd" d="M143.762 62.0743C144.588 62.0743 145.258 61.402 145.258 60.5725C145.258 59.7431 144.588 59.0707 143.762 59.0707C142.936 59.0707 142.266 59.7431 142.266 60.5725C142.266 61.402 142.936 62.0743 143.762 62.0743Z" fill="#9563FF"/>
<path fill-rule="evenodd" clip-rule="evenodd" d="M146.903 73.0875C147.73 73.0875 148.399 72.4151 148.399 71.5857C148.399 70.7563 147.73 70.0839 146.903 70.0839C146.077 70.0839 145.407 70.7563 145.407 71.5857C145.407 72.4151 146.077 73.0875 146.903 73.0875Z" fill="#9563FF"/>
<path fill-rule="evenodd" clip-rule="evenodd" d="M21.8876 103.124C22.7138 103.124 23.3836 102.451 23.3836 101.622C23.3836 100.792 22.7138 100.12 21.8876 100.12C21.0614 100.12 20.3916 100.792 20.3916 101.622C20.3916 102.451 21.0614 103.124 21.8876 103.124Z" fill="#9563FF"/>
<path fill-rule="evenodd" clip-rule="evenodd" d="M124.115 139.167C132.377 139.167 139.075 132.443 139.075 124.149C139.075 115.854 132.377 109.131 124.115 109.131C115.852 109.131 109.155 115.854 109.155 124.149C109.155 132.443 115.852 139.167 124.115 139.167Z" fill="white"/>
<path fill-rule="evenodd" clip-rule="evenodd" d="M124.115 112.134C130.724 112.134 136.083 117.513 136.083 124.149C136.083 130.784 130.724 136.163 124.115 136.163C117.505 136.163 112.146 130.784 112.146 124.149C112.146 117.513 117.505 112.134 124.115 112.134Z" fill="#9563FF"/>
</svg>
