<svg width="30" height="30" viewBox="0 0 30 30" fill="none" xmlns="http://www.w3.org/2000/svg">
<g id="fluent:desk-24-regular">
<path id="Vector" d="M5.7 5.40001C4.98392 5.40001 4.29716 5.68447 3.79081 6.19082C3.28446 6.69717 3 7.38392 3 8.10001V21.3C3 21.7334 3.08536 22.1625 3.2512 22.5629C3.41704 22.9632 3.66011 23.327 3.96655 23.6335C4.27298 23.9399 4.63677 24.183 5.03714 24.3488C5.43752 24.5147 5.86664 24.6 6.3 24.6H11.7C12.1334 24.6 12.5625 24.5147 12.9629 24.3488C13.3632 24.183 13.727 23.9399 14.0335 23.6335C14.3399 23.327 14.583 22.9632 14.7488 22.5629C14.9146 22.1625 15 21.7334 15 21.3V12H25.2V23.7C25.2 23.9387 25.2948 24.1676 25.4636 24.3364C25.6324 24.5052 25.8613 24.6 26.1 24.6C26.3387 24.6 26.5676 24.5052 26.7364 24.3364C26.9052 24.1676 27 23.9387 27 23.7V8.10001C27 7.38392 26.7155 6.69717 26.2092 6.19082C25.7028 5.68447 25.0161 5.40001 24.3 5.40001H5.7ZM4.8 12H13.2V21.3C13.2 22.128 12.528 22.8 11.7 22.8H6.3C5.472 22.8 4.8 22.128 4.8 21.3V12ZM4.8 10.2V8.10001C4.8 7.86131 4.89482 7.6324 5.0636 7.46361C5.23239 7.29483 5.46131 7.20001 5.7 7.20001H24.3C24.5387 7.20001 24.7676 7.29483 24.9364 7.46361C25.1052 7.6324 25.2 7.86131 25.2 8.10001V10.2H4.8ZM7.5 14.4C7.26131 14.4 7.03239 14.4948 6.8636 14.6636C6.69482 14.8324 6.6 15.0613 6.6 15.3C6.6 15.5387 6.69482 15.7676 6.8636 15.9364C7.03239 16.1052 7.26131 16.2 7.5 16.2H10.5C10.7387 16.2 10.9676 16.1052 11.1364 15.9364C11.3052 15.7676 11.4 15.5387 11.4 15.3C11.4 15.0613 11.3052 14.8324 11.1364 14.6636C10.9676 14.4948 10.7387 14.4 10.5 14.4H7.5Z" fill="#6F01FF"/>
</g>
</svg>
