<svg width="41" height="40" viewBox="0 0 41 40" fill="none" xmlns="http://www.w3.org/2000/svg">
<path d="M4.5 8.70703L9.344 17.3654V22.6467L4.50567 31.288L4.5 8.70703Z" fill="#5B57A2"/>
<path d="M23.0991 14.2145L27.6381 11.4325L36.9274 11.4238L23.0991 19.8952V14.2145Z" fill="#D90751"/>
<path d="M23.0733 8.65566L23.099 20.119L18.2437 17.1356V0L23.0736 8.65566H23.0733Z" fill="#FAB718"/>
<path d="M36.9273 11.4237L27.6376 11.4323L23.0733 8.65566L18.2437 0L36.927 11.4237H36.9273Z" fill="#ED6F26"/>
<path d="M23.099 31.336V25.7743L18.2437 22.8477L18.2463 40.0003L23.099 31.336Z" fill="#63B22F"/>
<path d="M27.6266 28.5793L9.34366 17.3654L4.5 8.70703L36.9076 28.568L27.6263 28.5793H27.6266Z" fill="#1487C9"/>
<path d="M18.2466 39.9997L23.0986 31.3354L27.6262 28.5787L36.9072 28.5674L18.2466 39.9997Z" fill="#017F36"/>
<path d="M4.50586 31.2878L18.2835 22.8479L13.6515 20.0059L9.34419 22.6465L4.50586 31.2878Z" fill="#984995"/>
</svg>
