<svg width="1126" height="1123" viewBox="0 0 1126 1123" fill="none" xmlns="http://www.w3.org/2000/svg">
<path d="M862 304H903" stroke="#CA7E5D" stroke-width="5"/>
<path d="M862 661H903" stroke="#CA7E5D" stroke-width="5"/>
<path d="M768 661H809" stroke="#CA7E5D" stroke-width="5"/>
<path d="M630 661H671" stroke="#CA7E5D" stroke-width="5"/>
<path d="M492 661H533" stroke="#CA7E5D" stroke-width="5"/>
<path d="M459 571H500" stroke="#CA7E5D" stroke-width="5"/>
<path d="M731 571H772" stroke="#CA7E5D" stroke-width="5"/>
<path d="M384 377V336" stroke="#CA7E5D" stroke-width="5"/>
<path d="M138 236V195" stroke="#CA7E5D" stroke-width="5"/>
<path d="M182.5 829H5.5L7.5 10.5H1114.35C1114.35 177.5 1114.35 407.5 1114.35 637M182.5 829V1112.5H371M182.5 829V793.5H373M373 793.5V736C373 690.5 387.5 660.5 492 660.5M373 793.5L371 1112.5M1114.35 637C1112.53 702.625 1109.39 764.325 1104.5 817.5C1103.68 826.417 1102.68 835.082 1101.52 843.5M1114.35 637H1037V660.5L903.5 661.462M371 1112.5H554M556 660.645L554 1112.5M556 660.645C544.909 660.607 542.533 660.575 533 660.551M556 660.645C573.549 660.705 608.886 660.778 629.5 660.856M554 1112.5H741.5M741.5 661.291V1112.5M741.5 661.291C721.512 661.237 690.743 661.175 671.5 661.109M741.5 661.291C749.803 661.313 759.144 661.334 767.5 661.353M741.5 1112.5H753.5M1101.52 843.5H833V661.455M1101.52 843.5L1099.5 856.5M833 661.455C822.72 661.447 819.372 661.436 809 661.42M833 661.455C842.739 661.462 851.418 661.464 861 661.462" stroke="black" stroke-width="10"/>
<path d="M1125.5 646.5H1107.5L1088.5 835L1111.5 838L1125.5 646.5Z" fill="white"/>
<path d="M1114.35 648C1112.53 713.625 1109.39 763.325 1104.5 816.5C1103.68 825.417 1103.68 827.082 1102.52 835.5" stroke="#55B6DF" stroke-width="10"/>
<path d="M751.5 1112.5H868.5C930 1112.5 1068.5 1061 1100 853.5" stroke="#55B6DF" stroke-width="10"/>
<rect width="111" height="20" transform="translate(17 0.5)" fill="white"/>
<path d="M18 10.5H127" stroke="#55B6DF" stroke-width="10"/>
<rect width="76" height="20" transform="translate(167 0.5)" fill="white"/>
<path d="M168 10.5H242" stroke="#55B6DF" stroke-width="10"/>
<rect width="76" height="20" transform="translate(311 0.5)" fill="white"/>
<path d="M312 10.5H386" stroke="#55B6DF" stroke-width="10"/>
<rect width="170" height="20" transform="translate(563 1102.5)" fill="white"/>
<path d="M564 1112.5H732" stroke="#55B6DF" stroke-width="10"/>
<rect width="97" height="20" transform="translate(376 1102.5)" fill="white"/>
<path d="M377 1112.5L472 1112.5" stroke="#55B6DF" stroke-width="10"/>
<rect width="68" height="20" transform="translate(298 1102.5)" fill="white"/>
<path d="M299 1112.5L365 1112.5" stroke="#55B6DF" stroke-width="10"/>
<rect width="45" height="20" transform="translate(191 1102.5)" fill="white"/>
<path d="M192 1112.5H235" stroke="#55B6DF" stroke-width="10"/>
<path d="M751 1106L751 1118" stroke="white"/>
<path d="M1095 853L1107 855" stroke="white"/>
<rect width="99" height="20" transform="translate(435 0.5)" fill="white"/>
<path d="M436 10.5H533" stroke="#55B6DF" stroke-width="10"/>
<rect width="99" height="20" transform="translate(575 0.5)" fill="white"/>
<path d="M576 10.5H673" stroke="#55B6DF" stroke-width="10"/>
<rect width="96" height="20" transform="translate(715 0.5)" fill="white"/>
<path d="M716 10.5H810" stroke="#55B6DF" stroke-width="10"/>
<rect width="87" height="20" transform="translate(918 0.5)" fill="white"/>
<path d="M919 10.5L1004 10.5" stroke="#55B6DF" stroke-width="10"/>
<path d="M691.5 9V384M691.5 384H832.5M691.5 384H544.5V414.5H507.5M832.5 384V304H861M832.5 384V570.5H772.5M927.5 304V206.5H1112.5M927.5 304V570.5H1066V597.5H1112.5M927.5 304H904M417.5 9V161L386 206.5C385.592 225.51 385.151 248.754 384.747 274M386 414.5H507.5M507.5 570.5V414.5M507.5 570.5H730M507.5 570.5H500M507.5 414.5V384H465.5V410M384.747 274H275.5M384.747 274C384.448 292.703 384.17 315.505 383.942 335.5M11 274H137.5M137.5 274H275.5M137.5 274V236.5M137.5 9V194.5M275.5 274V543H307.5L305.5 618C300 639 274.874 685 206 685C125.5 685 42.6667 686.333 4 685M458.5 570.5H449C430 570.667 390.8 562.5 386 528.5C383.53 511.003 383.072 443.91 383.483 377" stroke="black" stroke-width="10"/>
<rect x="506" y="709" width="34" height="84" rx="17" fill="#FF894A" fill-opacity="0.4"/>
<path d="M526.918 743.455V758H524.716V745.656H524.631L521.151 747.929V745.827L524.78 743.455H526.918Z" fill="black"/>
<rect x="694" y="709" width="34" height="84" rx="17" fill="#FF894A" fill-opacity="0.4"/>
<path d="M714.918 743.455V758H712.716V745.656H712.631L709.151 747.929V745.827L712.78 743.455H714.918Z" fill="black"/>
<rect x="923" y="157" width="184" height="40" rx="20" fill="#FF894A" fill-opacity="0.4"/>
<path d="M974.389 184L980.739 171.443V171.337H973.395V169.455H983.011V171.401L976.683 184H974.389Z" fill="black"/>
<path d="M1050.98 184.199C1050.33 184.189 1049.69 184.071 1049.06 183.844C1048.43 183.616 1047.87 183.238 1047.36 182.707C1046.84 182.177 1046.43 181.464 1046.13 180.57C1045.82 179.675 1045.67 178.557 1045.67 177.217C1045.67 175.948 1045.8 174.821 1046.05 173.837C1046.3 172.852 1046.67 172.021 1047.15 171.344C1047.63 170.662 1048.21 170.143 1048.88 169.788C1049.56 169.433 1050.32 169.256 1051.16 169.256C1052.03 169.256 1052.8 169.426 1053.47 169.767C1054.14 170.108 1054.69 170.579 1055.1 171.18C1055.53 171.782 1055.79 172.466 1055.91 173.233H1053.74C1053.59 172.627 1053.3 172.132 1052.87 171.749C1052.43 171.365 1051.86 171.173 1051.16 171.173C1050.1 171.173 1049.27 171.637 1048.67 172.565C1048.08 173.493 1047.78 174.784 1047.77 176.436H1047.88C1048.13 176.024 1048.44 175.674 1048.8 175.385C1049.17 175.091 1049.59 174.866 1050.04 174.71C1050.5 174.549 1050.98 174.469 1051.49 174.469C1052.33 174.469 1053.09 174.675 1053.78 175.087C1054.46 175.494 1055.01 176.057 1055.42 176.777C1055.82 177.497 1056.03 178.321 1056.03 179.249C1056.03 180.177 1055.82 181.017 1055.39 181.77C1054.98 182.523 1054.39 183.119 1053.63 183.56C1052.88 183.995 1051.99 184.208 1050.98 184.199ZM1050.97 182.352C1051.53 182.352 1052.03 182.215 1052.47 181.94C1052.91 181.666 1053.26 181.296 1053.51 180.832C1053.77 180.368 1053.9 179.85 1053.9 179.277C1053.9 178.718 1053.77 178.209 1053.52 177.75C1053.27 177.291 1052.93 176.926 1052.5 176.656C1052.07 176.386 1051.57 176.251 1051.02 176.251C1050.6 176.251 1050.21 176.332 1049.85 176.493C1049.49 176.654 1049.18 176.876 1048.91 177.161C1048.64 177.445 1048.43 177.771 1048.27 178.141C1048.12 178.505 1048.04 178.891 1048.04 179.298C1048.04 179.843 1048.17 180.347 1048.42 180.811C1048.68 181.275 1049.02 181.649 1049.46 181.933C1049.91 182.213 1050.41 182.352 1050.97 182.352Z" fill="black"/>
<rect x="589" y="1061" width="84" height="40" rx="20" fill="#FF894A" fill-opacity="0.4"/>
<path d="M625.094 1085.16V1083.38L631.379 1073.45H632.778V1076.07H631.891L627.395 1083.18V1083.3H636.01V1085.16H625.094ZM631.99 1088V1084.62L632.004 1083.81V1073.45H634.085V1088H631.99Z" fill="black"/>
<rect x="883" y="855" width="80" height="40" rx="20" fill="#FF894A" fill-opacity="0.4"/>
<path d="M924.918 867.455V882H922.716V869.656H922.631L919.151 871.929V869.827L922.78 867.455H924.918Z" fill="black"/>
<rect x="507" y="21" width="73" height="40" rx="20" fill="#FF894A" fill-opacity="0.4"/>
<path d="M538.399 48V46.4091L543.321 41.3097C543.847 40.7557 544.28 40.2704 544.621 39.8537C544.966 39.4323 545.224 39.0322 545.395 38.6534C545.565 38.2746 545.651 37.8722 545.651 37.446C545.651 36.9631 545.537 36.5464 545.31 36.196C545.082 35.8409 544.772 35.5687 544.379 35.3793C543.986 35.1851 543.544 35.0881 543.051 35.0881C542.53 35.0881 542.076 35.1946 541.688 35.4077C541.299 35.6207 541.001 35.9214 540.793 36.3097C540.584 36.6979 540.48 37.1525 540.48 37.6733H538.385C538.385 36.7879 538.589 36.0137 538.996 35.3509C539.403 34.688 539.962 34.1742 540.672 33.8097C541.382 33.4403 542.189 33.2557 543.094 33.2557C544.008 33.2557 544.813 33.438 545.509 33.8026C546.209 34.1624 546.756 34.6548 547.149 35.2798C547.542 35.9001 547.739 36.6009 547.739 37.3821C547.739 37.9219 547.637 38.4498 547.433 38.9659C547.234 39.482 546.886 40.0573 546.389 40.6918C545.892 41.3215 545.201 42.0862 544.315 42.9858L541.425 46.0114V46.1179H547.973V48H538.399Z" fill="black"/>
<rect x="527" y="221" width="74" height="40" rx="20" fill="#FF894A" fill-opacity="0.4"/>
<path d="M558.094 245.159V243.384L564.379 233.455H565.778V236.068H564.891L560.395 243.185V243.298H569.01V245.159H558.094ZM564.99 248V244.619L565.004 243.81V233.455H567.085V248H564.99Z" fill="black"/>
<rect x="545" y="330" width="73" height="40" rx="20" fill="#FF894A" fill-opacity="0.4"/>
<path d="M581.477 357.199C580.829 357.189 580.189 357.071 579.56 356.844C578.935 356.616 578.366 356.238 577.855 355.707C577.344 355.177 576.934 354.464 576.626 353.57C576.323 352.675 576.172 351.557 576.172 350.217C576.172 348.948 576.297 347.821 576.548 346.837C576.804 345.852 577.171 345.021 577.649 344.344C578.127 343.662 578.705 343.143 579.382 342.788C580.059 342.433 580.819 342.256 581.662 342.256C582.528 342.256 583.298 342.426 583.97 342.767C584.643 343.108 585.187 343.579 585.604 344.18C586.025 344.782 586.293 345.466 586.406 346.233H584.24C584.093 345.627 583.802 345.132 583.366 344.749C582.931 344.365 582.363 344.173 581.662 344.173C580.597 344.173 579.766 344.637 579.169 345.565C578.577 346.493 578.279 347.784 578.274 349.436H578.381C578.632 349.024 578.939 348.674 579.304 348.385C579.673 348.091 580.085 347.866 580.54 347.71C580.999 347.549 581.482 347.469 581.989 347.469C582.831 347.469 583.594 347.675 584.276 348.087C584.962 348.494 585.509 349.057 585.916 349.777C586.323 350.497 586.527 351.321 586.527 352.249C586.527 353.177 586.316 354.017 585.895 354.77C585.478 355.523 584.891 356.119 584.134 356.56C583.376 356.995 582.491 357.208 581.477 357.199ZM581.47 355.352C582.029 355.352 582.528 355.215 582.969 354.94C583.409 354.666 583.757 354.296 584.013 353.832C584.268 353.368 584.396 352.85 584.396 352.277C584.396 351.718 584.271 351.209 584.02 350.75C583.774 350.291 583.433 349.926 582.997 349.656C582.566 349.386 582.074 349.251 581.52 349.251C581.098 349.251 580.708 349.332 580.348 349.493C579.993 349.654 579.68 349.876 579.411 350.161C579.141 350.445 578.928 350.771 578.771 351.141C578.62 351.505 578.544 351.891 578.544 352.298C578.544 352.843 578.67 353.347 578.92 353.811C579.176 354.275 579.524 354.649 579.964 354.933C580.41 355.213 580.911 355.352 581.47 355.352Z" fill="black"/>
<rect x="843" y="21" width="153" height="40" rx="20" fill="#FF894A" fill-opacity="0.4"/>
<path d="M919.2 48.1989C918.31 48.1989 917.51 48.0284 916.8 47.6875C916.094 47.3419 915.531 46.8684 915.109 46.267C914.688 45.6657 914.463 44.9792 914.435 44.2074H916.565C916.617 44.8324 916.894 45.3461 917.396 45.7486C917.898 46.151 918.5 46.3523 919.2 46.3523C919.759 46.3523 920.254 46.2244 920.685 45.9688C921.12 45.7083 921.461 45.3509 921.707 44.8963C921.958 44.4418 922.084 43.9233 922.084 43.3409C922.084 42.7491 921.956 42.2211 921.7 41.7571C921.445 41.2931 921.092 40.9285 920.642 40.6634C920.197 40.3982 919.686 40.2633 919.108 40.2585C918.668 40.2585 918.225 40.3343 917.78 40.4858C917.335 40.6373 916.975 40.8362 916.7 41.0824L914.69 40.7841L915.507 33.4545H923.504V35.3366H917.332L916.871 39.4062H916.956C917.24 39.1316 917.616 38.902 918.085 38.7173C918.559 38.5327 919.065 38.4403 919.605 38.4403C920.491 38.4403 921.279 38.651 921.97 39.0724C922.666 39.4938 923.213 40.0691 923.611 40.7983C924.013 41.5227 924.212 42.3561 924.207 43.2983C924.212 44.2405 923.999 45.081 923.568 45.8196C923.142 46.5582 922.55 47.1406 921.793 47.5668C921.04 47.9882 920.176 48.1989 919.2 48.1989Z" fill="black"/>
<rect x="506" y="870" width="37" height="84" rx="18.5" fill="#FF894A" fill-opacity="0.4"/>
<path d="M521.399 919V917.409L526.321 912.31C526.847 911.756 527.28 911.27 527.621 910.854C527.966 910.432 528.224 910.032 528.395 909.653C528.565 909.275 528.651 908.872 528.651 908.446C528.651 907.963 528.537 907.546 528.31 907.196C528.082 906.841 527.772 906.569 527.379 906.379C526.986 906.185 526.544 906.088 526.051 906.088C525.53 906.088 525.076 906.195 524.688 906.408C524.299 906.621 524.001 906.921 523.793 907.31C523.584 907.698 523.48 908.152 523.48 908.673H521.385C521.385 907.788 521.589 907.014 521.996 906.351C522.403 905.688 522.962 905.174 523.672 904.81C524.382 904.44 525.189 904.256 526.094 904.256C527.008 904.256 527.813 904.438 528.509 904.803C529.209 905.162 529.756 905.655 530.149 906.28C530.542 906.9 530.739 907.601 530.739 908.382C530.739 908.922 530.637 909.45 530.433 909.966C530.234 910.482 529.886 911.057 529.389 911.692C528.892 912.321 528.201 913.086 527.315 913.986L524.425 917.011V917.118H530.973V919H521.399Z" fill="black"/>
<rect x="694" y="842" width="37" height="84" rx="18.5" fill="#FF894A" fill-opacity="0.4"/>
<path d="M709.399 891V889.409L714.321 884.31C714.847 883.756 715.28 883.27 715.621 882.854C715.966 882.432 716.224 882.032 716.395 881.653C716.565 881.275 716.651 880.872 716.651 880.446C716.651 879.963 716.537 879.546 716.31 879.196C716.082 878.841 715.772 878.569 715.379 878.379C714.986 878.185 714.544 878.088 714.051 878.088C713.53 878.088 713.076 878.195 712.688 878.408C712.299 878.621 712.001 878.921 711.793 879.31C711.584 879.698 711.48 880.152 711.48 880.673H709.385C709.385 879.788 709.589 879.014 709.996 878.351C710.403 877.688 710.962 877.174 711.672 876.81C712.382 876.44 713.189 876.256 714.094 876.256C715.008 876.256 715.813 876.438 716.509 876.803C717.209 877.162 717.756 877.655 718.149 878.28C718.542 878.9 718.739 879.601 718.739 880.382C718.739 880.922 718.637 881.45 718.433 881.966C718.234 882.482 717.886 883.057 717.389 883.692C716.892 884.321 716.201 885.086 715.315 885.986L712.425 889.011V889.118H718.973V891H709.399Z" fill="black"/>
<rect x="506" y="984" width="37" height="84" rx="18.5" fill="#FF894A" fill-opacity="0.4"/>
<path d="M526.463 1033.2C525.488 1033.2 524.616 1033.03 523.849 1032.69C523.087 1032.36 522.483 1031.89 522.038 1031.3C521.598 1030.69 521.361 1030 521.328 1029.21H523.558C523.587 1029.64 523.731 1030.01 523.991 1030.33C524.257 1030.64 524.602 1030.88 525.028 1031.05C525.455 1031.22 525.928 1031.31 526.449 1031.31C527.022 1031.31 527.528 1031.21 527.969 1031.01C528.414 1030.81 528.762 1030.54 529.013 1030.18C529.264 1029.82 529.389 1029.41 529.389 1028.94C529.389 1028.45 529.264 1028.02 529.013 1027.65C528.767 1027.28 528.404 1026.98 527.926 1026.77C527.453 1026.56 526.88 1026.45 526.207 1026.45H524.979V1024.66H526.207C526.747 1024.66 527.221 1024.56 527.628 1024.37C528.04 1024.18 528.362 1023.91 528.594 1023.56C528.826 1023.21 528.942 1022.8 528.942 1022.33C528.942 1021.88 528.84 1021.49 528.636 1021.16C528.438 1020.82 528.153 1020.56 527.784 1020.37C527.42 1020.18 526.989 1020.09 526.491 1020.09C526.018 1020.09 525.575 1020.18 525.163 1020.35C524.756 1020.52 524.425 1020.77 524.169 1021.09C523.913 1021.41 523.776 1021.79 523.757 1022.23H521.634C521.657 1021.45 521.889 1020.76 522.33 1020.16C522.775 1019.56 523.362 1019.1 524.091 1018.76C524.82 1018.42 525.63 1018.26 526.52 1018.26C527.453 1018.26 528.258 1018.44 528.935 1018.8C529.616 1019.16 530.142 1019.64 530.511 1020.24C530.885 1020.85 531.07 1021.5 531.065 1022.22C531.07 1023.03 530.843 1023.72 530.384 1024.29C529.929 1024.86 529.323 1025.24 528.565 1025.44V1025.55C529.531 1025.7 530.279 1026.08 530.81 1026.7C531.345 1027.32 531.61 1028.09 531.605 1029.01C531.61 1029.81 531.387 1030.53 530.938 1031.16C530.492 1031.79 529.884 1032.29 529.112 1032.66C528.34 1033.02 527.457 1033.2 526.463 1033.2Z" fill="black"/>
<rect x="693" y="1019" width="37" height="84" rx="18.5" fill="#FF894A" fill-opacity="0.4"/>
<path d="M713.463 1068.2C712.488 1068.2 711.616 1068.03 710.849 1067.69C710.087 1067.36 709.483 1066.89 709.038 1066.3C708.598 1065.69 708.361 1065 708.328 1064.21H710.558C710.587 1064.64 710.731 1065.01 710.991 1065.33C711.257 1065.64 711.602 1065.88 712.028 1066.05C712.455 1066.22 712.928 1066.31 713.449 1066.31C714.022 1066.31 714.528 1066.21 714.969 1066.01C715.414 1065.81 715.762 1065.54 716.013 1065.18C716.264 1064.82 716.389 1064.41 716.389 1063.94C716.389 1063.45 716.264 1063.02 716.013 1062.65C715.767 1062.28 715.404 1061.98 714.926 1061.77C714.453 1061.56 713.88 1061.45 713.207 1061.45H711.979V1059.66H713.207C713.747 1059.66 714.221 1059.56 714.628 1059.37C715.04 1059.18 715.362 1058.91 715.594 1058.56C715.826 1058.21 715.942 1057.8 715.942 1057.33C715.942 1056.88 715.84 1056.49 715.636 1056.16C715.438 1055.82 715.153 1055.56 714.784 1055.37C714.42 1055.18 713.989 1055.09 713.491 1055.09C713.018 1055.09 712.575 1055.18 712.163 1055.35C711.756 1055.52 711.425 1055.77 711.169 1056.09C710.913 1056.41 710.776 1056.79 710.757 1057.23H708.634C708.657 1056.45 708.889 1055.76 709.33 1055.16C709.775 1054.56 710.362 1054.1 711.091 1053.76C711.82 1053.42 712.63 1053.26 713.52 1053.26C714.453 1053.26 715.258 1053.44 715.935 1053.8C716.616 1054.16 717.142 1054.64 717.511 1055.24C717.885 1055.85 718.07 1056.5 718.065 1057.22C718.07 1058.03 717.843 1058.72 717.384 1059.29C716.929 1059.86 716.323 1060.24 715.565 1060.44V1060.55C716.531 1060.7 717.279 1061.08 717.81 1061.7C718.345 1062.32 718.61 1063.09 718.605 1064.01C718.61 1064.81 718.387 1065.53 717.938 1066.16C717.492 1066.79 716.884 1067.29 716.112 1067.66C715.34 1068.02 714.457 1068.2 713.463 1068.2Z" fill="black"/>
<rect x="752" y="956" width="38" height="84" rx="19" fill="#FF894A" fill-opacity="0.4"/>
<path d="M767.094 1002.16V1000.38L773.379 990.455H774.778V993.068H773.891L769.395 1000.18V1000.3H778.01V1002.16H767.094ZM773.99 1005V1001.62L774.004 1000.81V990.455H776.085V1005H773.99Z" fill="black"/>
<rect x="866" y="1012" width="37" height="84" rx="18.5" fill="#FF894A" fill-opacity="0.4"/>
<path d="M886.463 1061.2C885.488 1061.2 884.616 1061.03 883.849 1060.69C883.087 1060.36 882.483 1059.89 882.038 1059.3C881.598 1058.69 881.361 1058 881.328 1057.21H883.558C883.587 1057.64 883.731 1058.01 883.991 1058.33C884.257 1058.64 884.602 1058.88 885.028 1059.05C885.455 1059.22 885.928 1059.31 886.449 1059.31C887.022 1059.31 887.528 1059.21 887.969 1059.01C888.414 1058.81 888.762 1058.54 889.013 1058.18C889.264 1057.82 889.389 1057.41 889.389 1056.94C889.389 1056.45 889.264 1056.02 889.013 1055.65C888.767 1055.28 888.404 1054.98 887.926 1054.77C887.453 1054.56 886.88 1054.45 886.207 1054.45H884.979V1052.66H886.207C886.747 1052.66 887.221 1052.56 887.628 1052.37C888.04 1052.18 888.362 1051.91 888.594 1051.56C888.826 1051.21 888.942 1050.8 888.942 1050.33C888.942 1049.88 888.84 1049.49 888.636 1049.16C888.438 1048.82 888.153 1048.56 887.784 1048.37C887.42 1048.18 886.989 1048.09 886.491 1048.09C886.018 1048.09 885.575 1048.18 885.163 1048.35C884.756 1048.52 884.425 1048.77 884.169 1049.09C883.913 1049.41 883.776 1049.79 883.757 1050.23H881.634C881.657 1049.45 881.889 1048.76 882.33 1048.16C882.775 1047.56 883.362 1047.1 884.091 1046.76C884.82 1046.42 885.63 1046.26 886.52 1046.26C887.453 1046.26 888.258 1046.44 888.935 1046.8C889.616 1047.16 890.142 1047.64 890.511 1048.24C890.885 1048.85 891.07 1049.5 891.065 1050.22C891.07 1051.03 890.843 1051.72 890.384 1052.29C889.929 1052.86 889.323 1053.24 888.565 1053.44V1053.55C889.531 1053.7 890.279 1054.08 890.81 1054.7C891.345 1055.32 891.61 1056.09 891.605 1057.01C891.61 1057.81 891.387 1058.53 890.938 1059.16C890.492 1059.79 889.884 1060.29 889.112 1060.66C888.34 1061.02 887.457 1061.2 886.463 1061.2Z" fill="black"/>
<rect x="996" y="855" width="37" height="84" rx="18.5" fill="#FF894A" fill-opacity="0.4"/>
<path d="M1011.4 904V902.409L1016.32 897.31C1016.85 896.756 1017.28 896.27 1017.62 895.854C1017.97 895.432 1018.22 895.032 1018.39 894.653C1018.57 894.275 1018.65 893.872 1018.65 893.446C1018.65 892.963 1018.54 892.546 1018.31 892.196C1018.08 891.841 1017.77 891.569 1017.38 891.379C1016.99 891.185 1016.54 891.088 1016.05 891.088C1015.53 891.088 1015.08 891.195 1014.69 891.408C1014.3 891.621 1014 891.921 1013.79 892.31C1013.58 892.698 1013.48 893.152 1013.48 893.673H1011.38C1011.38 892.788 1011.59 892.014 1012 891.351C1012.4 890.688 1012.96 890.174 1013.67 889.81C1014.38 889.44 1015.19 889.256 1016.09 889.256C1017.01 889.256 1017.81 889.438 1018.51 889.803C1019.21 890.162 1019.76 890.655 1020.15 891.28C1020.54 891.9 1020.74 892.601 1020.74 893.382C1020.74 893.922 1020.64 894.45 1020.43 894.966C1020.23 895.482 1019.89 896.057 1019.39 896.692C1018.89 897.321 1018.2 898.086 1017.32 898.986L1014.42 902.011V902.118H1020.97V904H1011.4Z" fill="black"/>
<rect x="384" y="788" width="37" height="84" rx="18.5" fill="#FF894A" fill-opacity="0.4"/>
<path d="M404.477 837.199C403.829 837.189 403.189 837.071 402.56 836.844C401.935 836.616 401.366 836.238 400.855 835.707C400.344 835.177 399.934 834.464 399.626 833.57C399.323 832.675 399.172 831.557 399.172 830.217C399.172 828.948 399.297 827.821 399.548 826.837C399.804 825.852 400.171 825.021 400.649 824.344C401.127 823.662 401.705 823.143 402.382 822.788C403.059 822.433 403.819 822.256 404.662 822.256C405.528 822.256 406.298 822.426 406.97 822.767C407.643 823.108 408.187 823.579 408.604 824.18C409.025 824.782 409.293 825.466 409.406 826.233H407.24C407.093 825.627 406.802 825.132 406.366 824.749C405.931 824.365 405.363 824.173 404.662 824.173C403.597 824.173 402.766 824.637 402.169 825.565C401.577 826.493 401.279 827.784 401.274 829.436H401.381C401.632 829.024 401.939 828.674 402.304 828.385C402.673 828.091 403.085 827.866 403.54 827.71C403.999 827.549 404.482 827.469 404.989 827.469C405.831 827.469 406.594 827.675 407.276 828.087C407.962 828.494 408.509 829.057 408.916 829.777C409.323 830.497 409.527 831.321 409.527 832.249C409.527 833.177 409.316 834.017 408.895 834.77C408.478 835.523 407.891 836.119 407.134 836.56C406.376 836.995 405.491 837.208 404.477 837.199ZM404.47 835.352C405.029 835.352 405.528 835.215 405.969 834.94C406.409 834.666 406.757 834.296 407.013 833.832C407.268 833.368 407.396 832.85 407.396 832.277C407.396 831.718 407.271 831.209 407.02 830.75C406.774 830.291 406.433 829.926 405.997 829.656C405.566 829.386 405.074 829.251 404.52 829.251C404.098 829.251 403.708 829.332 403.348 829.493C402.993 829.654 402.68 829.876 402.411 830.161C402.141 830.445 401.928 830.771 401.771 831.141C401.62 831.505 401.544 831.891 401.544 832.298C401.544 832.843 401.67 833.347 401.92 833.811C402.176 834.275 402.524 834.649 402.964 834.933C403.41 835.213 403.911 835.352 404.47 835.352Z" fill="black"/>
<rect x="566" y="709" width="37" height="84" rx="18.5" fill="#FF894A" fill-opacity="0.4"/>
<path d="M586.477 758.199C585.829 758.189 585.189 758.071 584.56 757.844C583.935 757.616 583.366 757.238 582.855 756.707C582.344 756.177 581.934 755.464 581.626 754.57C581.323 753.675 581.172 752.557 581.172 751.217C581.172 749.948 581.297 748.821 581.548 747.837C581.804 746.852 582.171 746.021 582.649 745.344C583.127 744.662 583.705 744.143 584.382 743.788C585.059 743.433 585.819 743.256 586.662 743.256C587.528 743.256 588.298 743.426 588.97 743.767C589.643 744.108 590.187 744.579 590.604 745.18C591.025 745.782 591.293 746.466 591.406 747.233H589.24C589.093 746.627 588.802 746.132 588.366 745.749C587.931 745.365 587.363 745.173 586.662 745.173C585.597 745.173 584.766 745.637 584.169 746.565C583.577 747.493 583.279 748.784 583.274 750.436H583.381C583.632 750.024 583.939 749.674 584.304 749.385C584.673 749.091 585.085 748.866 585.54 748.71C585.999 748.549 586.482 748.469 586.989 748.469C587.831 748.469 588.594 748.675 589.276 749.087C589.962 749.494 590.509 750.057 590.916 750.777C591.323 751.497 591.527 752.321 591.527 753.249C591.527 754.177 591.316 755.017 590.895 755.77C590.478 756.523 589.891 757.119 589.134 757.56C588.376 757.995 587.491 758.208 586.477 758.199ZM586.47 756.352C587.029 756.352 587.528 756.215 587.969 755.94C588.409 755.666 588.757 755.296 589.013 754.832C589.268 754.368 589.396 753.85 589.396 753.277C589.396 752.718 589.271 752.209 589.02 751.75C588.774 751.291 588.433 750.926 587.997 750.656C587.566 750.386 587.074 750.251 586.52 750.251C586.098 750.251 585.708 750.332 585.348 750.493C584.993 750.654 584.68 750.876 584.411 751.161C584.141 751.445 583.928 751.771 583.771 752.141C583.62 752.505 583.544 752.891 583.544 753.298C583.544 753.843 583.67 754.347 583.92 754.811C584.176 755.275 584.524 755.649 584.964 755.933C585.41 756.213 585.911 756.352 586.47 756.352Z" fill="black"/>
<rect x="703" y="21" width="38" height="84" rx="19" fill="#FF894A" fill-opacity="0.4"/>
<path d="M718.094 67.1591V65.3835L724.379 55.4545H725.778V58.0682H724.891L720.395 65.1847V65.2983H729.01V67.1591H718.094ZM724.99 70V66.6193L725.004 65.8097V55.4545H727.085V70H724.99Z" fill="black"/>
<rect x="431" y="64" width="34" height="84" rx="17" fill="#FF894A" fill-opacity="0.4"/>
<path d="M451.918 98.4545V113H449.716V100.656H449.631L446.151 102.929V100.827L449.78 98.4545H451.918Z" fill="black"/>
<rect x="642" y="21" width="37" height="84" rx="18.5" fill="#FF894A" fill-opacity="0.4"/>
<path d="M662.463 70.1989C661.488 70.1989 660.616 70.0308 659.849 69.6946C659.087 69.3584 658.483 68.892 658.038 68.2955C657.598 67.6941 657.361 66.9981 657.328 66.2074H659.558C659.587 66.6383 659.731 67.0123 659.991 67.3295C660.257 67.642 660.602 67.8835 661.028 68.054C661.455 68.2244 661.928 68.3097 662.449 68.3097C663.022 68.3097 663.528 68.2102 663.969 68.0114C664.414 67.8125 664.762 67.5355 665.013 67.1804C665.264 66.8205 665.389 66.4062 665.389 65.9375C665.389 65.4498 665.264 65.0213 665.013 64.652C664.767 64.2779 664.404 63.9844 663.926 63.7713C663.453 63.5582 662.88 63.4517 662.207 63.4517H660.979V61.6619H662.207C662.747 61.6619 663.221 61.5649 663.628 61.3707C664.04 61.1766 664.362 60.9067 664.594 60.5611C664.826 60.2107 664.942 59.8011 664.942 59.3324C664.942 58.8826 664.84 58.492 664.636 58.1605C664.438 57.8243 664.153 57.5616 663.784 57.3722C663.42 57.1828 662.989 57.0881 662.491 57.0881C662.018 57.0881 661.575 57.1757 661.163 57.3509C660.756 57.5213 660.425 57.7675 660.169 58.0895C659.913 58.4067 659.776 58.7879 659.757 59.233H657.634C657.657 58.447 657.889 57.7557 658.33 57.1591C658.775 56.5625 659.362 56.0961 660.091 55.7599C660.82 55.4238 661.63 55.2557 662.52 55.2557C663.453 55.2557 664.258 55.438 664.935 55.8026C665.616 56.1624 666.142 56.643 666.511 57.2443C666.885 57.8456 667.07 58.5038 667.065 59.2188C667.07 60.0331 666.843 60.7244 666.384 61.2926C665.929 61.8608 665.323 62.242 664.565 62.4361V62.5497C665.531 62.6965 666.279 63.08 666.81 63.7003C667.345 64.3205 667.61 65.09 667.605 66.0085C667.61 66.8087 667.387 67.526 666.938 68.1605C666.492 68.795 665.884 69.2945 665.112 69.6591C664.34 70.0189 663.457 70.1989 662.463 70.1989Z" fill="black"/>
<rect x="643" y="294" width="37" height="84" rx="18.5" fill="#FF894A" fill-opacity="0.4"/>
<path d="M663.2 343.199C662.31 343.199 661.51 343.028 660.8 342.688C660.094 342.342 659.531 341.868 659.109 341.267C658.688 340.666 658.463 339.979 658.435 339.207H660.565C660.617 339.832 660.894 340.346 661.396 340.749C661.898 341.151 662.5 341.352 663.2 341.352C663.759 341.352 664.254 341.224 664.685 340.969C665.12 340.708 665.461 340.351 665.707 339.896C665.958 339.442 666.084 338.923 666.084 338.341C666.084 337.749 665.956 337.221 665.7 336.757C665.445 336.293 665.092 335.929 664.642 335.663C664.197 335.398 663.686 335.263 663.108 335.259C662.668 335.259 662.225 335.334 661.78 335.486C661.335 335.637 660.975 335.836 660.7 336.082L658.69 335.784L659.507 328.455H667.504V330.337H661.332L660.871 334.406H660.956C661.24 334.132 661.616 333.902 662.085 333.717C662.559 333.533 663.065 333.44 663.605 333.44C664.491 333.44 665.279 333.651 665.97 334.072C666.666 334.494 667.213 335.069 667.611 335.798C668.013 336.523 668.212 337.356 668.207 338.298C668.212 339.241 667.999 340.081 667.568 340.82C667.142 341.558 666.55 342.141 665.793 342.567C665.04 342.988 664.176 343.199 663.2 343.199Z" fill="black"/>
<rect x="384" y="894" width="37" height="84" rx="18.5" fill="#FF894A" fill-opacity="0.4"/>
<path d="M404.2 943.199C403.31 943.199 402.51 943.028 401.8 942.688C401.094 942.342 400.531 941.868 400.109 941.267C399.688 940.666 399.463 939.979 399.435 939.207H401.565C401.617 939.832 401.894 940.346 402.396 940.749C402.898 941.151 403.5 941.352 404.2 941.352C404.759 941.352 405.254 941.224 405.685 940.969C406.12 940.708 406.461 940.351 406.707 939.896C406.958 939.442 407.084 938.923 407.084 938.341C407.084 937.749 406.956 937.221 406.7 936.757C406.445 936.293 406.092 935.929 405.642 935.663C405.197 935.398 404.686 935.263 404.108 935.259C403.668 935.259 403.225 935.334 402.78 935.486C402.335 935.637 401.975 935.836 401.7 936.082L399.69 935.784L400.507 928.455H408.504V930.337H402.332L401.871 934.406H401.956C402.24 934.132 402.616 933.902 403.085 933.717C403.559 933.533 404.065 933.44 404.605 933.44C405.491 933.44 406.279 933.651 406.97 934.072C407.666 934.494 408.213 935.069 408.611 935.798C409.013 936.523 409.212 937.356 409.207 938.298C409.212 939.241 408.999 940.081 408.568 940.82C408.142 941.558 407.55 942.141 406.793 942.567C406.04 942.988 405.176 943.199 404.2 943.199Z" fill="black"/>
<rect x="567" y="928" width="37" height="84" rx="18.5" fill="#FF894A" fill-opacity="0.4"/>
<path d="M587.2 977.199C586.31 977.199 585.51 977.028 584.8 976.688C584.094 976.342 583.531 975.868 583.109 975.267C582.688 974.666 582.463 973.979 582.435 973.207H584.565C584.617 973.832 584.894 974.346 585.396 974.749C585.898 975.151 586.5 975.352 587.2 975.352C587.759 975.352 588.254 975.224 588.685 974.969C589.12 974.708 589.461 974.351 589.707 973.896C589.958 973.442 590.084 972.923 590.084 972.341C590.084 971.749 589.956 971.221 589.7 970.757C589.445 970.293 589.092 969.929 588.642 969.663C588.197 969.398 587.686 969.263 587.108 969.259C586.668 969.259 586.225 969.334 585.78 969.486C585.335 969.637 584.975 969.836 584.7 970.082L582.69 969.784L583.507 962.455H591.504V964.337H585.332L584.871 968.406H584.956C585.24 968.132 585.616 967.902 586.085 967.717C586.559 967.533 587.065 967.44 587.605 967.44C588.491 967.44 589.279 967.651 589.97 968.072C590.666 968.494 591.213 969.069 591.611 969.798C592.013 970.523 592.212 971.356 592.207 972.298C592.212 973.241 591.999 974.081 591.568 974.82C591.142 975.558 590.55 976.141 589.793 976.567C589.04 976.988 588.176 977.199 587.2 977.199Z" fill="black"/>
<rect x="703" y="111" width="37" height="84" rx="18.5" fill="#FF894A" fill-opacity="0.4"/>
<path d="M723.463 160.199C722.488 160.199 721.616 160.031 720.849 159.695C720.087 159.358 719.483 158.892 719.038 158.295C718.598 157.694 718.361 156.998 718.328 156.207H720.558C720.587 156.638 720.731 157.012 720.991 157.33C721.257 157.642 721.602 157.884 722.028 158.054C722.455 158.224 722.928 158.31 723.449 158.31C724.022 158.31 724.528 158.21 724.969 158.011C725.414 157.812 725.762 157.536 726.013 157.18C726.264 156.821 726.389 156.406 726.389 155.938C726.389 155.45 726.264 155.021 726.013 154.652C725.767 154.278 725.404 153.984 724.926 153.771C724.453 153.558 723.88 153.452 723.207 153.452H721.979V151.662H723.207C723.747 151.662 724.221 151.565 724.628 151.371C725.04 151.177 725.362 150.907 725.594 150.561C725.826 150.211 725.942 149.801 725.942 149.332C725.942 148.883 725.84 148.492 725.636 148.161C725.438 147.824 725.153 147.562 724.784 147.372C724.42 147.183 723.989 147.088 723.491 147.088C723.018 147.088 722.575 147.176 722.163 147.351C721.756 147.521 721.425 147.768 721.169 148.089C720.913 148.407 720.776 148.788 720.757 149.233H718.634C718.657 148.447 718.889 147.756 719.33 147.159C719.775 146.562 720.362 146.096 721.091 145.76C721.82 145.424 722.63 145.256 723.52 145.256C724.453 145.256 725.258 145.438 725.935 145.803C726.616 146.162 727.142 146.643 727.511 147.244C727.885 147.846 728.07 148.504 728.065 149.219C728.07 150.033 727.843 150.724 727.384 151.293C726.929 151.861 726.323 152.242 725.565 152.436V152.55C726.531 152.696 727.279 153.08 727.81 153.7C728.345 154.321 728.61 155.09 728.605 156.009C728.61 156.809 728.387 157.526 727.938 158.161C727.492 158.795 726.884 159.295 726.112 159.659C725.34 160.019 724.457 160.199 723.463 160.199Z" fill="black"/>
<rect x="384" y="1013" width="38" height="84" rx="19" fill="#FF894A" fill-opacity="0.4"/>
<path d="M399.094 1059.16V1057.38L405.379 1047.45H406.778V1050.07H405.891L401.395 1057.18V1057.3H410.01V1059.16H399.094ZM405.99 1062V1058.62L406.004 1057.81V1047.45H408.085V1062H405.99Z" fill="black"/>
<rect x="703" y="201" width="37" height="84" rx="18.5" fill="#FF894A" fill-opacity="0.4"/>
<path d="M718.399 250V248.409L723.321 243.31C723.847 242.756 724.28 242.27 724.621 241.854C724.966 241.432 725.224 241.032 725.395 240.653C725.565 240.275 725.651 239.872 725.651 239.446C725.651 238.963 725.537 238.546 725.31 238.196C725.082 237.841 724.772 237.569 724.379 237.379C723.986 237.185 723.544 237.088 723.051 237.088C722.53 237.088 722.076 237.195 721.688 237.408C721.299 237.621 721.001 237.921 720.793 238.31C720.584 238.698 720.48 239.152 720.48 239.673H718.385C718.385 238.788 718.589 238.014 718.996 237.351C719.403 236.688 719.962 236.174 720.672 235.81C721.382 235.44 722.189 235.256 723.094 235.256C724.008 235.256 724.813 235.438 725.509 235.803C726.209 236.162 726.756 236.655 727.149 237.28C727.542 237.9 727.739 238.601 727.739 239.382C727.739 239.922 727.637 240.45 727.433 240.966C727.234 241.482 726.886 242.057 726.389 242.692C725.892 243.321 725.201 244.086 724.315 244.986L721.425 248.011V248.118H727.973V250H718.399Z" fill="black"/>
<rect x="703" y="291" width="34" height="84" rx="17" fill="#FF894A" fill-opacity="0.4"/>
<path d="M723.918 325.455V340H721.716V327.656H721.631L718.151 329.929V327.827L721.78 325.455H723.918Z" fill="black"/>
<circle cx="551" cy="116" r="25" fill="#EBE4FF"/>
<path d="M563.5 109.25V111.75C563.5 114.038 562.462 115.275 560.375 115.463C560.175 115.488 559.962 115.5 559.75 115.5H542.25C542.037 115.5 541.825 115.488 541.625 115.463C539.538 115.275 538.5 114.038 538.5 111.75V109.25C538.5 106.75 539.75 105.5 542.25 105.5H559.75C562.25 105.5 563.5 106.75 563.5 109.25ZM542.875 117.062C542.188 117.062 541.625 117.625 541.625 118.312V125.5C541.625 128 542.25 129.25 545.375 129.25H556.625C559.75 129.25 560.375 128 560.375 125.5V118.312C560.375 117.625 559.812 117.062 559.125 117.062H542.875ZM553.275 122.688H548.725C548.213 122.688 547.788 122.263 547.788 121.75C547.788 121.238 548.213 120.812 548.725 120.812H553.275C553.787 120.812 554.212 121.238 554.212 121.75C554.212 122.263 553.787 122.688 553.275 122.688Z" fill="#6F00FF"/>
<path d="M503.954 178H499.735L507.416 156.182H512.295L519.987 178H515.768L509.941 160.656H509.771L503.954 178ZM504.092 169.445H515.598V172.62H504.092V169.445ZM522.691 178V161.636H526.43V164.364H526.6C526.899 163.419 527.41 162.691 528.134 162.18C528.866 161.661 529.7 161.402 530.638 161.402C530.851 161.402 531.089 161.413 531.352 161.434C531.622 161.448 531.845 161.473 532.023 161.509V165.056C531.86 164.999 531.6 164.95 531.245 164.907C530.897 164.857 530.56 164.832 530.233 164.832C529.53 164.832 528.898 164.985 528.337 165.29C527.783 165.589 527.346 166.004 527.026 166.537C526.707 167.07 526.547 167.684 526.547 168.38V178H522.691ZM534.585 178V161.636H538.324V164.364H538.495C538.793 163.419 539.305 162.691 540.029 162.18C540.76 161.661 541.595 161.402 542.532 161.402C542.746 161.402 542.983 161.413 543.246 161.434C543.516 161.448 543.74 161.473 543.917 161.509V165.056C543.754 164.999 543.495 164.95 543.14 164.907C542.792 164.857 542.454 164.832 542.128 164.832C541.425 164.832 540.792 164.985 540.231 165.29C539.677 165.589 539.241 166.004 538.921 166.537C538.601 167.07 538.442 167.684 538.442 168.38V178H534.585ZM550.895 178.33C549.858 178.33 548.925 178.146 548.094 177.776C547.27 177.4 546.616 176.846 546.133 176.114C545.657 175.383 545.42 174.481 545.42 173.408C545.42 172.485 545.59 171.722 545.931 171.118C546.272 170.514 546.737 170.031 547.327 169.669C547.916 169.307 548.58 169.033 549.319 168.849C550.064 168.657 550.835 168.518 551.631 168.433C552.589 168.334 553.367 168.245 553.964 168.167C554.56 168.082 554.993 167.954 555.263 167.783C555.54 167.606 555.679 167.332 555.679 166.963V166.899C555.679 166.097 555.441 165.475 554.965 165.035C554.489 164.594 553.804 164.374 552.909 164.374C551.964 164.374 551.215 164.58 550.661 164.992C550.114 165.404 549.745 165.891 549.553 166.452L545.952 165.94C546.236 164.946 546.705 164.115 547.358 163.447C548.012 162.773 548.811 162.268 549.756 161.935C550.7 161.594 551.744 161.423 552.888 161.423C553.676 161.423 554.461 161.516 555.242 161.7C556.023 161.885 556.737 162.19 557.383 162.616C558.03 163.036 558.548 163.607 558.939 164.332C559.336 165.056 559.535 165.962 559.535 167.048V178H555.828V175.752H555.7C555.466 176.207 555.135 176.633 554.709 177.031C554.29 177.421 553.761 177.737 553.122 177.979C552.49 178.213 551.748 178.33 550.895 178.33ZM551.897 175.496C552.671 175.496 553.342 175.344 553.91 175.038C554.479 174.726 554.915 174.314 555.221 173.803C555.533 173.291 555.689 172.734 555.689 172.13V170.202C555.569 170.301 555.363 170.393 555.072 170.479C554.787 170.564 554.468 170.638 554.113 170.702C553.758 170.766 553.406 170.823 553.058 170.873C552.71 170.923 552.408 170.965 552.153 171.001C551.577 171.079 551.062 171.207 550.608 171.384C550.153 171.562 549.795 171.81 549.532 172.13C549.269 172.442 549.138 172.847 549.138 173.344C549.138 174.055 549.397 174.591 549.915 174.953C550.434 175.315 551.094 175.496 551.897 175.496ZM566.929 172.865L566.918 168.21H567.536L573.417 161.636H577.923L570.689 169.69H569.89L566.929 172.865ZM563.413 178V156.182H567.27V178H563.413ZM573.683 178L568.356 170.553L570.956 167.837L578.296 178H573.683ZM580.493 178V161.636H584.35V178H580.493ZM582.432 159.314C581.821 159.314 581.296 159.112 580.855 158.707C580.415 158.295 580.195 157.801 580.195 157.226C580.195 156.643 580.415 156.15 580.855 155.745C581.296 155.333 581.821 155.127 582.432 155.127C583.05 155.127 583.576 155.333 584.009 155.745C584.449 156.15 584.669 156.643 584.669 157.226C584.669 157.801 584.449 158.295 584.009 158.707C583.576 159.112 583.05 159.314 582.432 159.314ZM601.249 165.962L597.733 166.345C597.634 165.99 597.46 165.656 597.211 165.344C596.97 165.031 596.643 164.779 596.231 164.587C595.819 164.396 595.315 164.3 594.718 164.3C593.916 164.3 593.241 164.474 592.694 164.822C592.154 165.17 591.888 165.621 591.895 166.175C591.888 166.651 592.062 167.038 592.417 167.336C592.779 167.634 593.376 167.879 594.207 168.071L596.998 168.668C598.546 169.001 599.697 169.531 600.45 170.255C601.21 170.979 601.593 171.928 601.6 173.099C601.593 174.129 601.291 175.038 600.695 175.827C600.105 176.608 599.285 177.219 598.234 177.659C597.183 178.099 595.975 178.32 594.612 178.32C592.609 178.32 590.997 177.901 589.775 177.062C588.553 176.217 587.825 175.042 587.591 173.536L591.352 173.174C591.522 173.913 591.884 174.47 592.438 174.847C592.992 175.223 593.713 175.411 594.601 175.411C595.517 175.411 596.252 175.223 596.806 174.847C597.367 174.47 597.648 174.005 597.648 173.451C597.648 172.982 597.467 172.595 597.105 172.29C596.749 171.984 596.195 171.75 595.443 171.587L592.651 171.001C591.082 170.674 589.921 170.124 589.168 169.349C588.415 168.568 588.042 167.581 588.049 166.388C588.042 165.379 588.316 164.506 588.869 163.767C589.431 163.021 590.208 162.446 591.203 162.041C592.204 161.629 593.358 161.423 594.665 161.423C596.583 161.423 598.092 161.832 599.193 162.648C600.301 163.465 600.986 164.57 601.249 165.962Z" fill="black"/>
<circle cx="72.5" cy="116" r="25" fill="#EBE4FF"/>
<path d="M60 112.242C60 108.104 63.3457 104.75 67.5008 104.75H77.4991C81.6418 104.75 85 108.118 85 112.242V126.25C85 126.802 84.5523 127.25 84 127.25H67.5008C63.3582 127.25 60 123.882 60 119.758V112.242ZM76.25 114.75C75.5596 114.75 75 115.31 75 116C75 116.69 75.5596 117.25 76.25 117.25C76.9404 117.25 77.5 116.69 77.5 116C77.5 115.31 76.9404 114.75 76.25 114.75ZM68.75 114.75C68.0596 114.75 67.5 115.31 67.5 116C67.5 116.69 68.0596 117.25 68.75 117.25C69.4404 117.25 70 116.69 70 116C70 115.31 69.4404 114.75 68.75 114.75Z" fill="#DB00FF"/>
<path d="M37.152 178V156.182H45.3338C47.0099 156.182 48.4162 156.494 49.5526 157.119C50.696 157.744 51.5589 158.604 52.1413 159.697C52.7308 160.784 53.0256 162.02 53.0256 163.405C53.0256 164.804 52.7308 166.047 52.1413 167.134C51.5518 168.22 50.6818 169.076 49.5312 169.701C48.3807 170.319 46.9638 170.628 45.2805 170.628H39.858V167.379H44.7479C45.728 167.379 46.5305 167.208 47.1555 166.867C47.7805 166.526 48.2422 166.058 48.5405 165.461C48.8459 164.864 48.9986 164.179 48.9986 163.405C48.9986 162.631 48.8459 161.949 48.5405 161.359C48.2422 160.77 47.777 160.312 47.1449 159.985C46.5199 159.651 45.7138 159.484 44.7266 159.484H41.1044V178H37.152ZM60.1447 156.182V178H56.2882V156.182H60.1447ZM74.5401 171.118V161.636H78.3967V178H74.6573V175.092H74.4869C74.1175 176.008 73.5103 176.757 72.6651 177.339C71.8271 177.922 70.7937 178.213 69.565 178.213C68.4925 178.213 67.5444 177.975 66.7205 177.499C65.9038 177.016 65.2646 176.317 64.8029 175.401C64.3413 174.477 64.1104 173.362 64.1104 172.055V161.636H67.967V171.459C67.967 172.496 68.2511 173.32 68.8192 173.93C69.3874 174.541 70.1332 174.847 71.0565 174.847C71.6246 174.847 72.1751 174.708 72.7077 174.431C73.2404 174.154 73.6772 173.742 74.0181 173.195C74.3661 172.641 74.5401 171.949 74.5401 171.118ZM90.5336 161.636V164.619H81.1266V161.636H90.5336ZM83.449 157.716H87.3056V173.078C87.3056 173.597 87.3837 173.994 87.54 174.271C87.7033 174.541 87.9164 174.726 88.1792 174.825C88.4419 174.925 88.7331 174.974 89.0527 174.974C89.2942 174.974 89.5144 174.957 89.7132 174.921C89.9192 174.886 90.0755 174.854 90.182 174.825L90.8319 177.84C90.6259 177.911 90.3311 177.989 89.9476 178.075C89.5712 178.16 89.1096 178.21 88.5627 178.224C87.5968 178.252 86.7267 178.107 85.9526 177.787C85.1784 177.46 84.5641 176.956 84.1096 176.274C83.6621 175.592 83.4419 174.74 83.449 173.717V157.716ZM100.721 178.32C99.1229 178.32 97.7379 177.968 96.5661 177.265C95.3942 176.562 94.4851 175.578 93.8388 174.314C93.1996 173.05 92.88 171.572 92.88 169.882C92.88 168.192 93.1996 166.711 93.8388 165.44C94.4851 164.168 95.3942 163.181 96.5661 162.478C97.7379 161.775 99.1229 161.423 100.721 161.423C102.319 161.423 103.704 161.775 104.876 162.478C106.048 163.181 106.953 164.168 107.592 165.44C108.239 166.711 108.562 168.192 108.562 169.882C108.562 171.572 108.239 173.05 107.592 174.314C106.953 175.578 106.048 176.562 104.876 177.265C103.704 177.968 102.319 178.32 100.721 178.32ZM100.742 175.23C101.609 175.23 102.333 174.992 102.915 174.516C103.498 174.033 103.931 173.387 104.215 172.577C104.506 171.768 104.652 170.866 104.652 169.871C104.652 168.87 104.506 167.964 104.215 167.155C103.931 166.338 103.498 165.688 102.915 165.205C102.333 164.722 101.609 164.481 100.742 164.481C99.8544 164.481 99.1158 164.722 98.5263 165.205C97.9439 165.688 97.5071 166.338 97.2159 167.155C96.9318 167.964 96.7898 168.87 96.7898 169.871C96.7898 170.866 96.9318 171.768 97.2159 172.577C97.5071 173.387 97.9439 174.033 98.5263 174.516C99.1158 174.992 99.8544 175.23 100.742 175.23Z" fill="black"/>
<circle cx="809" cy="200" r="25" fill="#EBE4FF"/>
<path d="M821.5 193.25V195.75C821.5 198.038 820.462 199.275 818.375 199.463C818.175 199.488 817.962 199.5 817.75 199.5H800.25C800.037 199.5 799.825 199.488 799.625 199.463C797.538 199.275 796.5 198.038 796.5 195.75V193.25C796.5 190.75 797.75 189.5 800.25 189.5H817.75C820.25 189.5 821.5 190.75 821.5 193.25ZM800.875 201.062C800.188 201.062 799.625 201.625 799.625 202.312V209.5C799.625 212 800.25 213.25 803.375 213.25H814.625C817.75 213.25 818.375 212 818.375 209.5V202.312C818.375 201.625 817.812 201.062 817.125 201.062H800.875ZM811.275 206.688H806.725C806.213 206.688 805.788 206.263 805.788 205.75C805.788 205.238 806.213 204.812 806.725 204.812H811.275C811.787 204.812 812.212 205.238 812.212 205.75C812.212 206.263 811.787 206.688 811.275 206.688Z" fill="#6F00FF"/>
<path d="M765.273 244.398H762.352C762.268 243.919 762.115 243.495 761.891 243.125C761.667 242.75 761.388 242.432 761.055 242.172C760.721 241.911 760.341 241.716 759.914 241.586C759.492 241.451 759.036 241.383 758.547 241.383C757.677 241.383 756.906 241.602 756.234 242.039C755.563 242.471 755.036 243.107 754.656 243.945C754.276 244.779 754.086 245.797 754.086 247C754.086 248.224 754.276 249.255 754.656 250.094C755.042 250.927 755.568 251.557 756.234 251.984C756.906 252.406 757.674 252.617 758.539 252.617C759.018 252.617 759.466 252.555 759.883 252.43C760.305 252.299 760.682 252.109 761.016 251.859C761.354 251.609 761.638 251.302 761.867 250.937C762.102 250.573 762.263 250.156 762.352 249.687L765.273 249.703C765.164 250.464 764.927 251.177 764.562 251.844C764.203 252.51 763.732 253.099 763.148 253.609C762.565 254.115 761.883 254.51 761.102 254.797C760.32 255.078 759.453 255.219 758.5 255.219C757.094 255.219 755.839 254.893 754.734 254.242C753.63 253.591 752.76 252.651 752.125 251.422C751.49 250.193 751.172 248.719 751.172 247C751.172 245.276 751.492 243.802 752.133 242.578C752.773 241.349 753.646 240.409 754.75 239.758C755.854 239.107 757.104 238.781 758.5 238.781C759.391 238.781 760.219 238.906 760.984 239.156C761.75 239.406 762.432 239.773 763.031 240.258C763.63 240.737 764.122 241.326 764.508 242.023C764.898 242.716 765.154 243.508 765.273 244.398ZM771.256 255.242C770.495 255.242 769.811 255.107 769.201 254.836C768.597 254.56 768.118 254.154 767.764 253.617C767.415 253.081 767.24 252.419 767.24 251.633C767.24 250.956 767.365 250.396 767.615 249.953C767.865 249.51 768.206 249.156 768.639 248.891C769.071 248.625 769.558 248.424 770.1 248.289C770.646 248.148 771.212 248.047 771.795 247.984C772.498 247.911 773.068 247.846 773.506 247.789C773.943 247.727 774.261 247.633 774.459 247.508C774.662 247.378 774.764 247.177 774.764 246.906V246.859C774.764 246.271 774.589 245.815 774.24 245.492C773.891 245.169 773.389 245.008 772.732 245.008C772.04 245.008 771.49 245.159 771.084 245.461C770.683 245.763 770.412 246.12 770.271 246.531L767.631 246.156C767.839 245.427 768.183 244.818 768.662 244.328C769.141 243.833 769.727 243.464 770.42 243.219C771.113 242.969 771.878 242.844 772.717 242.844C773.295 242.844 773.87 242.911 774.443 243.047C775.016 243.182 775.54 243.406 776.014 243.719C776.488 244.026 776.868 244.445 777.154 244.977C777.446 245.508 777.592 246.172 777.592 246.969V255H774.873V253.352H774.779C774.607 253.685 774.365 253.997 774.053 254.289C773.745 254.576 773.357 254.807 772.889 254.984C772.425 255.156 771.881 255.242 771.256 255.242ZM771.99 253.164C772.558 253.164 773.05 253.052 773.467 252.828C773.883 252.599 774.204 252.297 774.428 251.922C774.657 251.547 774.771 251.138 774.771 250.695V249.281C774.683 249.354 774.532 249.422 774.318 249.484C774.11 249.547 773.876 249.602 773.615 249.648C773.355 249.695 773.097 249.737 772.842 249.773C772.587 249.81 772.365 249.841 772.178 249.867C771.756 249.924 771.378 250.018 771.045 250.148C770.712 250.279 770.449 250.461 770.256 250.695C770.063 250.924 769.967 251.221 769.967 251.586C769.967 252.107 770.157 252.5 770.537 252.766C770.917 253.031 771.402 253.164 771.99 253.164ZM789.92 246.172L787.342 246.453C787.269 246.193 787.141 245.948 786.959 245.719C786.782 245.49 786.542 245.305 786.24 245.164C785.938 245.023 785.568 244.953 785.131 244.953C784.542 244.953 784.048 245.081 783.646 245.336C783.251 245.591 783.055 245.922 783.061 246.328C783.055 246.677 783.183 246.961 783.443 247.18C783.709 247.398 784.146 247.578 784.756 247.719L786.803 248.156C787.938 248.401 788.782 248.789 789.334 249.32C789.891 249.852 790.173 250.547 790.178 251.406C790.173 252.161 789.951 252.828 789.514 253.406C789.081 253.979 788.48 254.427 787.709 254.75C786.938 255.073 786.053 255.234 785.053 255.234C783.584 255.234 782.402 254.927 781.506 254.312C780.61 253.693 780.076 252.831 779.904 251.727L782.662 251.461C782.787 252.003 783.053 252.411 783.459 252.687C783.865 252.964 784.394 253.102 785.045 253.102C785.717 253.102 786.256 252.964 786.662 252.687C787.074 252.411 787.279 252.07 787.279 251.664C787.279 251.32 787.146 251.036 786.881 250.812C786.62 250.589 786.214 250.417 785.662 250.297L783.615 249.867C782.464 249.628 781.613 249.224 781.061 248.656C780.508 248.083 780.235 247.359 780.24 246.484C780.235 245.745 780.436 245.104 780.842 244.562C781.253 244.016 781.824 243.594 782.553 243.297C783.287 242.995 784.133 242.844 785.092 242.844C786.498 242.844 787.605 243.143 788.412 243.742C789.225 244.341 789.727 245.151 789.92 246.172ZM801.994 246.172L799.416 246.453C799.343 246.193 799.215 245.948 799.033 245.719C798.856 245.49 798.617 245.305 798.314 245.164C798.012 245.023 797.643 244.953 797.205 244.953C796.617 244.953 796.122 245.081 795.721 245.336C795.325 245.591 795.13 245.922 795.135 246.328C795.13 246.677 795.257 246.961 795.518 247.18C795.783 247.398 796.221 247.578 796.83 247.719L798.877 248.156C800.012 248.401 800.856 248.789 801.408 249.32C801.965 249.852 802.247 250.547 802.252 251.406C802.247 252.161 802.025 252.828 801.588 253.406C801.156 253.979 800.554 254.427 799.783 254.75C799.012 255.073 798.127 255.234 797.127 255.234C795.658 255.234 794.476 254.927 793.58 254.312C792.684 253.693 792.15 252.831 791.979 251.727L794.736 251.461C794.861 252.003 795.127 252.411 795.533 252.687C795.939 252.964 796.468 253.102 797.119 253.102C797.791 253.102 798.33 252.964 798.736 252.687C799.148 252.411 799.354 252.07 799.354 251.664C799.354 251.32 799.221 251.036 798.955 250.812C798.695 250.589 798.288 250.417 797.736 250.297L795.689 249.867C794.538 249.628 793.687 249.224 793.135 248.656C792.583 248.083 792.309 247.359 792.314 246.484C792.309 245.745 792.51 245.104 792.916 244.562C793.327 244.016 793.898 243.594 794.627 243.297C795.361 242.995 796.208 242.844 797.166 242.844C798.572 242.844 799.679 243.143 800.486 243.742C801.299 244.341 801.801 245.151 801.994 246.172ZM804.584 255V243H807.412V255H804.584ZM806.006 241.297C805.558 241.297 805.173 241.148 804.85 240.852C804.527 240.549 804.365 240.187 804.365 239.766C804.365 239.339 804.527 238.977 804.85 238.68C805.173 238.378 805.558 238.227 806.006 238.227C806.459 238.227 806.844 238.378 807.162 238.68C807.485 238.977 807.646 239.339 807.646 239.766C807.646 240.187 807.485 240.549 807.162 240.852C806.844 241.148 806.459 241.297 806.006 241.297ZM815.555 255.234C814.383 255.234 813.367 254.977 812.508 254.461C811.648 253.945 810.982 253.224 810.508 252.297C810.039 251.37 809.805 250.286 809.805 249.047C809.805 247.807 810.039 246.721 810.508 245.789C810.982 244.857 811.648 244.133 812.508 243.617C813.367 243.102 814.383 242.844 815.555 242.844C816.727 242.844 817.742 243.102 818.602 243.617C819.461 244.133 820.125 244.857 820.594 245.789C821.068 246.721 821.305 247.807 821.305 249.047C821.305 250.286 821.068 251.37 820.594 252.297C820.125 253.224 819.461 253.945 818.602 254.461C817.742 254.977 816.727 255.234 815.555 255.234ZM815.57 252.969C816.206 252.969 816.737 252.794 817.164 252.445C817.591 252.091 817.909 251.617 818.117 251.023C818.331 250.43 818.438 249.768 818.438 249.039C818.438 248.305 818.331 247.641 818.117 247.047C817.909 246.448 817.591 245.971 817.164 245.617C816.737 245.263 816.206 245.086 815.57 245.086C814.919 245.086 814.378 245.263 813.945 245.617C813.518 245.971 813.198 246.448 812.984 247.047C812.776 247.641 812.672 248.305 812.672 249.039C812.672 249.768 812.776 250.43 812.984 251.023C813.198 251.617 813.518 252.091 813.945 252.445C814.378 252.794 814.919 252.969 815.57 252.969ZM823.705 259.5V243H826.486V244.984H826.65C826.796 244.693 827.002 244.383 827.268 244.055C827.533 243.721 827.893 243.437 828.346 243.203C828.799 242.964 829.377 242.844 830.08 242.844C831.007 242.844 831.843 243.081 832.588 243.555C833.338 244.023 833.932 244.719 834.369 245.641C834.812 246.557 835.033 247.682 835.033 249.016C835.033 250.333 834.817 251.453 834.385 252.375C833.952 253.297 833.364 254 832.619 254.484C831.874 254.969 831.031 255.211 830.088 255.211C829.4 255.211 828.83 255.096 828.377 254.867C827.924 254.638 827.559 254.362 827.283 254.039C827.012 253.711 826.801 253.401 826.65 253.109H826.533V259.5H823.705ZM826.479 249C826.479 249.776 826.588 250.456 826.807 251.039C827.031 251.622 827.351 252.078 827.768 252.406C828.189 252.729 828.7 252.891 829.299 252.891C829.924 252.891 830.447 252.724 830.869 252.391C831.291 252.052 831.609 251.591 831.822 251.008C832.041 250.419 832.15 249.75 832.15 249C832.15 248.255 832.044 247.594 831.83 247.016C831.617 246.437 831.299 245.984 830.877 245.656C830.455 245.328 829.929 245.164 829.299 245.164C828.695 245.164 828.182 245.323 827.76 245.641C827.338 245.958 827.018 246.404 826.799 246.977C826.585 247.549 826.479 248.224 826.479 249ZM842.768 255.234C841.564 255.234 840.525 254.984 839.65 254.484C838.781 253.979 838.111 253.266 837.643 252.344C837.174 251.417 836.939 250.326 836.939 249.07C836.939 247.836 837.174 246.753 837.643 245.82C838.117 244.883 838.778 244.154 839.627 243.633C840.476 243.107 841.473 242.844 842.619 242.844C843.359 242.844 844.057 242.964 844.713 243.203C845.374 243.437 845.958 243.802 846.463 244.297C846.973 244.792 847.374 245.422 847.666 246.187C847.958 246.948 848.104 247.854 848.104 248.906V249.773H838.268V247.867H845.393C845.387 247.326 845.27 246.844 845.041 246.422C844.812 245.995 844.492 245.659 844.08 245.414C843.674 245.169 843.2 245.047 842.658 245.047C842.08 245.047 841.572 245.187 841.135 245.469C840.697 245.745 840.356 246.109 840.111 246.562C839.872 247.01 839.749 247.503 839.744 248.039V249.703C839.744 250.401 839.872 251 840.127 251.5C840.382 251.995 840.739 252.375 841.197 252.641C841.656 252.901 842.192 253.031 842.807 253.031C843.218 253.031 843.59 252.974 843.924 252.859C844.257 252.74 844.546 252.565 844.791 252.336C845.036 252.107 845.221 251.823 845.346 251.484L847.986 251.781C847.82 252.479 847.502 253.089 847.033 253.609C846.57 254.125 845.976 254.526 845.252 254.812C844.528 255.094 843.7 255.234 842.768 255.234ZM850.496 255V243H853.324V255H850.496ZM851.918 241.297C851.47 241.297 851.085 241.148 850.762 240.852C850.439 240.549 850.277 240.187 850.277 239.766C850.277 239.339 850.439 238.977 850.762 238.68C851.085 238.378 851.47 238.227 851.918 238.227C852.371 238.227 852.757 238.378 853.074 238.68C853.397 238.977 853.559 239.339 853.559 239.766C853.559 240.187 853.397 240.549 853.074 240.852C852.757 241.148 852.371 241.297 851.918 241.297ZM859.686 255.242C858.925 255.242 858.24 255.107 857.631 254.836C857.027 254.56 856.548 254.154 856.193 253.617C855.844 253.081 855.67 252.419 855.67 251.633C855.67 250.956 855.795 250.396 856.045 249.953C856.295 249.51 856.636 249.156 857.068 248.891C857.501 248.625 857.988 248.424 858.529 248.289C859.076 248.148 859.641 248.047 860.225 247.984C860.928 247.911 861.498 247.846 861.936 247.789C862.373 247.727 862.691 247.633 862.889 247.508C863.092 247.378 863.193 247.177 863.193 246.906V246.859C863.193 246.271 863.019 245.815 862.67 245.492C862.321 245.169 861.818 245.008 861.162 245.008C860.469 245.008 859.92 245.159 859.514 245.461C859.113 245.763 858.842 246.12 858.701 246.531L856.061 246.156C856.269 245.427 856.613 244.818 857.092 244.328C857.571 243.833 858.157 243.464 858.85 243.219C859.542 242.969 860.308 242.844 861.146 242.844C861.725 242.844 862.3 242.911 862.873 243.047C863.446 243.182 863.969 243.406 864.443 243.719C864.917 244.026 865.298 244.445 865.584 244.977C865.876 245.508 866.021 246.172 866.021 246.969V255H863.303V253.352H863.209C863.037 253.685 862.795 253.997 862.482 254.289C862.175 254.576 861.787 254.807 861.318 254.984C860.855 255.156 860.311 255.242 859.686 255.242ZM860.42 253.164C860.988 253.164 861.48 253.052 861.896 252.828C862.313 252.599 862.633 252.297 862.857 251.922C863.087 251.547 863.201 251.138 863.201 250.695V249.281C863.113 249.354 862.962 249.422 862.748 249.484C862.54 249.547 862.305 249.602 862.045 249.648C861.785 249.695 861.527 249.737 861.271 249.773C861.016 249.81 860.795 249.841 860.607 249.867C860.186 249.924 859.808 250.018 859.475 250.148C859.141 250.279 858.878 250.461 858.686 250.695C858.493 250.924 858.396 251.221 858.396 251.586C858.396 252.107 858.587 252.5 858.967 252.766C859.347 253.031 859.831 253.164 860.42 253.164Z" fill="black"/>
<circle cx="903" cy="934" r="25" fill="#EBE4FF"/>
<path d="M915.5 927.25V929.75C915.5 932.038 914.462 933.275 912.375 933.463C912.175 933.488 911.962 933.5 911.75 933.5H894.25C894.037 933.5 893.825 933.488 893.625 933.463C891.538 933.275 890.5 932.038 890.5 929.75V927.25C890.5 924.75 891.75 923.5 894.25 923.5H911.75C914.25 923.5 915.5 924.75 915.5 927.25ZM894.875 935.062C894.188 935.062 893.625 935.625 893.625 936.312V943.5C893.625 946 894.25 947.25 897.375 947.25H908.625C911.75 947.25 912.375 946 912.375 943.5V936.312C912.375 935.625 911.812 935.062 911.125 935.062H894.875ZM905.275 940.688H900.725C900.213 940.688 899.788 940.263 899.788 939.75C899.788 939.238 900.213 938.812 900.725 938.812H905.275C905.787 938.812 906.212 939.238 906.212 939.75C906.212 940.263 905.787 940.688 905.275 940.688Z" fill="#6F00FF"/>
<path d="M876.009 980.18C875.91 979.249 875.491 978.525 874.752 978.006C874.021 977.488 873.069 977.229 871.897 977.229C871.073 977.229 870.366 977.353 869.777 977.602C869.188 977.85 868.737 978.187 868.424 978.614C868.112 979.04 867.952 979.526 867.945 980.073C867.945 980.528 868.048 980.922 868.254 981.256C868.467 981.589 868.754 981.874 869.116 982.108C869.479 982.335 869.88 982.527 870.32 982.683C870.761 982.839 871.205 982.971 871.652 983.077L873.697 983.589C874.521 983.781 875.313 984.04 876.073 984.366C876.84 984.693 877.526 985.105 878.129 985.602C878.74 986.099 879.223 986.7 879.578 987.403C879.933 988.106 880.111 988.93 880.111 989.874C880.111 991.153 879.784 992.278 879.131 993.251C878.477 994.217 877.533 994.974 876.297 995.521C875.068 996.06 873.58 996.33 871.833 996.33C870.136 996.33 868.662 996.067 867.412 995.542C866.169 995.016 865.196 994.249 864.493 993.241C863.797 992.232 863.42 991.004 863.364 989.555H867.252C867.309 990.315 867.543 990.947 867.955 991.451C868.367 991.955 868.903 992.332 869.564 992.58C870.232 992.829 870.977 992.953 871.801 992.953C872.661 992.953 873.413 992.825 874.06 992.57C874.713 992.307 875.224 991.945 875.594 991.483C875.963 991.014 876.151 990.467 876.158 989.842C876.151 989.274 875.984 988.805 875.658 988.436C875.331 988.06 874.873 987.747 874.283 987.499C873.701 987.243 873.019 987.016 872.238 986.817L869.756 986.178C867.959 985.716 866.538 985.016 865.494 984.079C864.457 983.134 863.939 981.881 863.939 980.318C863.939 979.033 864.287 977.907 864.983 976.941C865.686 975.975 866.641 975.226 867.849 974.693C869.056 974.153 870.423 973.884 871.95 973.884C873.499 973.884 874.855 974.153 876.02 974.693C877.192 975.226 878.112 975.968 878.779 976.92C879.447 977.864 879.791 978.951 879.812 980.18H876.009ZM883.464 996V979.636H887.32V996H883.464ZM885.403 977.314C884.792 977.314 884.267 977.112 883.826 976.707C883.386 976.295 883.166 975.801 883.166 975.226C883.166 974.643 883.386 974.15 883.826 973.745C884.267 973.333 884.792 973.127 885.403 973.127C886.021 973.127 886.546 973.333 886.98 973.745C887.42 974.15 887.64 974.643 887.64 975.226C887.64 975.801 887.42 976.295 886.98 976.707C886.546 977.112 886.021 977.314 885.403 977.314ZM891.286 996V979.636H895.026V982.364H895.196C895.494 981.419 896.006 980.691 896.73 980.18C897.462 979.661 898.296 979.402 899.234 979.402C899.447 979.402 899.685 979.413 899.947 979.434C900.217 979.448 900.441 979.473 900.619 979.509V983.056C900.455 982.999 900.196 982.95 899.841 982.907C899.493 982.857 899.156 982.832 898.829 982.832C898.126 982.832 897.494 982.985 896.933 983.29C896.379 983.589 895.942 984.004 895.622 984.537C895.303 985.07 895.143 985.684 895.143 986.38V996H891.286ZM903.181 996V979.636H907.037V996H903.181ZM905.12 977.314C904.509 977.314 903.983 977.112 903.543 976.707C903.103 976.295 902.882 975.801 902.882 975.226C902.882 974.643 903.103 974.15 903.543 973.745C903.983 973.333 904.509 973.127 905.12 973.127C905.738 973.127 906.263 973.333 906.696 973.745C907.137 974.15 907.357 974.643 907.357 975.226C907.357 975.801 907.137 976.295 906.696 976.707C906.263 977.112 905.738 977.314 905.12 977.314ZM921.433 989.118V979.636H925.289V996H921.55V993.092H921.379C921.01 994.008 920.403 994.757 919.558 995.339C918.72 995.922 917.686 996.213 916.458 996.213C915.385 996.213 914.437 995.975 913.613 995.499C912.796 995.016 912.157 994.317 911.695 993.401C911.234 992.477 911.003 991.362 911.003 990.055V979.636H914.86V989.459C914.86 990.496 915.144 991.32 915.712 991.93C916.28 992.541 917.026 992.847 917.949 992.847C918.517 992.847 919.068 992.708 919.6 992.431C920.133 992.154 920.57 991.742 920.911 991.195C921.259 990.641 921.433 989.949 921.433 989.118ZM942.188 983.962L938.673 984.345C938.573 983.99 938.399 983.656 938.151 983.344C937.909 983.031 937.582 982.779 937.17 982.587C936.759 982.396 936.254 982.3 935.658 982.3C934.855 982.3 934.18 982.474 933.634 982.822C933.094 983.17 932.827 983.621 932.835 984.175C932.827 984.651 933.001 985.038 933.357 985.336C933.719 985.634 934.315 985.879 935.146 986.071L937.938 986.668C939.486 987.001 940.636 987.531 941.389 988.255C942.149 988.979 942.533 989.928 942.54 991.099C942.533 992.129 942.231 993.038 941.634 993.827C941.045 994.608 940.224 995.219 939.173 995.659C938.122 996.099 936.915 996.32 935.551 996.32C933.548 996.32 931.936 995.901 930.714 995.062C929.493 994.217 928.765 993.042 928.531 991.536L932.291 991.174C932.462 991.913 932.824 992.47 933.378 992.847C933.932 993.223 934.653 993.411 935.54 993.411C936.457 993.411 937.192 993.223 937.746 992.847C938.307 992.47 938.587 992.005 938.587 991.451C938.587 990.982 938.406 990.595 938.044 990.29C937.689 989.984 937.135 989.75 936.382 989.587L933.591 989.001C932.021 988.674 930.86 988.124 930.107 987.349C929.354 986.568 928.982 985.581 928.989 984.388C928.982 983.379 929.255 982.506 929.809 981.767C930.37 981.021 931.148 980.446 932.142 980.041C933.143 979.629 934.298 979.423 935.604 979.423C937.522 979.423 939.031 979.832 940.132 980.648C941.24 981.465 941.925 982.57 942.188 983.962Z" fill="black"/>
<circle cx="967" cy="733" r="25" fill="#FDE4FF"/>
<path d="M954.5 729.242C954.5 725.104 957.846 721.75 962.001 721.75H971.999C976.142 721.75 979.5 725.118 979.5 729.242V743.25C979.5 743.802 979.052 744.25 978.5 744.25H962.001C957.858 744.25 954.5 740.882 954.5 736.758V729.242ZM970.75 731.75C970.06 731.75 969.5 732.31 969.5 733C969.5 733.69 970.06 734.25 970.75 734.25C971.44 734.25 972 733.69 972 733C972 732.31 971.44 731.75 970.75 731.75ZM963.25 731.75C962.56 731.75 962 732.31 962 733C962 733.69 962.56 734.25 963.25 734.25C963.94 734.25 964.5 733.69 964.5 733C964.5 732.31 963.94 731.75 963.25 731.75Z" fill="#DB00FF"/>
<path d="M928.152 773.182H932.989L939.466 788.991H939.722L946.199 773.182H951.036V795H947.243V780.011H947.04L941.011 794.936H938.177L932.147 779.979H931.945V795H928.152V773.182ZM962.307 795.32C960.709 795.32 959.324 794.968 958.152 794.265C956.98 793.562 956.071 792.578 955.425 791.314C954.786 790.05 954.466 788.572 954.466 786.882C954.466 785.192 954.786 783.711 955.425 782.44C956.071 781.168 956.98 780.181 958.152 779.478C959.324 778.775 960.709 778.423 962.307 778.423C963.905 778.423 965.29 778.775 966.462 779.478C967.634 780.181 968.539 781.168 969.178 782.44C969.825 783.711 970.148 785.192 970.148 786.882C970.148 788.572 969.825 790.05 969.178 791.314C968.539 792.578 967.634 793.562 966.462 794.265C965.29 794.968 963.905 795.32 962.307 795.32ZM962.328 792.23C963.195 792.23 963.919 791.992 964.501 791.516C965.084 791.033 965.517 790.387 965.801 789.577C966.092 788.768 966.238 787.866 966.238 786.871C966.238 785.87 966.092 784.964 965.801 784.155C965.517 783.338 965.084 782.688 964.501 782.205C963.919 781.722 963.195 781.481 962.328 781.481C961.44 781.481 960.702 781.722 960.112 782.205C959.53 782.688 959.093 783.338 958.802 784.155C958.518 784.964 958.376 785.87 958.376 786.871C958.376 787.866 958.518 788.768 958.802 789.577C959.093 790.387 959.53 791.033 960.112 791.516C960.702 791.992 961.44 792.23 962.328 792.23ZM980.559 795.32C978.961 795.32 977.576 794.968 976.404 794.265C975.232 793.562 974.323 792.578 973.677 791.314C973.037 790.05 972.718 788.572 972.718 786.882C972.718 785.192 973.037 783.711 973.677 782.44C974.323 781.168 975.232 780.181 976.404 779.478C977.576 778.775 978.961 778.423 980.559 778.423C982.157 778.423 983.542 778.775 984.714 779.478C985.885 780.181 986.791 781.168 987.43 782.44C988.077 783.711 988.4 785.192 988.4 786.882C988.4 788.572 988.077 790.05 987.43 791.314C986.791 792.578 985.885 793.562 984.714 794.265C983.542 794.968 982.157 795.32 980.559 795.32ZM980.58 792.23C981.447 792.23 982.171 791.992 982.753 791.516C983.336 791.033 983.769 790.387 984.053 789.577C984.344 788.768 984.49 787.866 984.49 786.871C984.49 785.87 984.344 784.964 984.053 784.155C983.769 783.338 983.336 782.688 982.753 782.205C982.171 781.722 981.447 781.481 980.58 781.481C979.692 781.481 978.954 781.722 978.364 782.205C977.782 782.688 977.345 783.338 977.054 784.155C976.77 784.964 976.628 785.87 976.628 786.871C976.628 787.866 976.77 788.768 977.054 789.577C977.345 790.387 977.782 791.033 978.364 791.516C978.954 791.992 979.692 792.23 980.58 792.23ZM995.529 785.412V795H991.673V778.636H995.359V781.417H995.551C995.927 780.501 996.527 779.773 997.351 779.233C998.182 778.693 999.208 778.423 1000.43 778.423C1001.56 778.423 1002.54 778.665 1003.38 779.148C1004.23 779.631 1004.88 780.33 1005.34 781.246C1005.81 782.163 1006.04 783.274 1006.03 784.581V795H1002.18V785.178C1002.18 784.084 1001.89 783.228 1001.32 782.61C1000.76 781.992 999.986 781.683 998.992 781.683C998.317 781.683 997.717 781.832 997.191 782.131C996.673 782.422 996.265 782.844 995.966 783.398C995.675 783.952 995.529 784.624 995.529 785.412Z" fill="black"/>
<circle cx="670.5" cy="458" r="25" fill="#FDE4FF"/>
<path d="M658 454.242C658 450.104 661.346 446.75 665.501 446.75H675.499C679.642 446.75 683 450.118 683 454.242V468.25C683 468.802 682.552 469.25 682 469.25H665.501C661.358 469.25 658 465.882 658 461.758V454.242ZM674.25 456.75C673.56 456.75 673 457.31 673 458C673 458.69 673.56 459.25 674.25 459.25C674.94 459.25 675.5 458.69 675.5 458C675.5 457.31 674.94 456.75 674.25 456.75ZM666.75 456.75C666.06 456.75 665.5 457.31 665.5 458C665.5 458.69 666.06 459.25 666.75 459.25C667.44 459.25 668 458.69 668 458C668 457.31 667.44 456.75 666.75 456.75Z" fill="#DB00FF"/>
<path d="M656.009 504.18C655.91 503.249 655.491 502.525 654.752 502.006C654.021 501.488 653.069 501.229 651.897 501.229C651.073 501.229 650.366 501.353 649.777 501.602C649.188 501.85 648.737 502.187 648.424 502.614C648.112 503.04 647.952 503.526 647.945 504.073C647.945 504.528 648.048 504.922 648.254 505.256C648.467 505.589 648.754 505.874 649.116 506.108C649.479 506.335 649.88 506.527 650.32 506.683C650.761 506.839 651.205 506.971 651.652 507.077L653.697 507.589C654.521 507.781 655.313 508.04 656.073 508.366C656.84 508.693 657.526 509.105 658.129 509.602C658.74 510.099 659.223 510.7 659.578 511.403C659.933 512.106 660.111 512.93 660.111 513.874C660.111 515.153 659.784 516.278 659.131 517.251C658.477 518.217 657.533 518.974 656.297 519.521C655.068 520.06 653.58 520.33 651.833 520.33C650.136 520.33 648.662 520.067 647.412 519.542C646.169 519.016 645.196 518.249 644.493 517.241C643.797 516.232 643.42 515.004 643.364 513.555H647.252C647.309 514.315 647.543 514.947 647.955 515.451C648.367 515.955 648.903 516.332 649.564 516.58C650.232 516.829 650.977 516.953 651.801 516.953C652.661 516.953 653.413 516.825 654.06 516.57C654.713 516.307 655.224 515.945 655.594 515.483C655.963 515.014 656.151 514.467 656.158 513.842C656.151 513.274 655.984 512.805 655.658 512.436C655.331 512.06 654.873 511.747 654.283 511.499C653.701 511.243 653.019 511.016 652.238 510.817L649.756 510.178C647.959 509.716 646.538 509.016 645.494 508.079C644.457 507.134 643.939 505.881 643.939 504.318C643.939 503.033 644.287 501.907 644.983 500.941C645.686 499.975 646.641 499.226 647.849 498.693C649.056 498.153 650.423 497.884 651.95 497.884C653.499 497.884 654.855 498.153 656.02 498.693C657.192 499.226 658.112 499.968 658.779 500.92C659.447 501.864 659.791 502.951 659.812 504.18H656.009ZM673.894 513.118V503.636H677.75V520H674.011V517.092H673.84C673.471 518.008 672.864 518.757 672.019 519.339C671.181 519.922 670.147 520.213 668.919 520.213C667.846 520.213 666.898 519.975 666.074 519.499C665.257 519.016 664.618 518.317 664.156 517.401C663.695 516.477 663.464 515.362 663.464 514.055V503.636H667.32V513.459C667.32 514.496 667.605 515.32 668.173 515.93C668.741 516.541 669.487 516.847 670.41 516.847C670.978 516.847 671.529 516.708 672.061 516.431C672.594 516.154 673.031 515.742 673.372 515.195C673.72 514.641 673.894 513.949 673.894 513.118ZM685.572 510.412V520H681.716V503.636H685.402V506.417H685.594C685.97 505.501 686.57 504.773 687.394 504.233C688.225 503.693 689.251 503.423 690.473 503.423C691.602 503.423 692.586 503.665 693.424 504.148C694.269 504.631 694.923 505.33 695.384 506.246C695.853 507.163 696.084 508.274 696.077 509.581V520H692.22V510.178C692.22 509.084 691.936 508.228 691.368 507.61C690.807 506.992 690.029 506.683 689.035 506.683C688.36 506.683 687.76 506.832 687.234 507.131C686.716 507.422 686.308 507.844 686.009 508.398C685.718 508.952 685.572 509.624 685.572 510.412Z" fill="black"/>
<circle cx="447.5" cy="462" r="25" fill="#FDE4FF"/>
<path d="M435 458.242C435 454.104 438.346 450.75 442.501 450.75H452.499C456.642 450.75 460 454.118 460 458.242V472.25C460 472.802 459.552 473.25 459 473.25H442.501C438.358 473.25 435 469.882 435 465.758V458.242ZM451.25 460.75C450.56 460.75 450 461.31 450 462C450 462.69 450.56 463.25 451.25 463.25C451.94 463.25 452.5 462.69 452.5 462C452.5 461.31 451.94 460.75 451.25 460.75ZM443.75 460.75C443.06 460.75 442.5 461.31 442.5 462C442.5 462.69 443.06 463.25 443.75 463.25C444.44 463.25 445 462.69 445 462C445 461.31 444.44 460.75 443.75 460.75Z" fill="#DB00FF"/>
<path d="M403.391 501H407.562L411.969 511.75H412.156L416.562 501H420.734V517H417.453V506.586H417.32L413.18 516.922H410.945L406.805 506.547H406.672V517H403.391V501ZM428.928 517.234C427.693 517.234 426.631 516.984 425.74 516.484C424.855 515.979 424.173 515.266 423.693 514.344C423.214 513.417 422.975 512.32 422.975 511.055C422.975 509.82 423.214 508.737 423.693 507.805C424.173 506.872 424.847 506.146 425.717 505.625C426.592 505.104 427.618 504.844 428.795 504.844C429.587 504.844 430.324 504.971 431.006 505.227C431.693 505.477 432.292 505.854 432.803 506.359C433.318 506.865 433.719 507.5 434.006 508.266C434.292 509.026 434.436 509.917 434.436 510.937V511.852H424.303V509.789H431.303C431.303 509.31 431.199 508.885 430.99 508.516C430.782 508.146 430.493 507.857 430.123 507.648C429.758 507.435 429.334 507.328 428.85 507.328C428.344 507.328 427.896 507.445 427.506 507.68C427.12 507.909 426.818 508.219 426.6 508.609C426.381 508.995 426.269 509.424 426.264 509.898V511.859C426.264 512.453 426.373 512.966 426.592 513.398C426.816 513.831 427.131 514.164 427.537 514.398C427.943 514.633 428.425 514.75 428.982 514.75C429.352 514.75 429.691 514.698 429.998 514.594C430.305 514.49 430.568 514.333 430.787 514.125C431.006 513.917 431.173 513.661 431.287 513.359L434.365 513.562C434.209 514.302 433.889 514.948 433.404 515.5C432.925 516.047 432.305 516.474 431.545 516.781C430.79 517.083 429.917 517.234 428.928 517.234ZM436.607 517V505H439.834V507.094H439.959C440.178 506.349 440.545 505.786 441.061 505.406C441.576 505.021 442.17 504.828 442.842 504.828C443.008 504.828 443.188 504.839 443.381 504.859C443.574 504.88 443.743 504.909 443.889 504.945V507.898C443.732 507.852 443.516 507.81 443.24 507.773C442.964 507.737 442.712 507.719 442.482 507.719C441.993 507.719 441.555 507.826 441.17 508.039C440.79 508.247 440.488 508.539 440.264 508.914C440.045 509.289 439.936 509.721 439.936 510.211V517H436.607ZM450.473 517.234C449.243 517.234 448.186 516.974 447.301 516.453C446.421 515.927 445.743 515.198 445.27 514.266C444.801 513.333 444.566 512.26 444.566 511.047C444.566 509.818 444.803 508.74 445.277 507.812C445.757 506.88 446.436 506.154 447.316 505.633C448.197 505.107 449.243 504.844 450.457 504.844C451.504 504.844 452.421 505.034 453.207 505.414C453.993 505.794 454.616 506.328 455.074 507.016C455.533 507.703 455.785 508.51 455.832 509.438H452.691C452.603 508.839 452.368 508.357 451.988 507.992C451.613 507.622 451.121 507.437 450.512 507.437C449.996 507.437 449.546 507.578 449.16 507.859C448.78 508.135 448.483 508.539 448.27 509.07C448.056 509.602 447.949 510.245 447.949 511C447.949 511.766 448.053 512.417 448.262 512.953C448.475 513.49 448.775 513.898 449.16 514.18C449.546 514.461 449.996 514.602 450.512 514.602C450.892 514.602 451.233 514.523 451.535 514.367C451.842 514.211 452.095 513.984 452.293 513.687C452.496 513.385 452.629 513.023 452.691 512.602H455.832C455.78 513.518 455.53 514.326 455.082 515.023C454.639 515.716 454.027 516.258 453.246 516.648C452.465 517.039 451.54 517.234 450.473 517.234ZM465.658 511.891V505H468.986V517H465.791V514.82H465.666C465.395 515.523 464.945 516.089 464.314 516.516C463.689 516.943 462.926 517.156 462.025 517.156C461.223 517.156 460.518 516.974 459.908 516.609C459.299 516.245 458.822 515.727 458.479 515.055C458.14 514.383 457.968 513.578 457.963 512.641V505H461.291V512.047C461.296 512.755 461.486 513.315 461.861 513.727C462.236 514.138 462.739 514.344 463.369 514.344C463.77 514.344 464.145 514.253 464.494 514.07C464.843 513.883 465.124 513.607 465.338 513.242C465.557 512.878 465.663 512.427 465.658 511.891ZM471.648 517V505H474.875V507.094H475C475.219 506.349 475.586 505.786 476.102 505.406C476.617 505.021 477.211 504.828 477.883 504.828C478.049 504.828 478.229 504.839 478.422 504.859C478.615 504.88 478.784 504.909 478.93 504.945V507.898C478.773 507.852 478.557 507.81 478.281 507.773C478.005 507.737 477.753 507.719 477.523 507.719C477.034 507.719 476.596 507.826 476.211 508.039C475.831 508.247 475.529 508.539 475.305 508.914C475.086 509.289 474.977 509.721 474.977 510.211V517H471.648ZM483.07 521.5C482.648 521.5 482.253 521.466 481.883 521.398C481.518 521.336 481.216 521.255 480.977 521.156L481.727 518.672C482.117 518.792 482.469 518.857 482.781 518.867C483.099 518.878 483.372 518.805 483.602 518.648C483.836 518.492 484.026 518.227 484.172 517.852L484.367 517.344L480.063 505H483.563L486.047 513.812H486.172L488.68 505H492.203L487.539 518.297C487.315 518.943 487.01 519.505 486.625 519.984C486.245 520.469 485.763 520.841 485.18 521.102C484.596 521.367 483.893 521.5 483.07 521.5Z" fill="black"/>
<g clip-path="url(#clip0_9_82)">
<path d="M449.147 317.82H444.481C444.396 317.217 444.222 316.68 443.959 316.212C443.696 315.736 443.359 315.331 442.947 314.997C442.535 314.663 442.059 314.408 441.519 314.23C440.987 314.053 440.408 313.964 439.783 313.964C438.653 313.964 437.67 314.244 436.832 314.805C435.994 315.359 435.344 316.169 434.882 317.234C434.42 318.293 434.19 319.578 434.19 321.091C434.19 322.646 434.42 323.953 434.882 325.011C435.351 326.07 436.004 326.869 436.842 327.408C437.68 327.948 438.65 328.218 439.751 328.218C440.369 328.218 440.94 328.136 441.466 327.973C441.999 327.81 442.471 327.572 442.883 327.259C443.295 326.94 443.636 326.553 443.906 326.098C444.183 325.643 444.374 325.125 444.481 324.543L449.147 324.564C449.026 325.565 448.724 326.531 448.241 327.462C447.766 328.385 447.123 329.212 446.313 329.944C445.511 330.668 444.552 331.244 443.437 331.67C442.329 332.089 441.075 332.298 439.676 332.298C437.73 332.298 435.99 331.858 434.456 330.977C432.929 330.097 431.722 328.822 430.834 327.153C429.953 325.484 429.513 323.463 429.513 321.091C429.513 318.712 429.96 316.688 430.855 315.018C431.75 313.349 432.964 312.078 434.499 311.205C436.033 310.324 437.759 309.884 439.676 309.884C440.94 309.884 442.112 310.061 443.192 310.416C444.278 310.771 445.241 311.29 446.079 311.972C446.917 312.646 447.599 313.474 448.124 314.454C448.657 315.434 448.998 316.556 449.147 317.82ZM457.036 332.309C455.992 332.309 455.061 332.128 454.245 331.766C453.428 331.396 452.782 330.853 452.306 330.136C451.837 329.411 451.603 328.509 451.603 327.43C451.603 326.521 451.77 325.757 452.103 325.139C452.437 324.521 452.892 324.024 453.467 323.648C454.042 323.271 454.696 322.987 455.427 322.795C456.166 322.604 456.94 322.469 457.75 322.391C458.701 322.291 459.468 322.199 460.051 322.114C460.633 322.021 461.056 321.886 461.319 321.709C461.581 321.531 461.713 321.268 461.713 320.92V320.857C461.713 320.182 461.5 319.66 461.074 319.29C460.654 318.921 460.058 318.737 459.284 318.737C458.467 318.737 457.817 318.918 457.334 319.28C456.851 319.635 456.532 320.082 456.375 320.622L452.178 320.281C452.391 319.287 452.81 318.428 453.435 317.703C454.06 316.972 454.866 316.411 455.853 316.02C456.848 315.622 457.998 315.423 459.305 315.423C460.214 315.423 461.084 315.53 461.915 315.743C462.753 315.956 463.495 316.286 464.142 316.734C464.795 317.181 465.31 317.756 465.686 318.46C466.063 319.156 466.251 319.99 466.251 320.963V332H461.947V329.731H461.819C461.556 330.242 461.205 330.693 460.765 331.084C460.324 331.467 459.795 331.769 459.177 331.989C458.559 332.202 457.846 332.309 457.036 332.309ZM458.336 329.177C459.003 329.177 459.593 329.045 460.104 328.783C460.615 328.513 461.017 328.151 461.308 327.696C461.599 327.241 461.745 326.727 461.745 326.151V324.415C461.603 324.507 461.407 324.592 461.159 324.67C460.917 324.741 460.644 324.809 460.338 324.873C460.033 324.93 459.728 324.983 459.422 325.033C459.117 325.075 458.84 325.114 458.591 325.15C458.059 325.228 457.593 325.352 457.196 325.523C456.798 325.693 456.489 325.924 456.269 326.215C456.049 326.499 455.939 326.854 455.939 327.281C455.939 327.898 456.162 328.371 456.61 328.697C457.064 329.017 457.64 329.177 458.336 329.177ZM474.31 310.182V332H469.772V310.182H474.31ZM482.484 310.182V332H477.946V310.182H482.484ZM493.148 332V310.182H497.687V318.385H497.825C498.024 317.945 498.312 317.497 498.688 317.043C499.072 316.581 499.569 316.197 500.18 315.892C500.797 315.58 501.564 315.423 502.481 315.423C503.674 315.423 504.775 315.736 505.783 316.361C506.792 316.979 507.598 317.913 508.202 319.163C508.805 320.406 509.107 321.964 509.107 323.839C509.107 325.665 508.812 327.206 508.223 328.463C507.64 329.713 506.845 330.661 505.836 331.308C504.835 331.947 503.713 332.266 502.47 332.266C501.589 332.266 500.84 332.121 500.222 331.83C499.611 331.538 499.111 331.173 498.72 330.732C498.329 330.285 498.031 329.834 497.825 329.379H497.623V332H493.148ZM497.591 323.818C497.591 324.791 497.726 325.64 497.996 326.364C498.265 327.089 498.656 327.653 499.167 328.058C499.679 328.456 500.3 328.655 501.032 328.655C501.77 328.655 502.395 328.452 502.907 328.048C503.418 327.636 503.805 327.067 504.068 326.343C504.338 325.612 504.473 324.77 504.473 323.818C504.473 322.874 504.341 322.043 504.079 321.325C503.816 320.608 503.429 320.047 502.917 319.642C502.406 319.237 501.778 319.035 501.032 319.035C500.293 319.035 499.668 319.23 499.157 319.621C498.653 320.011 498.265 320.565 497.996 321.283C497.726 322 497.591 322.845 497.591 323.818ZM519.529 332.32C517.874 332.32 516.443 331.968 515.235 331.265C514.035 330.555 513.108 329.567 512.455 328.303C511.801 327.032 511.475 325.558 511.475 323.882C511.475 322.192 511.801 320.714 512.455 319.45C513.108 318.179 514.035 317.192 515.235 316.489C516.443 315.778 517.874 315.423 519.529 315.423C521.184 315.423 522.611 315.778 523.811 316.489C525.019 317.192 525.949 318.179 526.603 319.45C527.256 320.714 527.583 322.192 527.583 323.882C527.583 325.558 527.256 327.032 526.603 328.303C525.949 329.567 525.019 330.555 523.811 331.265C522.611 331.968 521.184 332.32 519.529 332.32ZM519.55 328.804C520.303 328.804 520.931 328.591 521.436 328.165C521.94 327.732 522.32 327.142 522.576 326.396C522.838 325.651 522.97 324.802 522.97 323.85C522.97 322.898 522.838 322.05 522.576 321.304C522.32 320.558 521.94 319.969 521.436 319.536C520.931 319.102 520.303 318.886 519.55 318.886C518.79 318.886 518.151 319.102 517.632 319.536C517.121 319.969 516.734 320.558 516.471 321.304C516.216 322.05 516.088 322.898 516.088 323.85C516.088 324.802 516.216 325.651 516.471 326.396C516.734 327.142 517.121 327.732 517.632 328.165C518.151 328.591 518.79 328.804 519.55 328.804ZM533.74 315.636L536.745 321.357L539.824 315.636H544.479L539.738 323.818L544.607 332H539.973L536.745 326.343L533.57 332H528.882L533.74 323.818L529.053 315.636H533.74Z" fill="black"/>
<circle cx="487" cy="372" r="24" fill="#FDE4FF" stroke="white" stroke-width="2"/>
<path d="M474.5 368.242C474.5 364.104 477.846 360.75 482.001 360.75H491.999C496.142 360.75 499.5 364.118 499.5 368.242V382.25C499.5 382.802 499.052 383.25 498.5 383.25H482.001C477.858 383.25 474.5 379.882 474.5 375.758V368.242ZM490.75 370.75C490.06 370.75 489.5 371.31 489.5 372C489.5 372.69 490.06 373.25 490.75 373.25C491.44 373.25 492 372.69 492 372C492 371.31 491.44 370.75 490.75 370.75ZM483.25 370.75C482.56 370.75 482 371.31 482 372C482 372.69 482.56 373.25 483.25 373.25C483.94 373.25 484.5 372.69 484.5 372C484.5 371.31 483.94 370.75 483.25 370.75Z" fill="#DB00FF"/>
</g>
<circle cx="647.5" cy="766" r="25" fill="#EBE4FF"/>
<path d="M660 759.25V761.75C660 764.038 658.962 765.275 656.875 765.463C656.675 765.488 656.462 765.5 656.25 765.5H638.75C638.537 765.5 638.325 765.488 638.125 765.463C636.038 765.275 635 764.038 635 761.75V759.25C635 756.75 636.25 755.5 638.75 755.5H656.25C658.75 755.5 660 756.75 660 759.25ZM639.375 767.062C638.688 767.062 638.125 767.625 638.125 768.312V775.5C638.125 778 638.75 779.25 641.875 779.25H653.125C656.25 779.25 656.875 778 656.875 775.5V768.312C656.875 767.625 656.312 767.062 655.625 767.062H639.375ZM649.775 772.688H645.225C644.713 772.688 644.288 772.263 644.288 771.75C644.288 771.238 644.713 770.812 645.225 770.812H649.775C650.287 770.812 650.712 771.238 650.712 771.75C650.712 772.263 650.287 772.688 649.775 772.688Z" fill="#6F00FF"/>
<path d="M594.954 828H590.735L598.416 806.182H603.295L610.987 828H606.768L600.941 810.656H600.771L594.954 828ZM595.092 819.445H606.598V822.62H595.092V819.445ZM617.547 818.412V828H613.691V811.636H617.377V814.417H617.568C617.945 813.501 618.545 812.773 619.369 812.233C620.2 811.693 621.226 811.423 622.448 811.423C623.577 811.423 624.561 811.665 625.399 812.148C626.244 812.631 626.897 813.33 627.359 814.246C627.828 815.163 628.058 816.274 628.051 817.581V828H624.195V818.178C624.195 817.084 623.911 816.228 623.343 815.61C622.781 814.992 622.004 814.683 621.009 814.683C620.335 814.683 619.735 814.832 619.209 815.131C618.691 815.422 618.282 815.844 617.984 816.398C617.693 816.952 617.547 817.624 617.547 818.412ZM640.143 811.636V814.619H630.736V811.636H640.143ZM633.058 807.716H636.915V823.078C636.915 823.597 636.993 823.994 637.149 824.271C637.313 824.541 637.526 824.726 637.789 824.825C638.051 824.925 638.343 824.974 638.662 824.974C638.904 824.974 639.124 824.957 639.323 824.921C639.529 824.886 639.685 824.854 639.791 824.825L640.441 827.84C640.235 827.911 639.941 827.989 639.557 828.075C639.181 828.16 638.719 828.21 638.172 828.224C637.206 828.252 636.336 828.107 635.562 827.787C634.788 827.46 634.173 826.956 633.719 826.274C633.271 825.592 633.051 824.74 633.058 823.717V807.716ZM648.077 828.33C647.04 828.33 646.106 828.146 645.275 827.776C644.451 827.4 643.798 826.846 643.315 826.114C642.839 825.383 642.601 824.481 642.601 823.408C642.601 822.485 642.772 821.722 643.113 821.118C643.453 820.514 643.919 820.031 644.508 819.669C645.098 819.307 645.762 819.033 646.5 818.849C647.246 818.657 648.017 818.518 648.812 818.433C649.771 818.334 650.549 818.245 651.145 818.167C651.742 818.082 652.175 817.954 652.445 817.783C652.722 817.606 652.86 817.332 652.86 816.963V816.899C652.86 816.097 652.623 815.475 652.147 815.035C651.671 814.594 650.985 814.374 650.091 814.374C649.146 814.374 648.397 814.58 647.843 814.992C647.296 815.404 646.926 815.891 646.735 816.452L643.134 815.94C643.418 814.946 643.887 814.115 644.54 813.447C645.194 812.773 645.993 812.268 646.937 811.935C647.882 811.594 648.926 811.423 650.069 811.423C650.858 811.423 651.642 811.516 652.424 811.7C653.205 811.885 653.919 812.19 654.565 812.616C655.211 813.036 655.73 813.607 656.12 814.332C656.518 815.056 656.717 815.962 656.717 817.048V828H653.01V825.752H652.882C652.647 826.207 652.317 826.633 651.891 827.031C651.472 827.421 650.943 827.737 650.304 827.979C649.672 828.213 648.929 828.33 648.077 828.33ZM649.078 825.496C649.853 825.496 650.524 825.344 651.092 825.038C651.66 824.726 652.097 824.314 652.402 823.803C652.715 823.291 652.871 822.734 652.871 822.13V820.202C652.75 820.301 652.544 820.393 652.253 820.479C651.969 820.564 651.65 820.638 651.294 820.702C650.939 820.766 650.588 820.823 650.24 820.873C649.892 820.923 649.59 820.965 649.334 821.001C648.759 821.079 648.244 821.207 647.789 821.384C647.335 821.562 646.976 821.81 646.713 822.13C646.451 822.442 646.319 822.847 646.319 823.344C646.319 824.055 646.578 824.591 647.097 824.953C647.615 825.315 648.276 825.496 649.078 825.496ZM660.595 828V811.636H664.334V814.364H664.505C664.803 813.419 665.314 812.691 666.039 812.18C666.77 811.661 667.605 811.402 668.542 811.402C668.755 811.402 668.993 811.413 669.256 811.434C669.526 811.448 669.75 811.473 669.927 811.509V815.056C669.764 814.999 669.505 814.95 669.15 814.907C668.801 814.857 668.464 814.832 668.137 814.832C667.434 814.832 666.802 814.985 666.241 815.29C665.687 815.589 665.25 816.004 664.931 816.537C664.611 817.07 664.451 817.684 664.451 818.38V828H660.595ZM679.06 828.32C677.419 828.32 676.002 827.979 674.809 827.297C673.623 826.608 672.71 825.635 672.071 824.378C671.432 823.114 671.112 821.626 671.112 819.914C671.112 818.231 671.432 816.754 672.071 815.482C672.718 814.204 673.619 813.21 674.777 812.499C675.935 811.782 677.295 811.423 678.857 811.423C679.866 811.423 680.818 811.587 681.713 811.913C682.615 812.233 683.41 812.73 684.099 813.405C684.795 814.08 685.342 814.939 685.74 815.983C686.137 817.02 686.336 818.256 686.336 819.69V820.873H672.923V818.273H682.639C682.632 817.535 682.472 816.878 682.16 816.303C681.847 815.72 681.411 815.262 680.85 814.928C680.296 814.594 679.649 814.428 678.911 814.428C678.122 814.428 677.43 814.619 676.833 815.003C676.237 815.379 675.771 815.876 675.438 816.494C675.111 817.105 674.944 817.776 674.937 818.508V820.777C674.937 821.729 675.111 822.545 675.459 823.227C675.807 823.902 676.294 824.42 676.919 824.783C677.544 825.138 678.275 825.315 679.113 825.315C679.674 825.315 680.182 825.237 680.637 825.081C681.091 824.918 681.485 824.68 681.819 824.367C682.153 824.055 682.405 823.668 682.575 823.206L686.176 823.611C685.949 824.562 685.516 825.393 684.877 826.104C684.244 826.807 683.435 827.354 682.448 827.744C681.46 828.128 680.331 828.32 679.06 828.32ZM702.532 815.962L699.016 816.345C698.917 815.99 698.743 815.656 698.494 815.344C698.253 815.031 697.926 814.779 697.514 814.587C697.102 814.396 696.598 814.3 696.001 814.3C695.199 814.3 694.524 814.474 693.977 814.822C693.438 815.17 693.171 815.621 693.178 816.175C693.171 816.651 693.345 817.038 693.7 817.336C694.063 817.634 694.659 817.879 695.49 818.071L698.281 818.668C699.83 819.001 700.98 819.531 701.733 820.255C702.493 820.979 702.876 821.928 702.884 823.099C702.876 824.129 702.575 825.038 701.978 825.827C701.388 826.608 700.568 827.219 699.517 827.659C698.466 828.099 697.259 828.32 695.895 828.32C693.892 828.32 692.28 827.901 691.058 827.062C689.837 826.217 689.109 825.042 688.874 823.536L692.635 823.174C692.805 823.913 693.168 824.47 693.722 824.847C694.276 825.223 694.996 825.411 695.884 825.411C696.8 825.411 697.536 825.223 698.089 824.847C698.651 824.47 698.931 824.005 698.931 823.451C698.931 822.982 698.75 822.595 698.388 822.29C698.033 821.984 697.479 821.75 696.726 821.587L693.935 821.001C692.365 820.674 691.204 820.124 690.451 819.349C689.698 818.568 689.325 817.581 689.332 816.388C689.325 815.379 689.599 814.506 690.153 813.767C690.714 813.021 691.491 812.446 692.486 812.041C693.487 811.629 694.641 811.423 695.948 811.423C697.866 811.423 699.375 811.832 700.476 812.648C701.584 813.465 702.269 814.57 702.532 815.962Z" fill="black"/>
<circle cx="463.5" cy="766" r="25" fill="#EBE4FF"/>
<path d="M476 759.25V761.75C476 764.038 474.962 765.275 472.875 765.463C472.675 765.488 472.462 765.5 472.25 765.5H454.75C454.537 765.5 454.325 765.488 454.125 765.463C452.038 765.275 451 764.038 451 761.75V759.25C451 756.75 452.25 755.5 454.75 755.5H472.25C474.75 755.5 476 756.75 476 759.25ZM455.375 767.062C454.688 767.062 454.125 767.625 454.125 768.312V775.5C454.125 778 454.75 779.25 457.875 779.25H469.125C472.25 779.25 472.875 778 472.875 775.5V768.312C472.875 767.625 472.312 767.062 471.625 767.062H455.375ZM465.775 772.688H461.225C460.713 772.688 460.288 772.263 460.288 771.75C460.288 771.238 460.713 770.812 461.225 770.812H465.775C466.287 770.812 466.712 771.238 466.712 771.75C466.712 772.263 466.287 772.688 465.775 772.688Z" fill="#6F00FF"/>
<path d="M429.152 806.182H433.989L440.466 821.991H440.722L447.199 806.182H452.036V828H448.243V813.011H448.04L442.011 827.936H439.177L433.147 812.979H432.945V828H429.152V806.182ZM460.878 828.33C459.841 828.33 458.907 828.146 458.076 827.776C457.252 827.4 456.599 826.846 456.116 826.114C455.64 825.383 455.402 824.481 455.402 823.408C455.402 822.485 455.572 821.722 455.913 821.118C456.254 820.514 456.719 820.031 457.309 819.669C457.898 819.307 458.563 819.033 459.301 818.849C460.047 818.657 460.817 818.518 461.613 818.433C462.572 818.334 463.349 818.245 463.946 818.167C464.543 818.082 464.976 817.954 465.246 817.783C465.523 817.606 465.661 817.332 465.661 816.963V816.899C465.661 816.097 465.423 815.475 464.947 815.035C464.472 814.594 463.786 814.374 462.891 814.374C461.947 814.374 461.197 814.58 460.643 814.992C460.097 815.404 459.727 815.891 459.536 816.452L455.935 815.94C456.219 814.946 456.688 814.115 457.341 813.447C457.994 812.773 458.793 812.268 459.738 811.935C460.683 811.594 461.727 811.423 462.87 811.423C463.658 811.423 464.443 811.516 465.224 811.7C466.006 811.885 466.719 812.19 467.366 812.616C468.012 813.036 468.531 813.607 468.921 814.332C469.319 815.056 469.518 815.962 469.518 817.048V828H465.81V825.752H465.683C465.448 826.207 465.118 826.633 464.692 827.031C464.273 827.421 463.744 827.737 463.104 827.979C462.472 828.213 461.73 828.33 460.878 828.33ZM461.879 825.496C462.653 825.496 463.325 825.344 463.893 825.038C464.461 824.726 464.898 824.314 465.203 823.803C465.516 823.291 465.672 822.734 465.672 822.13V820.202C465.551 820.301 465.345 820.393 465.054 820.479C464.77 820.564 464.45 820.638 464.095 820.702C463.74 820.766 463.388 820.823 463.04 820.873C462.692 820.923 462.391 820.965 462.135 821.001C461.56 821.079 461.045 821.207 460.59 821.384C460.136 821.562 459.777 821.81 459.514 822.13C459.251 822.442 459.12 822.847 459.12 823.344C459.12 824.055 459.379 824.591 459.898 824.953C460.416 825.315 461.077 825.496 461.879 825.496ZM473.396 828V811.636H477.135V814.364H477.305C477.604 813.419 478.115 812.691 478.839 812.18C479.571 811.661 480.406 811.402 481.343 811.402C481.556 811.402 481.794 811.413 482.057 811.434C482.327 811.448 482.55 811.473 482.728 811.509V815.056C482.565 814.999 482.305 814.95 481.95 814.907C481.602 814.857 481.265 814.832 480.938 814.832C480.235 814.832 479.603 814.985 479.042 815.29C478.488 815.589 478.051 816.004 477.732 816.537C477.412 817.07 477.252 817.684 477.252 818.38V828H473.396ZM498.223 815.962L494.708 816.345C494.608 815.99 494.434 815.656 494.186 815.344C493.944 815.031 493.618 814.779 493.206 814.587C492.794 814.396 492.289 814.3 491.693 814.3C490.89 814.3 490.216 814.474 489.669 814.822C489.129 815.17 488.863 815.621 488.87 816.175C488.863 816.651 489.037 817.038 489.392 817.336C489.754 817.634 490.35 817.879 491.181 818.071L493.973 818.668C495.521 819.001 496.672 819.531 497.424 820.255C498.184 820.979 498.568 821.928 498.575 823.099C498.568 824.129 498.266 825.038 497.669 825.827C497.08 826.608 496.26 827.219 495.208 827.659C494.157 828.099 492.95 828.32 491.586 828.32C489.583 828.32 487.971 827.901 486.75 827.062C485.528 826.217 484.8 825.042 484.566 823.536L488.326 823.174C488.497 823.913 488.859 824.47 489.413 824.847C489.967 825.223 490.688 825.411 491.576 825.411C492.492 825.411 493.227 825.223 493.781 824.847C494.342 824.47 494.623 824.005 494.623 823.451C494.623 822.982 494.441 822.595 494.079 822.29C493.724 821.984 493.17 821.75 492.417 821.587L489.626 821.001C488.056 820.674 486.895 820.124 486.142 819.349C485.39 818.568 485.017 817.581 485.024 816.388C485.017 815.379 485.29 814.506 485.844 813.767C486.405 813.021 487.183 812.446 488.177 812.041C489.179 811.629 490.333 811.423 491.64 811.423C493.557 811.423 495.066 811.832 496.167 812.648C497.275 813.465 497.961 814.57 498.223 815.962Z" fill="black"/>
<defs>
<clipPath id="clip0_9_82">
<rect width="118" height="94" fill="white" transform="translate(428 303)"/>
</clipPath>
</defs>
</svg>
