<svg width="24" height="24" viewBox="0 0 24 24" fill="none" xmlns="http://www.w3.org/2000/svg">
<path d="M4 21C3.45 21 2.979 20.804 2.587 20.412C2.195 20.02 1.99934 19.5493 2 19V8C2 7.45 2.196 6.979 2.588 6.587C2.98 6.195 3.45067 5.99934 4 6H8V4C8 3.45 8.196 2.979 8.588 2.587C8.98 2.195 9.45067 1.99934 10 2H14C14.55 2 15.021 2.196 15.413 2.588C15.805 2.98 16.0007 3.45067 16 4V6H20C20.55 6 21.021 6.196 21.413 6.588C21.805 6.98 22.0007 7.45067 22 8V19C22 19.55 21.804 20.021 21.412 20.413C21.02 20.805 20.5493 21.0007 20 21H4ZM10 6H14V4H10V6Z" fill="black" fill-opacity="0.4"/>
</svg>
