<svg width="24" height="24" viewBox="0 0 24 24" fill="none" xmlns="http://www.w3.org/2000/svg">
<path d="M4.25 4C3.65326 4 3.08097 4.23705 2.65901 4.65901C2.23705 5.08097 2 5.65326 2 6.25V17.25C2 17.6111 2.07113 17.9687 2.20933 18.3024C2.34753 18.636 2.5501 18.9392 2.80546 19.1945C3.06082 19.4499 3.36398 19.6525 3.69762 19.7907C4.03127 19.9289 4.38886 20 4.75 20H9.25C9.61114 20 9.96873 19.9289 10.3024 19.7907C10.636 19.6525 10.9392 19.4499 11.1945 19.1945C11.4499 18.9392 11.6525 18.636 11.7907 18.3024C11.9289 17.9687 12 17.6111 12 17.25V9.5H20.5V19.25C20.5 19.4489 20.579 19.6397 20.7197 19.7803C20.8603 19.921 21.0511 20 21.25 20C21.4489 20 21.6397 19.921 21.7803 19.7803C21.921 19.6397 22 19.4489 22 19.25V6.25C22 5.65326 21.7629 5.08097 21.341 4.65901C20.919 4.23705 20.3467 4 19.75 4H4.25ZM3.5 9.5H10.5V17.25C10.5 17.94 9.94 18.5 9.25 18.5H4.75C4.06 18.5 3.5 17.94 3.5 17.25V9.5ZM3.5 8V6.25C3.5 6.05109 3.57902 5.86032 3.71967 5.71967C3.86032 5.57902 4.05109 5.5 4.25 5.5H19.75C19.9489 5.5 20.1397 5.57902 20.2803 5.71967C20.421 5.86032 20.5 6.05109 20.5 6.25V8H3.5ZM5.75 11.5C5.55109 11.5 5.36032 11.579 5.21967 11.7197C5.07902 11.8603 5 12.0511 5 12.25C5 12.4489 5.07902 12.6397 5.21967 12.7803C5.36032 12.921 5.55109 13 5.75 13H8.25C8.44891 13 8.63968 12.921 8.78033 12.7803C8.92098 12.6397 9 12.4489 9 12.25C9 12.0511 8.92098 11.8603 8.78033 11.7197C8.63968 11.579 8.44891 11.5 8.25 11.5H5.75Z" fill="#C0430E"/>
</svg>
