<svg width="30" height="30" viewBox="0 0 30 30" fill="none" xmlns="http://www.w3.org/2000/svg">
<path d="M11.25 2.5C7.97495 2.5 5.31245 5.1625 5.31245 8.4375C5.31245 11.65 7.82495 14.25 11.1 14.3625C11.2 14.35 11.3 14.35 11.375 14.3625H11.4625C12.9991 14.3112 14.4557 13.6643 15.5241 12.5586C16.5925 11.4529 17.189 9.97505 17.1875 8.4375C17.1875 5.1625 14.525 2.5 11.25 2.5ZM17.6 17.6875C14.1125 15.3625 8.42495 15.3625 4.91245 17.6875C3.32495 18.75 2.44995 20.1875 2.44995 21.725C2.44995 23.2625 3.32495 24.6875 4.89995 25.7375C6.64995 26.9125 8.94995 27.5 11.25 27.5C13.55 27.5 15.85 26.9125 17.6 25.7375C19.175 24.675 20.05 23.25 20.05 21.7C20.0375 20.1625 19.175 18.7375 17.6 17.6875ZM24.9874 9.175C25.1875 11.6 23.4625 13.725 21.075 14.0125H21.0125C20.9375 14.0125 20.8624 14.0125 20.7999 14.0375C19.5875 14.1 18.475 13.7125 17.6375 13C18.925 11.85 19.6625 10.125 19.5125 8.25C19.4267 7.275 19.0956 6.33757 18.55 5.525C19.2049 5.20635 19.9276 5.05183 20.6556 5.07478C21.3837 5.09772 22.0952 5.29743 22.7288 5.65669C23.3624 6.01595 23.8991 6.52396 24.2926 7.13691C24.6861 7.74986 24.9246 8.44933 24.9874 9.175Z" fill="#FAFAFA"/>
<path d="M27.4875 20.7375C27.3875 21.95 26.6125 23 25.3125 23.7125C24.0625 24.4 22.4875 24.725 20.925 24.6875C21.825 23.875 22.35 22.8625 22.45 21.7875C22.575 20.2375 21.8376 18.75 20.3626 17.5625C19.5251 16.9 18.55 16.375 17.4875 15.9875C20.25 15.1875 23.725 15.725 25.8625 17.45C27.0125 18.375 27.6 19.5375 27.4875 20.7375Z" fill="#FAFAFA"/>
</svg>
