<svg width="30" height="30" viewBox="0 0 30 30" fill="none" xmlns="http://www.w3.org/2000/svg">
<g id="&#208;&#152;&#208;&#186;&#208;&#190;&#208;&#189;&#208;&#186;&#208;&#184;">
<path id="Vector" d="M11 27.5C10.4477 27.5 10 27.0523 10 26.5V24.9348C10 24.1557 9.81796 23.3874 9.46839 22.6912L6.78161 17.34C6.43204 16.6438 6.25 15.8755 6.25 15.0965V9.75C6.25 9.19772 6.69772 8.75 7.25 8.75H7.5V4.375C7.5 3.89583 7.69271 3.46354 8.07812 3.07812C8.46354 2.69271 8.89583 2.5 9.375 2.5H20.625C21.1042 2.5 21.5365 2.69271 21.9219 3.07812C22.3073 3.46354 22.5 3.89583 22.5 4.375V8.75H22.75C23.3023 8.75 23.75 9.19772 23.75 9.75V15.0965C23.75 15.8755 23.568 16.6438 23.2184 17.34L20.5316 22.6912C20.182 23.3874 20 24.1557 20 24.9348V26.5C20 27.0523 19.5523 27.5 19 27.5H11ZM9.375 8.75H12V6.9375C12 6.52329 12.3358 6.1875 12.75 6.1875C13.1642 6.1875 13.5 6.52329 13.5 6.9375V8.75H16.5V6.9375C16.5 6.52329 16.8358 6.1875 17.25 6.1875C17.6642 6.1875 18 6.52329 18 6.9375V8.75H20.625V5.375C20.625 4.82272 20.1773 4.375 19.625 4.375H10.375C9.82272 4.375 9.375 4.82272 9.375 5.375V8.75Z" fill="white"/>
</g>
</svg>
