<svg width="30" height="30" viewBox="0 0 30 30" fill="none" xmlns="http://www.w3.org/2000/svg">
<path d="M15.0001 22.5005C15.893 22.5005 16.713 22.8125 17.357 23.3335L15.0001 26.2505L12.6431 23.3335C13.2871 22.8125 14.1071 22.5005 15.0001 22.5005ZM3.50958 1.74219L25.6066 23.8392L23.8389 25.607L17.3641 19.1306C16.6209 18.884 15.8261 18.7505 15.0001 18.7505C13.2149 18.7505 11.5753 19.3741 10.2875 20.4156L8.71704 18.4704C10.312 17.1806 12.3116 16.3715 14.4955 16.263L11.2503 13.018C9.44091 13.5296 7.78314 14.4025 6.35975 15.5537L4.78874 13.6089C6.12433 12.5288 7.63454 11.6559 9.27041 11.0394L6.4146 8.18178C4.98598 8.86181 3.65073 9.7063 2.43333 10.6908L0.861816 8.74633C2.00448 7.82224 3.23945 7.00776 4.55073 6.31889L1.74181 3.50996L3.50958 1.74219ZM18.1255 12.8573L15.2706 10.0034L15 10.0004C18.8684 10.0004 22.4211 11.3522 25.2116 13.609L23.6404 15.5537C22.0548 14.2714 20.1784 13.3344 18.1255 12.8573ZM15.0001 3.75045C20.3561 3.75045 25.275 5.62189 29.1386 8.74654L27.5667 10.6908C24.1326 7.91367 19.7606 6.25045 15.0001 6.25045C13.9025 6.25045 12.8255 6.33886 11.7759 6.50896L9.65569 4.389C11.3687 3.97167 13.1585 3.75045 15.0001 3.75045Z" fill="white"/>
</svg>
