<svg width="30" height="30" viewBox="0 0 30 30" fill="none" xmlns="http://www.w3.org/2000/svg">
<path d="M15 27.5C8.09644 27.5 2.5 21.9035 2.5 15C2.5 8.09644 8.09644 2.5 15 2.5C21.9035 2.5 27.5 8.09644 27.5 15C27.5 21.9035 21.9035 27.5 15 27.5ZM15 25C20.5229 25 25 20.5229 25 15C25 9.47715 20.5229 5 15 5C9.47715 5 5 9.47715 5 15C5 20.5229 9.47715 25 15 25ZM15 21.25C11.5482 21.25 8.75 18.4517 8.75 15C8.75 11.5482 11.5482 8.75 15 8.75C18.4517 8.75 21.25 11.5482 21.25 15C21.25 18.4517 18.4517 21.25 15 21.25Z" fill="white"/>
</svg>
