<svg width="30" height="30" viewBox="0 0 30 30" fill="none" xmlns="http://www.w3.org/2000/svg">
<path d="M12.0473 4.08775C12.3934 3.32904 12.9824 2.63457 13.8124 2.55467C14.5973 2.47913 15.3917 2.4774 16.1847 2.5524C17.0155 2.63099 17.605 3.32633 17.951 4.08579C18.3676 5.00022 19.063 5.79818 19.9996 6.33891C20.9361 6.8796 21.9749 7.0829 22.975 6.98651C23.8058 6.90645 24.7027 7.06922 25.1863 7.74949C25.6477 8.39872 26.0434 9.08753 26.3704 9.80503C26.7163 10.5638 26.4093 11.4211 25.9253 12.1002C25.3424 12.9179 24.9996 13.9185 24.9996 14.9991C24.9996 16.0797 25.3423 17.0802 25.925 17.8978C26.4099 18.5781 26.717 19.4372 26.3687 20.1966C26.2056 20.5522 26.0245 20.9035 25.8249 21.2491C25.6253 21.5948 25.4117 21.9274 25.1852 22.2465C24.7017 22.9277 23.8041 23.0913 22.9726 23.0116C21.9732 22.9157 20.9354 23.1192 19.9996 23.6594C19.0637 24.1997 18.3686 24.997 17.9518 25.9107C17.6058 26.6694 17.0168 27.3638 16.1868 27.4436C15.4019 27.5192 14.6075 27.5209 13.8146 27.4459C12.9837 27.3673 12.3942 26.6719 12.0482 25.9124C11.6315 24.998 10.9361 24.2001 9.99958 23.6594C9.06308 23.1187 8.02436 22.9154 7.02419 23.0118C6.1934 23.0919 5.29638 22.9291 4.81286 22.2488C4.35144 21.5996 3.95578 20.9108 3.62878 20.1933C3.28293 19.4345 3.5899 18.5771 4.07394 17.898C4.65677 17.0804 4.9996 16.0798 4.9996 14.9991C4.9996 13.9186 4.65682 12.9181 4.07407 12.1004C3.58927 11.4202 3.2822 10.5611 3.63038 9.80181C3.79349 9.44611 3.97469 9.09485 4.17427 8.74916C4.37386 8.40347 4.58746 8.07092 4.81394 7.75182C5.29742 7.07063 6.19498 6.90699 7.02649 6.98674C8.02595 7.08258 9.0638 6.87919 9.99958 6.33891C10.9355 5.79857 11.6306 5.00136 12.0473 4.08775ZM14.9996 18.7491C17.0706 18.7491 18.7496 17.0702 18.7496 14.9991C18.7496 12.9281 17.0706 11.2492 14.9996 11.2492C12.9285 11.2492 11.2496 12.9281 11.2496 14.9991C11.2496 17.0702 12.9285 18.7491 14.9996 18.7491Z" fill="white"/>
</svg>
