<svg width="30" height="30" viewBox="0 0 30 30" fill="none" xmlns="http://www.w3.org/2000/svg">
<g id="type=tv">
<path id="Vector" d="M27.5 3.4375H2.5C1.9875 3.4375 1.5625 3.0125 1.5625 2.5C1.5625 1.9875 1.9875 1.5625 2.5 1.5625H27.5C28.0125 1.5625 28.4375 1.9875 28.4375 2.5C28.4375 3.0125 28.0125 3.4375 27.5 3.4375ZM20.8375 27.925C20.675 28.25 20.3375 28.4375 20 28.4375C19.8625 28.4375 19.7125 28.4 19.5875 28.3375L15 26.05L10.4125 28.3375C10.2875 28.4 10.1375 28.4375 10 28.4375C9.6625 28.4375 9.325 28.25 9.1625 27.925C9.10517 27.8147 9.07067 27.6939 9.06108 27.5699C9.05149 27.4459 9.06699 27.3213 9.10666 27.2034C9.14634 27.0856 9.20937 26.9769 9.29198 26.884C9.3746 26.791 9.47511 26.7157 9.5875 26.6625L14.0625 24.425V21.25H15.9375V24.425L20.4125 26.6625C20.8875 26.8875 21.075 27.45 20.8375 27.925Z" fill="#FAFAFA"/>
<path id="Vector_2" d="M3.75 2.5V17.625C3.75 20 5 21.25 7.375 21.25H22.625C25 21.25 26.25 20 26.25 17.625V2.5H3.75ZM21.225 10.725L17.2875 14.0125C16.925 14.3125 16.4625 14.4375 16.025 14.3625C15.575 14.2875 15.1875 14.0125 14.95 13.6125L13.6375 11.425L9.975 14.475C9.8 14.625 9.5875 14.6875 9.375 14.6875C9.18121 14.6887 8.99183 14.6298 8.8329 14.5189C8.67397 14.408 8.55331 14.2506 8.48753 14.0683C8.42174 13.886 8.41406 13.6878 8.46554 13.501C8.51702 13.3141 8.62513 13.1479 8.775 13.025L12.7125 9.7375C13.075 9.4375 13.5375 9.3125 13.975 9.3875C14.425 9.4625 14.8125 9.7375 15.05 10.1375L16.3625 12.325L20.025 9.275C20.12 9.19576 20.2298 9.13611 20.3479 9.09948C20.4661 9.06285 20.5904 9.04998 20.7135 9.0616C20.8367 9.07322 20.9564 9.1091 21.0656 9.16718C21.1748 9.22526 21.2715 9.30439 21.35 9.4C21.675 9.8 21.625 10.3875 21.225 10.725Z" fill="#FAFAFA"/>
</g>
</svg>
