<svg width="30" height="30" viewBox="0 0 30 30" fill="none" xmlns="http://www.w3.org/2000/svg">
<path d="M20.15 12.4884V12.3384H20H19.375C19.1125 12.3384 18.9 12.126 18.9 11.863V8.11055C18.9 7.85228 19.1077 7.65 19.375 7.65H23.125C23.3922 7.65 23.6 7.85228 23.6 8.11055V11.863C23.6 12.126 23.3875 12.3384 23.125 12.3384H22.5H22.35V12.4884V12.9483C22.35 14.2064 21.68 15.3906 20.6015 16.0371L20.6014 16.0372L16.1727 18.6967L16.1 18.7404V18.8253V24.0109V24.1088L16.1896 24.1482C17.2392 24.6093 17.975 25.656 17.975 26.8729C17.975 28.5143 16.6401 29.85 15 29.85C13.3599 29.85 12.025 28.5143 12.025 26.8729C12.025 25.656 12.7607 24.6093 13.8103 24.1482L13.9 24.1088V24.0109V22.6055V22.5172L13.8229 22.4744L10.1266 20.4193L10.1265 20.4192C8.9847 19.7855 8.275 18.5788 8.275 17.2706V15.9758V15.8779L8.18533 15.8385C7.13573 15.3774 6.4 14.3307 6.4 13.1138C6.4 11.4732 7.73408 10.15 9.37498 10.15C11.0159 10.15 12.35 11.4732 12.35 13.1138C12.35 14.3307 11.6142 15.3774 10.5646 15.8385L10.475 15.8779V15.9758V17.2706C10.475 17.2706 10.475 17.2706 10.475 17.2706C10.4749 17.5203 10.5416 17.7654 10.6681 17.9806C10.7947 18.1958 10.9766 18.3732 11.1948 18.4944L13.6771 19.8747L13.9 19.9987V19.7436V6.23432V6.08432H13.75H11.875C11.875 6.08432 11.875 6.08432 11.875 6.08432C11.7902 6.08428 11.7069 6.06154 11.6338 6.01844C11.5607 5.97534 11.5005 5.91346 11.4594 5.83922C11.4183 5.76497 11.3978 5.68109 11.4001 5.59626C11.4024 5.51144 11.4274 5.42877 11.4724 5.35685L11.4725 5.35671L14.5974 0.353417C14.6788 0.223284 14.8328 0.150015 15 0.150015C15.1671 0.150015 15.3212 0.223269 15.4026 0.353388C15.4026 0.353403 15.4026 0.353417 15.4026 0.353432L18.5275 5.35671L18.5276 5.35685C18.5727 5.42877 18.5976 5.51144 18.5999 5.59626C18.6022 5.68109 18.5817 5.76498 18.5406 5.83921L18.6719 5.91186L18.5406 5.83922C18.4995 5.91346 18.4393 5.97534 18.3662 6.01844C18.2931 6.06154 18.2099 6.08428 18.125 6.08432C18.125 6.08432 18.125 6.08432 18.125 6.08432H16.25H16.1V6.23432V15.9079V16.1729L16.3272 16.0364L19.4698 14.1495C19.4699 14.1495 19.4699 14.1495 19.4699 14.1495C19.8899 13.8976 20.15 13.4377 20.15 12.9483V12.4884ZM16.25 24.0109V18.8253L13.75 22.6055V24.0109C12.6483 24.4948 11.875 25.5939 11.875 26.8729C11.875 28.5971 13.277 30 15 30C16.723 30 18.125 28.5971 18.125 26.8729C18.125 25.5939 17.3516 24.4949 16.25 24.0109Z" fill="#FAFAFA" stroke="#FAFAFA" stroke-width="0.3"/>
</svg>
