<svg width="21" height="22" viewBox="0 0 21 22" fill="none" xmlns="http://www.w3.org/2000/svg">
<path d="M10.375 0.714285C16.0557 0.714285 20.6607 5.31936 20.6607 11C20.6607 16.6806 16.0557 21.2857 10.375 21.2857C4.69437 21.2857 0.0892944 16.6806 0.0892944 11C0.0892944 5.31936 4.69437 0.714285 10.375 0.714285ZM10.375 16.5714C8.58706 16.5714 6.8779 17.0703 5.40633 17.9849C6.80773 18.9839 8.52276 19.5714 10.375 19.5714C12.2269 19.5714 13.9416 18.9841 15.343 17.9857C13.8717 17.0701 12.1627 16.5714 10.375 16.5714ZM10.375 2.42857C5.64114 2.42857 1.80358 6.26613 1.80358 11C1.80358 13.242 2.66437 15.283 4.07349 16.8104C5.90554 15.5499 8.08728 14.8571 10.375 14.8571C12.663 14.8571 14.8449 15.55 16.6773 16.8092C18.086 15.2822 18.9464 13.2416 18.9464 11C18.9464 6.26613 15.1089 2.42857 10.375 2.42857ZM10.375 5.42857C12.6243 5.42857 14.4464 7.25072 14.4464 9.5C14.4464 11.7493 12.6243 13.5714 10.375 13.5714C8.12573 13.5714 6.30358 11.7493 6.30358 9.5C6.30358 7.25072 8.12573 5.42857 10.375 5.42857ZM10.375 7.14286C9.0725 7.14286 8.01787 8.19749 8.01787 9.5C8.01787 10.8025 9.0725 11.8571 10.375 11.8571C11.6775 11.8571 12.7322 10.8025 12.7322 9.5C12.7322 8.19749 11.6775 7.14286 10.375 7.14286Z" fill="black" fill-opacity="0.4"/>
</svg>
